<?xml version="1.0" encoding="UTF-8" standalone="no"?>
<!-- Created with Inkscape (http://www.inkscape.org/) -->

<svg
   width="192.51299mm"
   height="163.60503mm"
   viewBox="0 0 192.51299 163.60503"
   version="1.1"
   id="svg2220"
   inkscape:version="1.1.2 (0a00cf5339, 2022-02-04)"
   sodipodi:docname="cash.svg"
   xmlns:inkscape="http://www.inkscape.org/namespaces/inkscape"
   xmlns:sodipodi="http://sodipodi.sourceforge.net/DTD/sodipodi-0.dtd"
   xmlns="http://www.w3.org/2000/svg"
   xmlns:svg="http://www.w3.org/2000/svg">
  <sodipodi:namedview
     id="namedview2222"
     pagecolor="#ffffff"
     bordercolor="#999999"
     borderopacity="1"
     inkscape:pageshadow="0"
     inkscape:pageopacity="0"
     inkscape:pagecheckerboard="0"
     inkscape:document-units="mm"
     showgrid="false"
     fit-margin-top="0"
     fit-margin-left="0"
     fit-margin-right="0"
     fit-margin-bottom="0"
     inkscape:zoom="0.67704826"
     inkscape:cx="388.45089"
     inkscape:cy="435.71488"
     inkscape:window-width="1920"
     inkscape:window-height="1011"
     inkscape:window-x="0"
     inkscape:window-y="1112"
     inkscape:window-maximized="1"
     inkscape:current-layer="layer1" />
  <defs
     id="defs2217">
    <symbol
       id="m"
       overflow="visible">
      <path
         d="m 29.312,-1.75 c -1.5117,0.78125 -3.0898,1.3711 -4.7344,1.7656 -1.6367,0.40625 -3.3398,0.60938 -5.1094,0.60938 -5.3125,0 -9.5273,-1.4844 -12.641,-4.4531 -3.1055,-2.9688 -4.6562,-7 -4.6562,-12.094 0,-5.094 1.5508,-9.125 4.6562,-12.094 3.1133,-2.9688 7.3281,-4.4531 12.641,-4.4531 1.7695,0 3.4727,0.19922 5.1094,0.59375 1.6445,0.39844 3.2227,0.99219 4.7344,1.7812 v 6.5938 c -1.5312,-1.0391 -3.0391,-1.8008 -4.5156,-2.2812 -1.4805,-0.48828 -3.0391,-0.73438 -4.6719,-0.73438 -2.9375,0 -5.2461,0.94531 -6.9219,2.8281 -1.6797,1.875 -2.5156,4.4648 -2.5156,7.7656 0,3.293 0.83594,5.8828 2.5156,7.7656 1.6758,1.875 3.9844,2.8125 6.9219,2.8125 1.6328,0 3.1914,-0.23828 4.6719,-0.71875 1.4766,-0.48828 2.9844,-1.2539 4.5156,-2.2969 z"
         id="path2439" />
    </symbol>
    <symbol
       id="e"
       overflow="visible">
      <path
         d="m 21.453,-17.406 c -0.67969,-0.3125 -1.3516,-0.53906 -2.0156,-0.6875 -0.65625,-0.15625 -1.3203,-0.23438 -1.9844,-0.23438 -1.9688,0 -3.4844,0.63281 -4.5469,1.8906 -1.0547,1.2617 -1.5781,3.0703 -1.5781,5.4219 V 6.2e-4 H 3.6718 v -23.922 h 7.6562 v 3.9219 c 0.97656,-1.5625 2.1016,-2.7031 3.375,-3.4219 1.2812,-0.71875 2.8125,-1.0781 4.5938,-1.0781 0.25,0 0.52344,0.01172 0.82812,0.03125 0.30078,0.02344 0.73438,0.07031 1.2969,0.14062 z"
         id="path2442" />
    </symbol>
    <symbol
       id="d"
       overflow="visible">
      <path
         d="m 27.562,-12.031 v 2.1875 H 9.671 c 0.1875,1.793 0.83203,3.1367 1.9375,4.0312 1.1133,0.89844 2.6719,1.3438 4.6719,1.3438 1.6016,0 3.25,-0.23438 4.9375,-0.70312 1.6875,-0.47656 3.4219,-1.2031 5.2031,-2.1719 v 5.8906 c -1.8047,0.6875 -3.6094,1.2031 -5.4219,1.5469 -1.8125,0.35156 -3.6211,0.53125 -5.4219,0.53125 -4.3359,0 -7.7031,-1.0977 -10.109,-3.2969 -2.3984,-2.207 -3.5938,-5.2969 -3.5938,-9.2656 0,-3.9062 1.1758,-6.9727 3.5312,-9.2031 2.3633,-2.2383 5.6094,-3.3594 9.7344,-3.3594 3.7578,0 6.7695,1.1367 9.0312,3.4062 2.2578,2.2617 3.3906,5.2812 3.3906,9.0625 z m -7.8594,-2.5312 c 0,-1.457 -0.42969,-2.6289 -1.2812,-3.5156 -0.84375,-0.89453 -1.9492,-1.3438 -3.3125,-1.3438 -1.4922,0 -2.6992,0.41797 -3.625,1.25 -0.91797,0.83594 -1.4922,2.0391 -1.7188,3.6094 z"
         id="path2445" />
    </symbol>
    <symbol
       id="b"
       overflow="visible">
      <path
         d="m 14.391,-10.766 c -1.5938,0 -2.793,0.27344 -3.5938,0.8125 -0.80469,0.54297 -1.2031,1.3398 -1.2031,2.3906 0,0.96875 0.32031,1.7305 0.96875,2.2812 0.64453,0.54297 1.5469,0.8125 2.7031,0.8125 1.4375,0 2.6445,-0.51562 3.625,-1.5469 0.98828,-1.0312 1.4844,-2.3203 1.4844,-3.875 v -0.875 z m 11.688,-2.8906 V -6e-4 h -7.7031 v -3.5469 c -1.0312,1.4492 -2.1875,2.5078 -3.4688,3.1719 -1.2813,0.6641 -2.8398,1 -4.6719,1 -2.4805,0 -4.4961,-0.72266 -6.0469,-2.1719 -1.543,-1.4453 -2.3125,-3.3203 -2.3125,-5.625 0,-2.8125 0.96094,-4.8672 2.8906,-6.1719 1.9375,-1.3125 4.9688,-1.9688 9.0938,-1.9688 h 4.5156 v -0.60938 c 0,-1.207 -0.48047,-2.0938 -1.4375,-2.6562 -0.94922,-0.5625 -2.4375,-0.84375 -4.4688,-0.84375 -1.6367,0 -3.1562,0.16797 -4.5625,0.5 -1.4062,0.32422 -2.7188,0.8125 -3.9375,1.4688 v -5.8281 c 1.6445,-0.40625 3.2891,-0.70703 4.9375,-0.90625 1.6562,-0.20703 3.3047,-0.3125 4.9531,-0.3125 4.3203,0 7.4375,0.85547 9.3438,2.5625 1.9141,1.6992 2.875,4.4609 2.875,8.2812 z"
         id="path2448" />
    </symbol>
    <symbol
       id="c"
       overflow="visible">
      <path
         d="m 12.031,-30.719 v 6.7969 h 7.875 v 5.4688 h -7.875 v 10.141 c 0,1.1172 0.21875,1.8711 0.65625,2.2656 0.4375,0.38672 1.3125,0.57812 2.625,0.57812 h 3.9375 v 5.4688 h -6.5625 c -3.0234,0 -5.1641,-0.62891 -6.4219,-1.8906 -1.2617,-1.2578 -1.8906,-3.3984 -1.8906,-6.4219 v -10.141 h -3.7969 v -5.4688 h 3.7969 v -6.7969 z"
         id="path2451" />
    </symbol>
    <symbol
       id="a"
       overflow="visible">
      <path
         d="m 19.953,-20.422 v -12.812 h 7.6875 V 0 H 19.953 v -3.4531 c -1.0547,1.4062 -2.2148,2.4375 -3.4844,3.0938 -1.2734,0.65625 -2.7422,0.98438 -4.4062,0.98438 -2.9492,0 -5.3711,-1.1719 -7.2656,-3.5156 -1.8867,-2.3438 -2.8281,-5.3594 -2.8281,-9.0469 0,-3.6875 0.94141,-6.7031 2.8281,-9.0469 1.8945,-2.3438 4.3164,-3.5156 7.2656,-3.5156 1.6562,0 3.1172,0.33594 4.3906,1 1.2812,0.65625 2.4453,1.6836 3.5,3.0781 z m -5.0469,15.484 c 1.6445,0 2.8945,-0.59766 3.75,-1.7969 0.86328,-1.1953 1.2969,-2.9297 1.2969,-5.2031 0,-2.2812 -0.43359,-4.0195 -1.2969,-5.2188 -0.85547,-1.1953 -2.1055,-1.7969 -3.75,-1.7969 -1.625,0 -2.8711,0.60156 -3.7344,1.7969 -0.85547,1.1992 -1.2812,2.9375 -1.2812,5.2188 0,2.2734 0.42578,4.0078 1.2812,5.2031 0.86328,1.1992 2.1094,1.7969 3.7344,1.7969 z"
         id="path2454" />
    </symbol>
    <symbol
       id="h"
       overflow="visible">
      <path
         d="m 16.406,-4.9375 c 1.6328,0 2.8828,-0.59766 3.75,-1.7969 0.86328,-1.1953 1.2969,-2.9297 1.2969,-5.2031 0,-2.2812 -0.43359,-4.0195 -1.2969,-5.2188 -0.86719,-1.1953 -2.1172,-1.7969 -3.75,-1.7969 -1.6367,0 -2.8906,0.60547 -3.7656,1.8125 -0.875,1.1992 -1.3125,2.9336 -1.3125,5.2031 0,2.2617 0.4375,3.9961 1.3125,5.2031 0.875,1.1992 2.1289,1.7969 3.7656,1.7969 z m -5.0781,-15.484 c 1.0508,-1.3945 2.2188,-2.4219 3.5,-3.0781 1.2812,-0.66406 2.7539,-1 4.4219,-1 2.9453,0 5.3672,1.1719 7.2656,3.5156 1.8945,2.3438 2.8438,5.3594 2.8438,9.0469 0,3.6875 -0.94922,6.7031 -2.8438,9.0469 -1.8984,2.3438 -4.3203,3.5156 -7.2656,3.5156 -1.668,0 -3.1406,-0.33594 -4.4219,-1 -1.2813,-0.66406 -2.4492,-1.6914 -3.5,-3.0781 V 4e-4 H 3.6717 v -33.234 h 7.6562 z"
         id="path2457" />
    </symbol>
    <symbol
       id="g"
       overflow="visible">
      <path
         d="m 0.53125,-23.922 h 7.6562 l 6.4219,16.234 5.4688,-16.234 h 7.6562 l -10.062,26.188 c -1.0117,2.6641 -2.1953,4.5234 -3.5469,5.5781 -1.3438,1.0625 -3.1211,1.5938 -5.3281,1.5938 H 4.37545 V 4.4223 h 2.3906 c 1.3008,0 2.2422,-0.21094 2.8281,-0.625 0.59375,-0.40625 1.0547,-1.1484 1.3906,-2.2188 l 0.20312,-0.65625 z"
         id="path2460" />
    </symbol>
    <symbol
       id="f"
       overflow="visible">
      <path
         d="M 23.375,-5.8125 H 10.516 L 8.4848,0 H 0.2192 l 11.812,-31.891 h 9.7969 L 33.6401,0 h -8.2656 z m -10.812,-5.9219 h 8.7344 l -4.3594,-12.688 z"
         id="path2463" />
    </symbol>
    <symbol
       id="l"
       overflow="visible">
      <path
         d="m 19.422,-33.234 v 5.0156 h -4.2344 c -1.0859,0 -1.8398,0.19922 -2.2656,0.59375 -0.42969,0.38672 -0.64062,1.0625 -0.64062,2.0312 v 1.6719 h 6.5312 v 5.4688 h -6.5312 v 18.453 h -7.6406 v -18.453 h -3.8125 v -5.4688 h 3.8125 v -1.6719 c 0,-2.6016 0.72266,-4.5234 2.1719,-5.7656 1.457,-1.25 3.707,-1.875 6.75,-1.875 z"
         id="path2466" />
    </symbol>
    <symbol
       id="k"
       overflow="visible">
      <path
         d="m 4.0156,-31.891 h 8.2188 v 19.109 c 0,2.6367 0.42969,4.5234 1.2969,5.6562 0.86328,1.1367 2.2695,1.7031 4.2188,1.7031 1.9688,0 3.3789,-0.56641 4.2344,-1.7031 0.86328,-1.1328 1.2969,-3.0195 1.2969,-5.6562 v -19.109 h 8.2344 v 19.109 c 0,4.5234 -1.1367,7.8867 -3.4062,10.094 -2.2617,2.2109 -5.7148,3.3125 -10.359,3.3125 -4.625,0 -8.0742,-1.1016 -10.344,-3.3125 C 5.1449,-4.895 4.016,-8.2583 4.016,-12.782 Z"
         id="path2469" />
    </symbol>
    <symbol
       id="j"
       overflow="visible">
      <path
         d="m 3.6719,-23.922 h 7.6562 V 0 H 3.6719 Z m 0,-9.3125 h 7.6562 v 6.2344 H 3.6719 Z"
         id="path2472" />
    </symbol>
    <symbol
       id="i"
       overflow="visible">
      <path
         d="M 27.734,-14.562 V 0 h -7.7031 v -11.156 c 0,-2.0625 -0.04687,-3.4844 -0.14062,-4.2656 -0.08594,-0.78125 -0.24219,-1.3594 -0.46875,-1.7344 -0.30469,-0.5 -0.71094,-0.88281 -1.2188,-1.1562 -0.51172,-0.28125 -1.0938,-0.42188 -1.75,-0.42188 -1.5938,0 -2.8516,0.61719 -3.7656,1.8438 -0.90625,1.2305 -1.3594,2.9375 -1.3594,5.125 v 11.766 h -7.6562 v -23.922 h 7.6562 v 3.5 c 1.1445,-1.3945 2.3633,-2.4219 3.6562,-3.0781 1.3008,-0.66406 2.7383,-1 4.3125,-1 2.7578,0 4.8516,0.85156 6.2812,2.5469 1.4375,1.6875 2.1562,4.1523 2.1562,7.3906 z"
         id="path2475" />
    </symbol>
  </defs>
  <g
     inkscape:label="Layer 1"
     inkscape:groupmode="layer"
     id="layer1"
     transform="translate(-2.2015083,-33.395613)">
    <g
       id="g2718">
      <path
         d="m 145.36734,176.94174 c 0,-1.97612 -1.27194,-3.78672 -3.52778,-5.33718 -0.88332,0.99082 -2.06156,1.90719 -3.51952,2.74091 0.98531,0.79375 1.54891,1.6261 1.61505,2.43914 0.003,0.0524 0.005,0.10473 0.005,0.15985 0,3.46989 -9.1186,7.33672 -22.2003,7.33672 -12.81995,0 -21.83377,-3.71369 -22.187959,-7.12999 -0.0096,-0.0675 -0.01238,-0.13918 -0.01238,-0.20671 0,-0.15985 0.02755,-0.32384 0.06477,-0.48782 -0.465773,-0.15434 -0.92329,-0.31419 -1.361511,-0.48507 -1.252643,-0.48094 -2.382626,-1.00873 -3.385855,-1.57787 -0.48507,0.81168 -0.746901,1.66328 -0.746901,2.54939 l 0.05926,9.4548 c 0,6.04696 11.878736,10.60273 27.626736,10.60273 15.13487,0 26.69116,-4.20723 27.5717,-9.90247 0.0372,-0.23151 0.0524,-0.46577 0.0524,-0.70005 v -0.16399 z m -24.11412,18.54553 h -7.02804 v -8.93657 h 7.02804 z"
         id="path2480"
         style="stroke-width:0.352778" />
      <path
         d="m 142.17117,166.71824 -0.0551,-9.29076 c 0,-6.04696 -11.87873,-10.60661 -27.62673,-10.60661 -15.748002,0 -27.626735,4.55859 -27.626735,10.60661 l 0.05926,9.4548 c 0,6.04696 11.878733,10.60274 27.626725,10.60274 15.13488,0 26.69117,-4.20723 27.5717,-9.90248 0.0372,-0.23151 0.0524,-0.46577 0.0524,-0.70005 m -24.17092,9.09356 h -7.02804 v -8.93657 h 7.02804 z m -3.51261,-11.21164 c -12.81994,0 -21.833765,-3.71369 -22.187954,-7.12999 -0.0096,-0.0675 -0.01242,-0.13918 -0.01242,-0.2067 0,-3.46989 9.118594,-7.33672 22.200304,-7.33672 12.88203,0 21.91914,3.75108 22.19466,7.17973 0.003,0.0524 0.006,0.10473 0.006,0.15985 0,3.46576 -9.1186,7.3339 -22.2003,7.3339 z"
         id="path2482"
         style="stroke-width:0.352778" />
      <path
         d="m 79.997618,157.42607 c 0,-1.97612 -1.271941,-3.78671 -3.527778,-5.33717 -0.883321,0.99081 -2.061563,1.90718 -3.519523,2.7409 0.985308,0.79375 1.548906,1.6261 1.615052,2.43915 0.0028,0.0524 0.0055,0.10473 0.0055,0.15985 0,3.46988 -9.1186,7.33672 -22.200305,7.33672 -12.819945,0 -21.83377,-3.7137 -22.187959,-7.13 -0.0096,-0.0675 -0.01238,-0.13918 -0.01238,-0.2067 0,-0.15985 0.02755,-0.32384 0.06477,-0.48782 -0.465772,-0.15434 -0.92329,-0.3142 -1.361511,-0.48507 -1.252643,-0.48095 -2.382625,-1.00874 -3.385855,-1.57787 -0.485069,0.81167 -0.746901,1.66327 -0.746901,2.54938 l 0.05926,9.4548 c 0,6.04696 11.878734,10.60273 27.626734,10.60273 15.134872,0 26.691166,-4.20722 27.5717,-9.90247 0.03721,-0.23151 0.05237,-0.46577 0.05237,-0.70005 v -0.16399 z m -24.111656,18.54976 h -7.028039 v -8.93656 h 7.028039 z"
         id="path2484"
         style="stroke-width:0.352778" />
      <path
         d="m 73.32659,175.72818 c -0.391372,0.15985 -0.796502,0.31833 -1.216801,0.46853 -1.269189,0.45752 -2.645834,0.86402 -4.108098,1.21955 -0.784119,3.33622 -9.651647,6.85835 -22.138216,6.85835 -12.819945,0 -21.83377,-3.71369 -22.187959,-7.12999 -0.0096,-0.0675 -0.01242,-0.13918 -0.01242,-0.2067 0,-1.24714 1.185122,-2.54664 3.305916,-3.70135 -1.244353,-0.92329 -2.19523,-1.92927 -2.833229,-2.99999 -3.719336,1.80249 -5.899503,4.1148 -5.899503,6.70137 l 0.05926,9.4548 c 0,6.04696 11.878733,10.60273 27.626733,10.60273 15.134872,0 26.691167,-4.20722 27.5717,-9.90247 0.03721,-0.23151 0.05237,-0.46577 0.05237,-0.70005 v -0.16399 l -0.05512,-9.29075 c 0.0014,-0.40929 -0.0565,-0.81167 -0.165365,-1.20992 z M 49.383209,195.48797 H 42.35517 v -8.93656 h 7.028039 z"
         id="path2486"
         style="stroke-width:0.352778" />
      <path
         d="m 76.804979,147.2061 -0.05512,-9.29076 c 0,-6.04696 -11.878733,-10.60661 -27.626733,-10.60661 -15.748,0 -27.626734,4.55859 -27.626734,10.60661 l 0.05926,9.4548 c 0,6.04697 11.878734,10.60274 27.626734,10.60274 15.134872,0 26.691167,-4.20723 27.5717,-9.90247 0.03721,-0.23151 0.05237,-0.46578 0.05237,-0.70006 m -24.172333,9.09356 h -7.028039 v -8.93657 h 7.028039 z m -3.512609,-11.21163 c -12.819944,0 -21.833769,-3.7137 -22.187958,-7.13 -0.0096,-0.0675 -0.01242,-0.13918 -0.01242,-0.2067 0,-3.46989 9.1186,-7.33672 22.200306,-7.33672 12.882033,0 21.919142,3.75108 22.194661,7.17973 0.0028,0.0524 0.0055,0.10473 0.0055,0.15985 0,3.46576 -9.1186,7.3339 -22.200305,7.3339 z"
         id="path2488"
         style="stroke-width:0.352778" />
      <path
         d="M 194.44578,124.97052 189.67376,104.9532 174.2743,40.377227 c -1.16307,-4.879622 -6.06601,-7.896225 -10.94845,-6.731705 L 9.1831227,70.397911 C 4.3035004,71.560984 1.2868976,76.463925 2.4514171,81.343547 L 15.737028,137.05421 c 0.253559,-3.01928 1.988503,-7.67715 9.36237,-11.17176 l -6.164086,-25.84909 h 0.0028 c 5.302603,-1.339461 20.2311,-6.679494 15.924742,-23.728538 L 144.51327,50.159402 c 0.38862,1.496554 1.08588,3.69182 2.25033,5.997223 3.04959,6.056489 9.29746,12.865452 21.56072,9.695744 l 9.7663,40.953971 c -5.3026,1.33671 -20.23357,6.6795 -15.92192,23.73136 l -44.26656,10.55723 c 7.00441,0.28663 13.44013,1.44833 18.39137,3.34864 2.32061,0.89157 4.18218,1.8893 5.68289,2.93521 l 13.29126,-3.16949 32.05304,-7.64258 c 5.1689,-1.23335 8.3633,-6.42585 7.12858,-11.59898 z"
         id="path2490"
         style="stroke-width:0.352778" />
      <path
         d="M 91.399395,73.599016 C 74.927848,77.52508 64.76044,94.064361 68.686504,110.53485 c 3.926064,16.47155 20.465344,26.63896 36.935836,22.71289 16.47049,-3.92606 26.63895,-20.46534 22.71289,-36.935832 C 124.40917,79.840361 107.86988,69.671541 91.399395,73.599016 Z m 23.232185,40.290754 c -0.41067,1.78456 -1.19476,3.38306 -2.37025,4.79707 -1.18237,1.41661 -2.68305,2.62654 -4.51026,3.62691 -0.71656,0.39825 -1.48139,0.75653 -2.27238,1.07763 l 0.83372,3.49747 -4.58753,1.0928 -0.76619,-3.20668 c -1.163078,0.24667 -2.297188,0.41342 -3.395491,0.49333 -1.302244,0.0896 -2.491493,0.0992 -3.559527,0.0124 -1.065213,-0.0772 -1.963703,-0.20119 -2.706476,-0.38033 -0.741398,-0.16949 -1.293989,-0.37069 -1.66744,-0.58014 -0.37345,-0.21911 -0.716562,-0.61736 -1.025243,-1.1975 -0.311435,-0.58015 -0.611857,-1.47864 -0.901241,-2.69131 -0.191548,-0.7965 -0.321084,-1.4442 -0.373451,-1.93477 -0.06477,-0.49749 -0.07441,-0.904 -0.0303,-1.21268 0.04272,-0.31832 0.129536,-0.54296 0.271473,-0.67938 0.141937,-0.13642 0.338998,-0.23151 0.587057,-0.29076 0.305926,-0.0744 0.79375,-0.01 1.466215,0.1943 0.67938,0.20119 1.506185,0.40375 2.484614,0.60494 0.978394,0.20671 2.098746,0.34314 3.355517,0.42305 1.256771,0.0799 2.626536,-0.0593 4.108097,-0.41342 0.938456,-0.226 1.747336,-0.50987 2.429476,-0.87919 0.68488,-0.36795 1.25264,-0.7965 1.70324,-1.28157 0.45061,-0.48507 0.75378,-1.03766 0.89849,-1.65502 0.1447,-0.61736 0.12678,-1.28432 -0.0427,-2.00092 -0.19705,-0.82684 -0.62011,-1.47588 -1.26918,-1.94441 -0.65734,-0.47265 -1.45109,-0.82684 -2.3978,-1.06796 -0.948087,-0.23703 -1.991251,-0.42305 -3.141906,-0.5581 -1.152031,-0.13642 -2.339905,-0.29903 -3.571875,-0.50299 -1.222305,-0.20394 -2.439141,-0.48094 -3.642078,-0.83372 -1.209922,-0.34864 -2.333025,-0.87093 -3.385855,-1.5489 -1.043164,-0.68213 -1.97612,-1.57787 -2.780877,-2.70094 -0.80892,-1.11485 -1.416615,-2.536966 -1.830035,-4.274608 -0.420299,-1.759761 -0.463021,-3.460256 -0.119888,-5.10293 0.33624,-1.632974 1.02803,-3.129527 2.073945,-4.488392 1.040413,-1.351845 2.429475,-2.541094 4.145139,-3.56482 0.76895,-0.450603 1.598507,-0.861271 2.481863,-1.222304 l -0.821302,-3.445087 4.587522,-1.092799 0.76207,3.198424 c 0.826841,-0.166744 1.650895,-0.283877 2.469445,-0.351398 1.127231,-0.09508 2.160762,-0.119888 3.099222,-0.08682 0.93846,0.03721 1.75009,0.136427 2.41984,0.274229 0.67247,0.14883 1.17271,0.286632 1.48139,0.435469 0.31143,0.144695 0.54571,0.30317 0.70005,0.487821 0.15985,0.181899 0.30317,0.407881 0.43272,0.684883 0.11988,0.278362 0.25907,0.622864 0.39825,1.040412 0.14469,0.41342 0.28663,0.941211 0.43822,1.573706 0.17914,0.746901 0.30592,1.351845 0.37345,1.834162 0.0744,0.478191 0.0896,0.870938 0.0592,1.167201 -0.0345,0.290766 -0.11437,0.50987 -0.25631,0.644913 -0.14194,0.136426 -0.32108,0.234266 -0.54571,0.286632 -0.24667,0.05926 -0.66972,0.0028 -1.25952,-0.157096 -0.59257,-0.166743 -1.32155,-0.323839 -2.18282,-0.46302 -0.86127,-0.139182 -1.84658,-0.237025 -2.95038,-0.281122 -1.098304,-0.04685 -2.309601,0.09233 -3.629731,0.407882 -0.93846,0.225996 -1.728047,0.515373 -2.367456,0.873689 -0.647665,0.358281 -1.142401,0.76895 -1.493803,1.231971 -0.361033,0.465772 -0.589809,0.960508 -0.691762,1.496554 -0.111622,0.530542 -0.09922,1.080382 0.03447,1.623342 0.203948,0.85852 0.635282,1.513099 1.302244,1.959575 0.660082,0.457517 1.466215,0.799253 2.429474,1.03766 0.956346,0.243914 2.024345,0.423051 3.203928,0.552591 1.179626,0.119888 2.382626,0.283877 3.602216,0.472652 1.22509,0.188793 2.45703,0.45339 3.689,0.799253 1.22509,0.345895 2.37987,0.858525 3.43821,1.537905 1.06796,0.67663 2.00642,1.57095 2.81809,2.67063 0.81442,1.09831 1.41937,2.4915 1.82178,4.16701 0.49608,2.09049 0.54846,4.03225 0.14745,5.81272 z"
         id="path2492"
         style="stroke-width:0.352778" />
      <path
         d="m 159.51726,88.877822 c 1.30912,5.489928 -2.08083,11.002433 -7.57097,12.311238 -5.48992,1.30912 -11.00243,-2.080823 -12.31124,-7.570963 -1.30912,-5.491339 2.08083,-11.003492 7.57097,-12.31265 5.48993,-1.307747 11.00243,2.080824 12.31124,7.572375"
         id="path2494"
         style="stroke-width:0.352778" />
      <path
         d="m 39.530478,122.08127 c 3.046836,-0.37345 6.272742,-0.57052 9.591323,-0.57052 2.203485,0 4.368447,0.0896 6.467122,0.25632 1.774896,-2.34957 2.528711,-5.44477 1.790065,-8.53546 -1.309123,-5.49134 -6.821311,-8.88012 -12.31265,-7.57237 -5.491339,1.30912 -8.880122,6.82131 -7.572375,12.31265 0.369323,1.55994 1.081758,2.94901 2.036727,4.10915 z"
         id="path2496"
         style="stroke-width:0.352778" />
    </g>
  </g>
</svg>
