<?xml version="1.0" encoding="UTF-8" standalone="no"?>
<!-- Created with Inkscape (http://www.inkscape.org/) -->

<svg
   width="246.94441mm"
   height="138.97675mm"
   viewBox="0 0 246.94441 138.97675"
   version="1.1"
   id="svg5"
   inkscape:version="1.1.2 (0a00cf5339, 2022-02-04)"
   sodipodi:docname="gamblers.svg"
   xmlns:inkscape="http://www.inkscape.org/namespaces/inkscape"
   xmlns:sodipodi="http://sodipodi.sourceforge.net/DTD/sodipodi-0.dtd"
   xmlns="http://www.w3.org/2000/svg"
   xmlns:svg="http://www.w3.org/2000/svg">
  <sodipodi:namedview
     id="namedview7"
     pagecolor="#ffffff"
     bordercolor="#999999"
     borderopacity="1"
     inkscape:pageshadow="0"
     inkscape:pageopacity="0"
     inkscape:pagecheckerboard="0"
     inkscape:document-units="mm"
     showgrid="false"
     fit-margin-top="0"
     fit-margin-left="0"
     fit-margin-right="0"
     fit-margin-bottom="0"
     inkscape:zoom="0.64052329"
     inkscape:cx="466.80582"
     inkscape:cy="285.7039"
     inkscape:window-width="1920"
     inkscape:window-height="1011"
     inkscape:window-x="0"
     inkscape:window-y="1112"
     inkscape:window-maximized="0"
     inkscape:current-layer="layer1" />
  <defs
     id="defs2">
    <symbol
       id="u"
       overflow="visible">
      <path
         d="M 5.5,-0.32812 C 5.21875,-0.17968 4.92188,-0.07031 4.60938,0 4.30469,0.070312 3.98829,0.10938 3.65626,0.10938 c -1,0 -1.793,-0.27344 -2.375,-0.82812 -0.58594,-0.5625 -0.875,-1.3164 -0.875,-2.2656 0,-0.95703 0.28906,-1.7109 0.875,-2.2656 0.58203,-0.5625 1.375,-0.84375 2.375,-0.84375 0.33203,0 0.64844,0.039062 0.95312,0.10938 0.3125,0.074219 0.60938,0.18359 0.89062,0.32812 v 1.2344 C 5.21875,-4.60929 4.9375,-4.74991 4.65625,-4.84367 4.375,-4.93743 4.08203,-4.98429 3.78125,-4.98429 c -0.55469,0 -0.99219,0.17969 -1.3125,0.53125 C 2.15625,-4.09757 2,-3.60929 2,-2.98424 c 0,0.61719 0.15625,1.1016 0.46875,1.4531 0.32031,0.35547 0.75781,0.53125 1.3125,0.53125 0.30078,0 0.59375,-0.046875 0.875,-0.14062 C 4.9375,-1.234255 5.21875,-1.37489 5.5,-1.56239 Z"
         id="path264" />
    </symbol>
    <symbol
       id="e"
       overflow="visible">
      <path
         d="m 4.0312,-3.2656 c -0.125,-0.0625 -0.25,-0.10156 -0.375,-0.125 -0.125,-0.03125 -0.25,-0.046875 -0.375,-0.046875 -0.375,0 -0.66406,0.12109 -0.85938,0.35938 -0.19922,0.23047 -0.29688,0.5625 -0.29688,1 V 5e-6 h -1.4375 v -4.5 h 1.4375 v 0.75 c 0.1875,-0.30078 0.39844,-0.51953 0.64062,-0.65625 0.23828,-0.13281 0.52344,-0.20312 0.85938,-0.20312 0.050781,0 0.10156,0.00781 0.15625,0.015625 0.050781,0 0.13281,0.00781 0.25,0.015625 z"
         id="path267" />
    </symbol>
    <symbol
       id="b"
       overflow="visible">
      <path
         d="m 5.1719,-2.2656 v 0.42188 H 1.8125 c 0.039062,0.33594 0.16406,0.58594 0.375,0.75 0.20703,0.16797 0.5,0.25 0.875,0.25 0.30078,0 0.60938,-0.039062 0.92188,-0.125 0.32031,-0.09375 0.64844,-0.22656 0.98438,-0.40625 v 1.1094 c -0.34375,0.125 -0.6875,0.21875 -1.0312,0.28125 -0.33594,0.0625 -0.67188,0.09375 -1.0156,0.09375 -0.8125,0 -1.4453,-0.20312 -1.8906,-0.60938 -0.44922,-0.41406 -0.67188,-1 -0.67188,-1.75 0,-0.72656 0.21875,-1.3008 0.65625,-1.7188 0.44531,-0.42578 1.0547,-0.64062 1.8281,-0.64062 0.70703,0 1.2695,0.21484 1.6875,0.64062 0.42578,0.42969 0.64062,0.99609 0.64062,1.7031 z M 3.7031,-2.73435 c 0,-0.26953 -0.085937,-0.48828 -0.25,-0.65625 -0.15625,-0.16406 -0.35938,-0.25 -0.60938,-0.25 -0.28125,0 -0.51172,0.078125 -0.6875,0.23438 -0.17969,0.15625 -0.28906,0.38281 -0.32812,0.67188 z"
         id="path270" />
    </symbol>
    <symbol
       id="d"
       overflow="visible">
      <path
         d="m 2.7031,-2.0156 c -0.30469,0 -0.53125,0.054687 -0.6875,0.15625 -0.14844,0.09375 -0.21875,0.24219 -0.21875,0.4375 0,0.1875 0.0625,0.33594 0.1875,0.4375 0.125,0.09375 0.28906,0.14062 0.5,0.14062 0.26953,0 0.5,-0.09375 0.6875,-0.28125 0.1875,-0.19531 0.28125,-0.44141 0.28125,-0.73438 V -2.01561 Z M 4.9062,-2.56248 V 2e-5 H 3.4531 V -0.67186 C 3.25388,-0.39061 3.03513,-0.18748 2.79685,-0.06248 2.55466,0.0508 2.2656,0.1094 1.92185,0.1094 1.4531,0.1094 1.07029,-0.02341 0.78125,-0.29685 0.5,-0.56638 0.35937,-0.91404 0.35937,-1.34375 c 0,-0.53125 0.17578,-0.91406 0.53125,-1.1562 0.36328,-0.25 0.9375,-0.375 1.7188,-0.375 h 0.84375 v -0.10938 c 0,-0.22656 -0.09375,-0.39453 -0.28125,-0.5 C 2.99223,-3.58589 2.7188,-3.64058 2.3438,-3.64058 c -0.3125,0 -0.60156,0.03125 -0.85938,0.09375 -0.26172,0.054687 -0.50781,0.14062 -0.73438,0.26562 v -1.0938 c 0.30078,-0.070312 0.60938,-0.12891 0.92188,-0.17188 0.3125,-0.039063 0.625,-0.0625 0.9375,-0.0625 0.8125,0 1.3945,0.16406 1.75,0.48438 0.36328,0.32422 0.54688,0.84375 0.54688,1.5625 z"
         id="path273" />
    </symbol>
    <symbol
       id="c"
       overflow="visible">
      <path
         d="M 2.2656,-5.7656 V -4.5 h 1.4688 v 1.0312 H 2.2656 v 1.9062 c 0,0.21094 0.039063,0.35156 0.125,0.42188 0.082031,0.074219 0.24219,0.10938 0.48438,0.10938 h 0.73438 v 1.0312 h -1.2188 c -0.57422,0 -0.98047,-0.11328 -1.2188,-0.34375 -0.23047,-0.23828 -0.34375,-0.64453 -0.34375,-1.2188 v -1.9062 H 0.10926 v -1.0312 h 0.71875 v -1.2656 z"
         id="path276" />
    </symbol>
    <symbol
       id="k"
       overflow="visible">
      <path
         d="M 3.75,-3.8438 V -6.25 H 5.1875 V 0 H 3.75 V -0.65625 C 3.55078,-0.38281 3.33203,-0.1875 3.09375,-0.0625 2.85156,0.05078 2.57813,0.10938 2.26563,0.10938 c -0.55469,0 -1.0078,-0.21875 -1.3594,-0.65625 -0.35547,-0.4375 -0.53125,-1.0039 -0.53125,-1.7031 0,-0.6875 0.17578,-1.25 0.53125,-1.6875 0.35156,-0.44531 0.80469,-0.67188 1.3594,-0.67188 0.3125,0 0.58594,0.0625 0.82812,0.1875 0.23828,0.125 0.45703,0.32031 0.65625,0.57812 z m -0.95312,2.9219 c 0.3125,0 0.54688,-0.10938 0.70312,-0.32812 0.16406,-0.22656 0.25,-0.5625 0.25,-1 0,-0.42578 -0.085938,-0.75 -0.25,-0.96875 -0.15625,-0.22656 -0.39062,-0.34375 -0.70312,-0.34375 -0.30469,0 -0.53906,0.11719 -0.70312,0.34375 -0.15625,0.21875 -0.23438,0.54297 -0.23438,0.96875 0,0.4375 0.078125,0.77344 0.23438,1 0.16406,0.21875 0.39844,0.32812 0.70312,0.32812 z"
         id="path279" />
    </symbol>
    <symbol
       id="j"
       overflow="visible">
      <path
         d="m 3.0781,-0.92188 c 0.3125,0 0.54688,-0.10938 0.70312,-0.32812 0.16406,-0.22656 0.25,-0.5625 0.25,-1 0,-0.42578 -0.085938,-0.75 -0.25,-0.96875 C 3.62497,-3.44531 3.3906,-3.5625 3.0781,-3.5625 c -0.30469,0 -0.53906,0.11719 -0.70312,0.34375 -0.16797,0.23047 -0.25,0.55469 -0.25,0.96875 0,0.42969 0.082031,0.75781 0.25,0.98438 0.16406,0.23047 0.39844,0.34375 0.70312,0.34375 z m -0.95312,-2.9219 c 0.19531,-0.25781 0.41406,-0.45312 0.65625,-0.57812 0.23828,-0.125 0.51562,-0.1875 0.82812,-0.1875 0.5625,0 1.0195,0.22656 1.375,0.67188 0.35156,0.4375 0.53125,1 0.53125,1.6875 0,0.69922 -0.17969,1.2656 -0.53125,1.7031 -0.35547,0.4375 -0.8125,0.65625 -1.375,0.65625 -0.3125,0 -0.58984,-0.058594 -0.82812,-0.17188 C 2.53904,-0.18755 2.32029,-0.38286 2.12498,-0.6563 V -5e-5 h -1.4375 v -6.25 h 1.4375 z"
         id="path282" />
    </symbol>
    <symbol
       id="g"
       overflow="visible">
      <path
         d="m 0.09375,-4.5 h 1.4375 l 1.2188,3.0625 1.0156,-3.0625 h 1.4375 l -1.8906,4.9219 c -0.1875,0.5 -0.40625,0.84766 -0.65625,1.0469 -0.25,0.20703 -0.58594,0.3125 -1,0.3125 H 0.82818 V 0.82818 h 0.4375 c 0.25,0 0.42578,-0.042969 0.53125,-0.125 C 1.91021,0.628961 2.00005,0.49224 2.06255,0.29693 l 0.046875,-0.125 z"
         id="path285" />
    </symbol>
    <symbol
       id="i"
       overflow="visible">
      <path
         d="M 6.1406,-0.45312 C 5.75388,-0.26562 5.35154,-0.125 4.9375,-0.03124 4.51953,0.06251 4.09375,0.10938 3.6563,0.10938 c -1,0 -1.793,-0.27344 -2.375,-0.82812 -0.58594,-0.5625 -0.875,-1.3164 -0.875,-2.2656 0,-0.96875 0.29688,-1.7266 0.89062,-2.2812 0.59375,-0.55078 1.4062,-0.82812 2.4375,-0.82812 0.40625,0 0.78906,0.039062 1.1562,0.10938 0.36328,0.074219 0.70703,0.18359 1.0312,0.32812 v 1.2344 c -0.33594,-0.1875 -0.66797,-0.32812 -1,-0.42188 -0.33594,-0.09375 -0.66797,-0.14062 -1,-0.14062 -0.61719,0 -1.0898,0.17188 -1.4219,0.51562 -0.33594,0.34375 -0.5,0.83984 -0.5,1.4844 0,0.63672 0.16016,1.125 0.48438,1.4688 0.32031,0.34375 0.78125,0.51562 1.375,0.51562 0.15625,0 0.30078,-0.007812 0.4375,-0.03125 0.14453,-0.019531 0.26953,-0.050781 0.375,-0.09375 v -1.1719 H 3.7343 v -1.0312 h 2.4062 z"
         id="path288" />
    </symbol>
    <symbol
       id="f"
       overflow="visible">
      <path
         d="M 5.2031,-2.7344 V 0 H 3.7656 v -2.0938 c 0,-0.38281 -0.011719,-0.64844 -0.03125,-0.79688 C 3.722631,-3.04693 3.691381,-3.1563 3.6406,-3.2188 3.585913,-3.31255 3.5156,-3.38286 3.42185,-3.43755 3.3281,-3.488331 3.21873,-3.515675 3.09373,-3.515675 c -0.30469,0 -0.54297,0.11719 -0.71875,0.34375 -0.16797,0.23047 -0.25,0.54688 -0.25,0.95312 V -5e-6 h -1.4375 v -4.5 h 1.4375 v 0.65625 c 0.21875,-0.25781 0.44531,-0.45312 0.6875,-0.57812 0.25,-0.125 0.51953,-0.1875 0.8125,-0.1875 0.51953,0 0.91016,0.16406 1.1719,0.48438 0.26953,0.32422 0.40625,0.78906 0.40625,1.3906 z"
         id="path291" />
    </symbol>
    <symbol
       id="t"
       overflow="visible">
      <path
         d="m 0.75,-5.9844 h 1.5469 v 2.1875 L 4.5313,-5.9844 H 6.3282 L 3.4376,-3.1563 6.6251,-10e-5 H 4.6876 L 2.297,-2.3595 V -10e-5 H 0.7501 Z"
         id="path294" />
    </symbol>
    <symbol
       id="h"
       overflow="visible">
      <path
         d="M 5.2031,-2.7344 V 0 H 3.7656 v -2.0938 c 0,-0.38281 -0.011719,-0.64844 -0.03125,-0.79688 C 3.722631,-3.04693 3.691381,-3.1563 3.6406,-3.2188 3.585913,-3.31255 3.5156,-3.38286 3.42185,-3.43755 3.3281,-3.488331 3.21873,-3.515675 3.09373,-3.515675 c -0.30469,0 -0.54297,0.11719 -0.71875,0.34375 -0.16797,0.23047 -0.25,0.54688 -0.25,0.95312 V -5e-6 h -1.4375 v -6.25 h 1.4375 v 2.4062 c 0.21875,-0.25781 0.44531,-0.45312 0.6875,-0.57812 0.25,-0.125 0.51953,-0.1875 0.8125,-0.1875 0.51953,0 0.91016,0.16406 1.1719,0.48438 0.26953,0.32422 0.40625,0.78906 0.40625,1.3906 z"
         id="path297" />
    </symbol>
    <symbol
       id="a"
       overflow="visible">
      <path
         d="m 2.8281,-3.5781 c -0.3125,0 -0.55859,0.11719 -0.73438,0.34375 -0.16797,0.23047 -0.25,0.55859 -0.25,0.98438 0,0.4375 0.082031,0.77344 0.25,1 0.17578,0.23047 0.42188,0.34375 0.73438,0.34375 0.3125,0 0.55078,-0.11328 0.71875,-0.34375 0.16406,-0.22656 0.25,-0.5625 0.25,-1 0,-0.42578 -0.085937,-0.75391 -0.25,-0.98438 C 3.37888,-3.46091 3.1406,-3.5781 2.8281,-3.5781 Z m 0,-1.0312 c 0.76953,0 1.375,0.21484 1.8125,0.64062 0.4375,0.41797 0.65625,0.99219 0.65625,1.7188 0,0.74219 -0.21875,1.3203 -0.65625,1.7344 -0.4375,0.41797 -1.043,0.625 -1.8125,0.625 -0.77344,0 -1.375,-0.20703 -1.8125,-0.625 -0.4375,-0.41406 -0.65625,-0.99219 -0.65625,-1.7344 0,-0.72656 0.21875,-1.3008 0.65625,-1.7188 0.4375,-0.42578 1.0391,-0.64062 1.8125,-0.64062 z"
         id="path300" />
    </symbol>
    <symbol
       id="s"
       overflow="visible">
      <path
         d="m 0.75,-5.9844 h 1.5469 v 4.8125 H 5.0157 V 0 H 0.7501 Z"
         id="path303" />
    </symbol>
    <symbol
       id="r"
       overflow="visible">
      <path
         d="m 3.6406,-6.25 v 0.95312 H 2.85935 c -0.21094,0 -0.35547,0.039063 -0.4375,0.10938 -0.074219,0.074219 -0.10938,0.19922 -0.10938,0.375 V -4.5 h 1.2188 v 1.0312 H 2.31247 V 0 H 0.87497 V -3.4688 H 0.15622 V -4.5 h 0.71875 v -0.3125 c 0,-0.48828 0.13281,-0.84766 0.40625,-1.0781 0.26953,-0.23828 0.69141,-0.35938 1.2656,-0.35938 z"
         id="path306" />
    </symbol>
    <symbol
       id="q"
       overflow="visible">
      <path
         d="m 4.8594,-3.75 c 0.17578,-0.28125 0.39062,-0.49219 0.64062,-0.64062 0.25,-0.14453 0.52344,-0.21875 0.82812,-0.21875 0.51953,0 0.91016,0.16406 1.1719,0.48438 0.26953,0.32422 0.40625,0.78906 0.40625,1.3906 V 10e-6 h -1.4375 v -2.3438 -0.10938 c 0.00781,-0.039063 0.015625,-0.09375 0.015625,-0.15625 0,-0.32031 -0.046875,-0.55078 -0.14062,-0.6875 -0.09375,-0.14453 -0.24609,-0.21875 -0.45312,-0.21875 -0.28125,0 -0.49609,0.11719 -0.64062,0.34375 -0.14844,0.21875 -0.22656,0.54297 -0.23438,0.96875 V -7e-5 h -1.4375 v -2.3438 c 0,-0.5 -0.046875,-0.81641 -0.14062,-0.95312 -0.085938,-0.14453 -0.23438,-0.21875 -0.45312,-0.21875 -0.27344,0 -0.48438,0.11719 -0.64062,0.34375 -0.14844,0.21875 -0.21875,0.53906 -0.21875,0.95312 V -7e-5 h -1.4375 v -4.5 h 1.4375 v 0.65625 c 0.17578,-0.25 0.37891,-0.4375 0.60938,-0.5625 0.22656,-0.13281 0.47656,-0.20312 0.75,-0.20312 0.3125,0 0.58594,0.078125 0.82812,0.23438 0.23828,0.14844 0.42188,0.35547 0.54688,0.625 z"
         id="path309" />
    </symbol>
    <symbol
       id="p"
       overflow="visible">
      <path
         d="M 0.75,-5.9844 H 2.4844 L 4.6563,-1.875 V -5.9844 H 6.1251 V 0 H 4.3907 L 2.2188,-4.1094 V 0 H 0.75 Z"
         id="path312" />
    </symbol>
    <symbol
       id="o"
       overflow="visible">
      <path
         d="M 0.64062,-1.75 V -4.5 h 1.4531 v 0.45312 c 0,0.24219 -0.00781,0.54688 -0.015625,0.92188 v 0.73438 c 0,0.36719 0.00781,0.625 0.03125,0.78125 0.019531,0.15625 0.050781,0.27344 0.09375,0.34375 0.0625,0.09375 0.14062,0.16797 0.23438,0.21875 0.09375,0.054687 0.20312,0.078125 0.32812,0.078125 0.28906,0 0.51953,-0.11328 0.6875,-0.34375 0.17578,-0.22656 0.26562,-0.55078 0.26562,-0.96875 v -2.2188 h 1.4375 v 4.5 h -1.4375 v -0.65625 c -0.21094,0.27344 -0.4375,0.46875 -0.6875,0.59375 -0.24219,0.11328 -0.50781,0.17188 -0.79688,0.17188 -0.52344,0 -0.91797,-0.15625 -1.1875,-0.46875 -0.27344,-0.32031 -0.40625,-0.78516 -0.40625,-1.3906 z"
         id="path315" />
    </symbol>
    <symbol
       id="n"
       overflow="visible">
      <path
         d="m 0.75,-5.9844 h 2.5625 c 0.76953,0 1.3594,0.17188 1.7656,0.51562 0.40625,0.33594 0.60938,0.8125 0.60938,1.4375 0,0.625 -0.20312,1.1094 -0.60938,1.4531 -0.40625,0.33594 -0.99609,0.5 -1.7656,0.5 H 2.2969 V -8e-5 H 0.75 Z m 1.5469,1.1094 v 1.6719 h 0.85938 c 0.30078,0 0.53125,-0.070313 0.6875,-0.21875 0.16406,-0.14453 0.25,-0.34766 0.25,-0.60938 0,-0.26953 -0.085938,-0.47656 -0.25,-0.625 -0.15625,-0.14453 -0.38672,-0.21875 -0.6875,-0.21875 z"
         id="path318" />
    </symbol>
    <symbol
       id="m"
       overflow="visible">
      <path
         d="M 0.6875,-4.5 H 2.125 v 4.4219 c 0,0.60156 -0.14844,1.0625 -0.4375,1.375 -0.28125,0.32031 -0.69922,0.48438 -1.25,0.48438 H -0.26562 V 0.82816 h 0.23438 c 0.28125,0 0.46875,-0.0625 0.5625,-0.1875 0.10156,-0.11719 0.15625,-0.35547 0.15625,-0.71875 z m 0,-1.75 H 2.125 v 1.1719 H 0.6875 Z"
         id="path321" />
    </symbol>
    <symbol
       id="l"
       overflow="visible">
      <path
         d="m 4.3281,-4.3594 v 1.1719 C 4.12888,-3.32031 3.92966,-3.42188 3.73435,-3.48438 3.53513,-3.54688 3.33201,-3.57813 3.12497,-3.57813 c -0.40625,0 -0.72656,0.12109 -0.95312,0.35938 -0.21875,0.23047 -0.32812,0.55469 -0.32812,0.96875 0,0.42969 0.10938,0.76172 0.32812,1 0.22656,0.23047 0.54688,0.34375 0.95312,0.34375 0.21875,0 0.42578,-0.03125 0.625,-0.09375 0.20703,-0.070312 0.39844,-0.17578 0.57812,-0.3125 v 1.1875 c -0.23047,0.074219 -0.46094,0.12891 -0.6875,0.17188 -0.23047,0.039062 -0.46484,0.0625 -0.70312,0.0625 -0.8125,0 -1.4492,-0.20312 -1.9062,-0.60938 -0.44922,-0.41406 -0.67188,-1 -0.67188,-1.75 0,-0.73828 0.22266,-1.3164 0.67188,-1.7344 0.45703,-0.41406 1.0938,-0.625 1.9062,-0.625 0.23828,0 0.47266,0.023437 0.70312,0.0625 0.22656,0.042969 0.45703,0.10547 0.6875,0.1875 z"
         id="path324" />
    </symbol>
  </defs>
  <g
     inkscape:label="Layer 1"
     inkscape:groupmode="layer"
     id="layer1"
     transform="translate(18.551482,-72.695968)">
    <g
       id="g740">
      <path
         d="m 191.36199,154.29947 v -9.93423 h -43.09534 l -0.60635,9.93423 z"
         id="path329"
         style="stroke-width:0.352778" />
      <path
         d="m 94.210514,144.36524 v -29.70212 c 1.098303,0.84197 2.297183,1.8452 3.540125,3.03858 3.068881,2.94901 6.380341,6.98394 9.070271,12.38038 l 7.47712,-5.72452 c -3.23426,-5.99017 -7.11341,-10.55017 -10.67576,-13.8617 -5.776734,-5.37704 -10.712801,-7.57661 -11.05182,-7.72936 -0.661459,-0.28939 -1.353221,-0.40788 -2.028473,-0.38308 -0.263204,-0.0482 -0.533294,-0.0772 -0.808919,-0.0772 h -3.843514 c -0.701428,4.51308 -3.402365,20.3454 -7.351889,24.29475 -3.947936,-3.94794 -6.650567,-19.78167 -7.351889,-24.29475 h -3.843514 c -0.276987,0 -0.547087,0.0289 -0.808919,0.0772 -0.675252,-0.0248 -1.367014,0.0937 -2.027097,0.38308 h -0.0014 c -0.338998,0.15296 -5.273675,2.35095 -11.050411,7.72936 -5.042253,4.68806 -10.72515,11.87027 -14.30408,22.08318 3.033077,0.0923 5.480402,2.49425 5.607402,5.5492 0.06477,1.54615 -0.47819,3.02479 -1.526857,4.16313 -0.237021,0.25631 -0.4947,0.48644 -0.767574,0.69314 1.959575,-0.10198 3.717925,-1.43867 4.244269,-3.43821 2.844271,-10.77207 8.309681,-17.82092 13.067948,-22.26628 1.083133,-1.0101 2.124921,-1.87413 3.090933,-2.61415 v 29.69966 l -44.788667,-0.001 v 9.93564 h 99.331641 l -0.60773,-9.93564 H 94.211572 Z M 83.202789,131.30541 h 8.112477 v 1.73909 h -8.112477 z m 0,2.898 h 8.112477 v 1.73909 h -8.112477 z m 0,2.89662 h 8.112477 v 1.73909 h -8.112477 z m 0,2.898 h 8.112477 v 1.73909 h -8.112477 z m -9.272764,-2.898 h 8.112477 v 1.73909 h -8.112477 z m 0,2.898 h 8.112477 v 1.73909 h -8.112477 z"
         id="path331"
         style="stroke-width:0.352778" />
      <path
         d="m 91.578791,85.733577 c 0,7.201605 -5.837414,13.039019 -13.039019,13.039019 -7.201606,0 -13.03902,-5.837414 -13.03902,-13.039019 0,-7.200195 5.837414,-13.037609 13.03902,-13.037609 7.201605,0 13.039019,5.837414 13.039019,13.037609"
         id="path333"
         style="stroke-width:0.352778" />
      <path
         d="m 77.958041,104.56838 -4.055533,-2.31923 v 5.21582 l 4.055533,-2.31786 z"
         id="path335"
         style="stroke-width:0.352778" />
      <path
         d="m 79.11868,104.56838 v 0.57877 l 4.056945,2.31786 v -5.21582 z"
         id="path337"
         style="stroke-width:0.352778" />
      <path
         d="m 79.697236,109.49316 c 0,1.54478 -2.317856,1.54478 -2.317856,0 0,-1.54478 2.317856,-1.54478 2.317856,0"
         id="path339"
         style="stroke-width:0.352778" />
      <path
         d="m 79.697236,113.5501 c 0,1.54478 -2.317856,1.54478 -2.317856,0 0,-1.54615 2.317856,-1.54615 2.317856,0"
         id="path341"
         style="stroke-width:0.352778" />
      <path
         d="m 79.697236,118.1856 c 0,1.54478 -2.317856,1.54478 -2.317856,0 0,-1.54477 2.317856,-1.54477 2.317856,0"
         id="path343"
         style="stroke-width:0.352778" />
      <path
         d="m 16.966291,91.353327 c 7.011458,1.632973 11.371439,8.640233 9.738431,15.650283 -1.631598,7.01146 -8.640234,11.37144 -15.651692,9.73843 C 4.0415714,115.10903 -0.31840922,108.1018 1.3145991,101.09035 2.9475722,94.080299 9.9548325,89.720318 16.966291,91.352974"
         id="path345"
         style="stroke-width:0.352778" />
      <path
         d="m 0.9879269,132.63891 c -0.71105889,-1.35184 -0.85301667,-2.92005 -0.3927475,-4.39737 0.4602692,-1.47726 1.469002,-2.68718 2.8401433,-3.40791 0.8282164,-0.43547 1.7570098,-0.66558 2.6913065,-0.66558 2.021593,0 3.9108948,1.06521 4.9554698,2.78913 0.04548,0.0551 0.119888,0.14193 0.232889,0.25494 0.429966,0.43271 1.251268,1.10793 2.694058,1.85896 0.286632,0.14883 0.606355,0.30179 0.943963,0.45476 -0.234265,-4.30635 -2.367456,-8.24335 -5.9862859,-9.1447 -4.9470028,-1.23335 -12.1186223,1.45383 -15.0357417,9.93845 -3.9440554,11.69141 -4.7914274,19.30083 -3.2921223,32.1744 1.5585722,8.02146 6.5031056,9.85308 11.2338556,10.16705 0.4078817,0.0717 0.8240537,0.11575 1.2526434,0.11575 v -0.001 H 21.796475 l -6.223353,22.2938 c -1.076254,3.85303 1.17408,7.8493 5.028495,8.92563 0.651827,0.1819 1.307747,0.26871 1.952695,0.26871 3.169497,0 6.078361,-2.09599 6.973006,-5.29872 l 8.789105,-31.48541 c 0.611858,-2.19245 0.16812,-4.51591 -1.20717,-6.32813 -1.375269,-1.81212 -3.496098,-2.86357 -5.769681,-2.86357 l -20.33023,-10e-4 c 0.01378,-5.76721 0.994939,-11.74644 2.027096,-17.0628 -1.561324,-0.54984 -3.022035,-1.16858 -4.367036,-1.86588 -5.6567917,-2.91867 -7.4922945,-6.34048 -7.6810306,-6.71936 z"
         id="path347"
         style="stroke-width:0.352778" />
      <path
         d="m 43.597486,138.17399 c -0.106109,-2.55901 -2.265504,-4.54765 -4.823178,-4.44147 -1.530985,0.0634 -2.982066,0.0923 -4.357511,0.0923 -11.371439,0 -17.677342,-2.03122 -20.94477,-3.73027 -1.638476,-0.85164 -2.53559,-1.62197 -2.986193,-2.07257 -0.208083,-0.21084 -0.321085,-0.35415 -0.361033,-0.40788 -1.2443532,-2.12492 -3.9521696,-2.9173 -6.1542085,-1.75976 -2.2655037,1.18924 -3.13915782,3.99344 -1.9485328,6.26039 0.377578,0.75516 2.2572133,3.67242 7.1797334,6.20959 4.9208969,2.55214 12.7606779,4.77203 25.2154969,4.77203 1.510313,0 3.089558,-0.0331 4.739217,-0.10197 2.559015,-0.10474 4.547659,-2.26413 4.441472,-4.82036 z"
         id="path349"
         style="stroke-width:0.352778" />
      <path
         d="m 145.7831,102.6916 c 1.70462,7.32155 -2.8484,14.63887 -10.16988,16.34349 -7.32148,1.70463 -14.64028,-2.84839 -16.3449,-10.16846 -1.70462,-7.32155 2.8484,-14.63887 10.16988,-16.344903 7.32155,-1.704622 14.64028,2.848398 16.3449,10.169873"
         id="path351"
         style="stroke-width:0.352778" />
      <path
         d="m 163.21032,141.18319 c 1.5572,-2.0326 1.17133,-4.94312 -0.86127,-6.50029 l -15.26046,-11.68717 c -0.56914,-0.43547 -1.20717,-0.71381 -1.86588,-0.85164 -0.46715,-0.16537 -0.96876,-0.26045 -1.49243,-0.26045 h -22.38904 c -0.52504,0 -1.02524,0.0951 -1.4938,0.26045 -0.65733,0.1378 -1.29674,0.41617 -1.86588,0.85164 l -15.26187,11.68717 c -2.0326,1.5572 -2.41847,4.46617 -0.86127,6.50029 0.17363,0.22737 0.36932,0.42718 0.57326,0.61186 h -0.003 c 0.0579,0.0524 0.11438,0.10748 0.17501,0.15709 0.04,0.0331 0.0841,0.062 0.1254,0.0923 0.0896,0.0689 0.1819,0.13643 0.27699,0.19982 0.0537,0.0345 0.10749,0.0661 0.16123,0.0978 0.0896,0.0537 0.1819,0.10611 0.27699,0.15296 0.0524,0.0262 0.1061,0.0524 0.15985,0.0772 0.10197,0.0469 0.2067,0.0896 0.31419,0.13091 0.0468,0.0179 0.0937,0.0358 0.14193,0.051 0.11989,0.04 0.24116,0.0744 0.3652,0.10611 0.0372,0.01 0.0744,0.0207 0.11162,0.0289 0.14056,0.0317 0.28388,0.0551 0.42856,0.073 0.022,0.003 0.0441,0.008 0.0661,0.011 0.16675,0.0179 0.33624,0.0289 0.5085,0.0289 h 9.30592 0.007 0.01 1.85621 l -0.42996,-7.02945 1.10931,-0.84885 1.48688,24.31979 h -1.88101 c -2.01746,0 -3.93171,0.8351 -5.30542,2.31098 -1.3739,1.47726 -2.06569,3.44784 -1.91961,5.45853 l 2.29581,31.48542 c 0.18603,2.56314 1.68811,4.71417 3.79659,5.84976 l 1.54341,-29.8771 0.0579,-1.09968 h 30.12405 l 0.0565,1.09968 1.54478,29.87851 c 2.10704,-1.13552 3.60892,-3.28662 3.79801,-5.84976 l 2.29443,-31.48542 c 0.14607,-2.01192 -0.54571,-3.98109 -1.91961,-5.45853 -1.37389,-1.47726 -3.28799,-2.31097 -5.30542,-2.31097 h -1.88101 l 1.48688,-24.31839 1.10931,0.85027 -0.42996,7.02945 h 11.17882 c 0.17226,0 0.34175,-0.011 0.50987,-0.0289 0.0179,-0.001 0.0345,-0.006 0.0524,-0.008 0.1502,-0.0179 0.29903,-0.0427 0.44372,-0.0758 0.0345,-0.007 0.0661,-0.0179 0.0992,-0.0262 0.12816,-0.0317 0.25494,-0.0662 0.37758,-0.10887 0.0441,-0.0152 0.0882,-0.0317 0.13229,-0.0482 0.10886,-0.04 0.21773,-0.0854 0.32384,-0.13367 0.051,-0.0234 0.10197,-0.0482 0.15296,-0.073 0.0965,-0.0496 0.19017,-0.10197 0.2825,-0.15709 0.0524,-0.0317 0.10611,-0.062 0.15709,-0.0951 0.0965,-0.0634 0.18879,-0.13092 0.27974,-0.2012 0.04,-0.0317 0.0841,-0.0592 0.12403,-0.0923 0.0606,-0.0496 0.11575,-0.10335 0.17363,-0.15572 0,0 -0.001,0 -0.003,-0.001 0.20533,-0.19017 0.401,-0.38999 0.57464,-0.61736 z"
         id="path353"
         style="stroke-width:0.352778" />
      <path
         d="m 51.90893,139.99785 h 8.112478 v 1.73909 H 51.90893 Z"
         id="path355"
         style="stroke-width:0.352778" />
      <path
         d="m 51.90893,137.10155 h 8.112478 v 1.73909 H 51.90893 Z"
         id="path357"
         style="stroke-width:0.352778" />
      <path
         d="m 51.90893,134.20524 h 8.112478 v 1.73909 H 51.90893 Z"
         id="path359"
         style="stroke-width:0.352778" />
      <path
         d="m 124.54587,203.15213 c 0.051,-0.0537 0.10474,-0.10611 0.15435,-0.16123 h -0.14608 z"
         id="path361"
         style="stroke-width:0.352778" />
      <path
         d="m 124.83868,197.53591 h 1.67707 l -0.98256,-13.46905 z"
         id="path363"
         style="stroke-width:0.352778" />
      <path
         d="m 138.55115,197.53591 h 1.67707 l -0.69592,-13.47294 z"
         id="path365"
         style="stroke-width:0.352778" />
      <path
         d="m 140.36443,202.98986 c 0.0496,0.0551 0.10335,0.10886 0.15434,0.1626 l -0.008,-0.1626 z"
         id="path367"
         style="stroke-width:0.352778" />
      <path
         d="m 6.9064797,211.67172 h 6.2850893 l -1.908599,-36.94289 -27.924478,0.001 -1.909974,36.94289 h 6.285089 l 0.508494,-9.8418 H 6.3992205 Z m -18.5028417,-12.97976 0.913624,-17.68722 H 5.3231425 l 0.9136239,17.68722 z"
         id="path369"
         style="stroke-width:0.352778" />
      <path
         d="m 208.5211,101.08999 c 1.63297,7.01146 -2.72715,14.01869 -9.73984,15.6517 -7.01146,1.63297 -14.01869,-2.72715 -15.6517,-9.73844 -1.63297,-7.010043 2.72715,-14.017268 9.73985,-15.650276 7.01145,-1.632973 14.01868,2.727149 15.65169,9.737376"
         id="path371"
         style="stroke-width:0.352778" />
      <path
         d="m 198.69271,127.0368 c 0.0248,-0.0289 0.0469,-0.0551 0.0661,-0.0772 1.04454,-1.72392 2.9366,-2.7933 4.9583,-2.7933 0.93154,0 1.86171,0.23014 2.6913,0.66421 1.36977,0.71935 2.3785,1.92928 2.83877,3.40791 0.45889,1.47863 0.31695,3.04683 -0.40238,4.41678 -0.1819,0.3624 -2.02297,3.78671 -7.67433,6.69995 -1.34359,0.69593 -2.80292,1.31604 -4.3628,1.8645 1.03216,5.31495 2.0133,11.29595 2.0271,17.06281 h -20.33023 c -2.27514,0 -4.39314,1.05145 -5.76968,2.86356 -1.37527,1.81212 -1.819,4.13562 -1.20717,6.32813 l 8.79051,31.48542 c 0.89295,3.20117 3.8033,5.29872 6.9716,5.29872 0.64491,0 1.30087,-0.0868 1.95269,-0.26872 3.85304,-1.07488 6.10482,-5.07118 5.02991,-8.92422 l -6.22335,-22.29379 h 18.67252 c 0.42718,0 0.84611,-0.0441 1.25265,-0.11575 4.73075,-0.31419 9.67387,-2.14697 11.23244,-10.16706 1.49793,-12.87356 0.65045,-20.48298 -3.29212,-32.17439 -2.9173,-8.48466 -10.08874,-11.17177 -15.03574,-9.93846 -3.6188,0.90125 -5.75204,4.83835 -5.9877,9.14612 2.2407,-1.00736 3.32796,-1.96095 3.80189,-2.48461 z"
         id="path373"
         style="stroke-width:0.352778" />
      <path
         d="m 170.68215,142.99647 c 1.64952,0.0675 3.22736,0.10197 4.73922,0.10197 12.45482,0 20.29284,-2.22003 25.2155,-4.77203 4.92231,-2.53696 6.80049,-5.45429 7.17973,-6.20959 1.19063,-2.26688 0.31695,-5.06977 -1.94853,-6.26039 -2.20074,-1.15479 -4.90573,-0.36795 -6.15033,1.75288 -0.022,0.0303 -0.073,0.0951 -0.16674,0.20257 -0.47407,0.52642 -1.94716,1.96783 -5.60035,3.35276 -3.64913,1.37803 -9.49748,2.66238 -18.52895,2.66101 -1.37664,0 -2.82772,-0.0289 -4.35751,-0.0923 -2.55901,-0.10611 -4.7184,1.88239 -4.82459,4.44147 -0.10335,2.55626 1.88376,4.71558 4.44288,4.82177 z m 28.92496,-15.19132 h 0.001 z"
         id="path375"
         style="stroke-width:0.352778" />
      <path
         d="m 198.55865,174.72883 -1.9086,36.94289 h 6.28509 l 0.5085,-9.8418 h 18.15712 l 0.50849,9.8418 h 6.28368 l -1.90998,-36.94289 z m 5.04508,23.96278 0.91362,-17.68722 h 16.00588 l 0.91363,17.68722 z"
         id="path377"
         style="stroke-width:0.352778" />
      <path
         d="m 118.56982,174.72883 -1.9086,36.94289 h 6.28509 l 0.50849,-9.8418 h 18.15712 l 0.5085,9.8418 h 6.28509 l -1.90998,-36.94289 z m 5.04649,23.96278 0.91362,-17.68722 h 16.00588 l 0.91362,17.68722 z"
         id="path379"
         style="stroke-width:0.352778" />
    </g>
  </g>
</svg>
