<?xml version="1.0" encoding="UTF-8" standalone="no"?>
<!-- Created with Inkscape (http://www.inkscape.org/) -->

<svg
   width="191.36925mm"
   height="191.3831mm"
   viewBox="0 0 191.36925 191.3831"
   version="1.1"
   id="svg5"
   inkscape:version="1.1.2 (0a00cf5339, 2022-02-04)"
   sodipodi:docname="MSS_Logo.svg"
   inkscape:export-filename="/home/davir/Vanguard/2022-MegaSenaScrapper/src/img/MSS_Logo.png"
   inkscape:export-xdpi="96"
   inkscape:export-ydpi="96"
   xmlns:inkscape="http://www.inkscape.org/namespaces/inkscape"
   xmlns:sodipodi="http://sodipodi.sourceforge.net/DTD/sodipodi-0.dtd"
   xmlns="http://www.w3.org/2000/svg"
   xmlns:svg="http://www.w3.org/2000/svg">
  <sodipodi:namedview
     id="namedview7"
     pagecolor="#ffffff"
     bordercolor="#999999"
     borderopacity="1"
     inkscape:pageshadow="0"
     inkscape:pageopacity="0"
     inkscape:pagecheckerboard="0"
     inkscape:document-units="mm"
     showgrid="false"
     fit-margin-top="0"
     fit-margin-left="0"
     fit-margin-right="0"
     fit-margin-bottom="0"
     inkscape:zoom="0.64052329"
     inkscape:cx="388.74465"
     inkscape:cy="507.39763"
     inkscape:window-width="1920"
     inkscape:window-height="1011"
     inkscape:window-x="0"
     inkscape:window-y="1112"
     inkscape:window-maximized="0"
     inkscape:current-layer="layer1" />
  <defs
     id="defs2">
    <symbol
       id="m"
       overflow="visible">
      <path
         d="m 29.312,-1.75 c -1.5117,0.78125 -3.0898,1.3711 -4.7344,1.7656 -1.6367,0.40625 -3.3398,0.60938 -5.1094,0.60938 -5.3125,0 -9.5273,-1.4844 -12.641,-4.4531 -3.1055,-2.9688 -4.6562,-7 -4.6562,-12.094 0,-5.094 1.5508,-9.125 4.6562,-12.094 3.1133,-2.9688 7.3281,-4.4531 12.641,-4.4531 1.7695,0 3.4727,0.19922 5.1094,0.59375 1.6445,0.39844 3.2227,0.99219 4.7344,1.7812 v 6.5938 c -1.5312,-1.0391 -3.0391,-1.8008 -4.5156,-2.2812 -1.4805,-0.48828 -3.0391,-0.73438 -4.6719,-0.73438 -2.9375,0 -5.2461,0.94531 -6.9219,2.8281 -1.6797,1.875 -2.5156,4.4648 -2.5156,7.7656 0,3.293 0.83594,5.8828 2.5156,7.7656 1.6758,1.875 3.9844,2.8125 6.9219,2.8125 1.6328,0 3.1914,-0.23828 4.6719,-0.71875 1.4766,-0.48828 2.9844,-1.2539 4.5156,-2.2969 z"
         id="path769" />
    </symbol>
    <symbol
       id="e"
       overflow="visible">
      <path
         d="m 21.453,-17.406 c -0.67969,-0.3125 -1.3516,-0.53906 -2.0156,-0.6875 -0.65625,-0.15625 -1.3203,-0.23438 -1.9844,-0.23438 -1.9688,0 -3.4844,0.63281 -4.5469,1.8906 -1.0547,1.2617 -1.5781,3.0703 -1.5781,5.4219 V 6.2e-4 H 3.6718 v -23.922 h 7.6562 v 3.9219 c 0.97656,-1.5625 2.1016,-2.7031 3.375,-3.4219 1.2812,-0.71875 2.8125,-1.0781 4.5938,-1.0781 0.25,0 0.52344,0.01172 0.82812,0.03125 0.30078,0.02344 0.73438,0.07031 1.2969,0.14062 z"
         id="path772" />
    </symbol>
    <symbol
       id="d"
       overflow="visible">
      <path
         d="m 27.562,-12.031 v 2.1875 H 9.671 c 0.1875,1.793 0.83203,3.1367 1.9375,4.0312 1.1133,0.89844 2.6719,1.3438 4.6719,1.3438 1.6016,0 3.25,-0.23438 4.9375,-0.70312 1.6875,-0.47656 3.4219,-1.2031 5.2031,-2.1719 v 5.8906 c -1.8047,0.6875 -3.6094,1.2031 -5.4219,1.5469 -1.8125,0.35156 -3.6211,0.53125 -5.4219,0.53125 -4.3359,0 -7.7031,-1.0977 -10.109,-3.2969 -2.3984,-2.207 -3.5938,-5.2969 -3.5938,-9.2656 0,-3.9062 1.1758,-6.9727 3.5312,-9.2031 2.3633,-2.2383 5.6094,-3.3594 9.7344,-3.3594 3.7578,0 6.7695,1.1367 9.0312,3.4062 2.2578,2.2617 3.3906,5.2812 3.3906,9.0625 z m -7.8594,-2.5312 c 0,-1.457 -0.42969,-2.6289 -1.2812,-3.5156 -0.84375,-0.89453 -1.9492,-1.3438 -3.3125,-1.3438 -1.4922,0 -2.6992,0.41797 -3.625,1.25 -0.91797,0.83594 -1.4922,2.0391 -1.7188,3.6094 z"
         id="path775" />
    </symbol>
    <symbol
       id="b"
       overflow="visible">
      <path
         d="m 14.391,-10.766 c -1.5938,0 -2.793,0.27344 -3.5938,0.8125 -0.80469,0.54297 -1.2031,1.3398 -1.2031,2.3906 0,0.96875 0.32031,1.7305 0.96875,2.2812 0.64453,0.54297 1.5469,0.8125 2.7031,0.8125 1.4375,0 2.6445,-0.51562 3.625,-1.5469 0.98828,-1.0312 1.4844,-2.3203 1.4844,-3.875 v -0.875 z m 11.688,-2.8906 V -6e-4 h -7.7031 v -3.5469 c -1.0312,1.4492 -2.1875,2.5078 -3.4688,3.1719 -1.2813,0.6641 -2.8398,1 -4.6719,1 -2.4805,0 -4.4961,-0.72266 -6.0469,-2.1719 -1.543,-1.4453 -2.3125,-3.3203 -2.3125,-5.625 0,-2.8125 0.96094,-4.8672 2.8906,-6.1719 1.9375,-1.3125 4.9688,-1.9688 9.0938,-1.9688 h 4.5156 v -0.60938 c 0,-1.207 -0.48047,-2.0938 -1.4375,-2.6562 -0.94922,-0.5625 -2.4375,-0.84375 -4.4688,-0.84375 -1.6367,0 -3.1562,0.16797 -4.5625,0.5 -1.4062,0.32422 -2.7188,0.8125 -3.9375,1.4688 v -5.8281 c 1.6445,-0.40625 3.2891,-0.70703 4.9375,-0.90625 1.6562,-0.20703 3.3047,-0.3125 4.9531,-0.3125 4.3203,0 7.4375,0.85547 9.3438,2.5625 1.9141,1.6992 2.875,4.4609 2.875,8.2812 z"
         id="path778" />
    </symbol>
    <symbol
       id="c"
       overflow="visible">
      <path
         d="m 12.031,-30.719 v 6.7969 h 7.875 v 5.4688 h -7.875 v 10.141 c 0,1.1172 0.21875,1.8711 0.65625,2.2656 0.4375,0.38672 1.3125,0.57812 2.625,0.57812 h 3.9375 v 5.4688 h -6.5625 c -3.0234,0 -5.1641,-0.62891 -6.4219,-1.8906 -1.2617,-1.2578 -1.8906,-3.3984 -1.8906,-6.4219 v -10.141 h -3.7969 v -5.4688 h 3.7969 v -6.7969 z"
         id="path781" />
    </symbol>
    <symbol
       id="a"
       overflow="visible">
      <path
         d="m 19.953,-20.422 v -12.812 h 7.6875 V 0 H 19.953 v -3.4531 c -1.0547,1.4062 -2.2148,2.4375 -3.4844,3.0938 -1.2734,0.65625 -2.7422,0.98438 -4.4062,0.98438 -2.9492,0 -5.3711,-1.1719 -7.2656,-3.5156 -1.8867,-2.3438 -2.8281,-5.3594 -2.8281,-9.0469 0,-3.6875 0.94141,-6.7031 2.8281,-9.0469 1.8945,-2.3438 4.3164,-3.5156 7.2656,-3.5156 1.6562,0 3.1172,0.33594 4.3906,1 1.2812,0.65625 2.4453,1.6836 3.5,3.0781 z m -5.0469,15.484 c 1.6445,0 2.8945,-0.59766 3.75,-1.7969 0.86328,-1.1953 1.2969,-2.9297 1.2969,-5.2031 0,-2.2812 -0.43359,-4.0195 -1.2969,-5.2188 -0.85547,-1.1953 -2.1055,-1.7969 -3.75,-1.7969 -1.625,0 -2.8711,0.60156 -3.7344,1.7969 -0.85547,1.1992 -1.2812,2.9375 -1.2812,5.2188 0,2.2734 0.42578,4.0078 1.2812,5.2031 0.86328,1.1992 2.1094,1.7969 3.7344,1.7969 z"
         id="path784" />
    </symbol>
    <symbol
       id="h"
       overflow="visible">
      <path
         d="m 16.406,-4.9375 c 1.6328,0 2.8828,-0.59766 3.75,-1.7969 0.86328,-1.1953 1.2969,-2.9297 1.2969,-5.2031 0,-2.2812 -0.43359,-4.0195 -1.2969,-5.2188 -0.86719,-1.1953 -2.1172,-1.7969 -3.75,-1.7969 -1.6367,0 -2.8906,0.60547 -3.7656,1.8125 -0.875,1.1992 -1.3125,2.9336 -1.3125,5.2031 0,2.2617 0.4375,3.9961 1.3125,5.2031 0.875,1.1992 2.1289,1.7969 3.7656,1.7969 z m -5.0781,-15.484 c 1.0508,-1.3945 2.2188,-2.4219 3.5,-3.0781 1.2812,-0.66406 2.7539,-1 4.4219,-1 2.9453,0 5.3672,1.1719 7.2656,3.5156 1.8945,2.3438 2.8438,5.3594 2.8438,9.0469 0,3.6875 -0.94922,6.7031 -2.8438,9.0469 -1.8984,2.3438 -4.3203,3.5156 -7.2656,3.5156 -1.668,0 -3.1406,-0.33594 -4.4219,-1 -1.2813,-0.66406 -2.4492,-1.6914 -3.5,-3.0781 V 4e-4 H 3.6717 v -33.234 h 7.6562 z"
         id="path787" />
    </symbol>
    <symbol
       id="g"
       overflow="visible">
      <path
         d="m 0.53125,-23.922 h 7.6562 l 6.4219,16.234 5.4688,-16.234 h 7.6562 l -10.062,26.188 c -1.0117,2.6641 -2.1953,4.5234 -3.5469,5.5781 -1.3438,1.0625 -3.1211,1.5938 -5.3281,1.5938 H 4.37545 V 4.4223 h 2.3906 c 1.3008,0 2.2422,-0.21094 2.8281,-0.625 0.59375,-0.40625 1.0547,-1.1484 1.3906,-2.2188 l 0.20312,-0.65625 z"
         id="path790" />
    </symbol>
    <symbol
       id="f"
       overflow="visible">
      <path
         d="M 23.375,-5.8125 H 10.516 L 8.4848,0 H 0.2192 l 11.812,-31.891 h 9.7969 L 33.6401,0 h -8.2656 z m -10.812,-5.9219 h 8.7344 l -4.3594,-12.688 z"
         id="path793" />
    </symbol>
    <symbol
       id="l"
       overflow="visible">
      <path
         d="m 19.422,-33.234 v 5.0156 h -4.2344 c -1.0859,0 -1.8398,0.19922 -2.2656,0.59375 -0.42969,0.38672 -0.64062,1.0625 -0.64062,2.0312 v 1.6719 h 6.5312 v 5.4688 h -6.5312 v 18.453 h -7.6406 v -18.453 h -3.8125 v -5.4688 h 3.8125 v -1.6719 c 0,-2.6016 0.72266,-4.5234 2.1719,-5.7656 1.457,-1.25 3.707,-1.875 6.75,-1.875 z"
         id="path796" />
    </symbol>
    <symbol
       id="k"
       overflow="visible">
      <path
         d="m 4.0156,-31.891 h 8.2188 v 19.109 c 0,2.6367 0.42969,4.5234 1.2969,5.6562 0.86328,1.1367 2.2695,1.7031 4.2188,1.7031 1.9688,0 3.3789,-0.56641 4.2344,-1.7031 0.86328,-1.1328 1.2969,-3.0195 1.2969,-5.6562 v -19.109 h 8.2344 v 19.109 c 0,4.5234 -1.1367,7.8867 -3.4062,10.094 -2.2617,2.2109 -5.7148,3.3125 -10.359,3.3125 -4.625,0 -8.0742,-1.1016 -10.344,-3.3125 C 5.1449,-4.895 4.016,-8.2583 4.016,-12.782 Z"
         id="path799" />
    </symbol>
    <symbol
       id="j"
       overflow="visible">
      <path
         d="m 3.6719,-23.922 h 7.6562 V 0 H 3.6719 Z m 0,-9.3125 h 7.6562 v 6.2344 H 3.6719 Z"
         id="path802" />
    </symbol>
    <symbol
       id="i"
       overflow="visible">
      <path
         d="M 27.734,-14.562 V 0 h -7.7031 v -11.156 c 0,-2.0625 -0.04687,-3.4844 -0.14062,-4.2656 -0.08594,-0.78125 -0.24219,-1.3594 -0.46875,-1.7344 -0.30469,-0.5 -0.71094,-0.88281 -1.2188,-1.1562 -0.51172,-0.28125 -1.0938,-0.42188 -1.75,-0.42188 -1.5938,0 -2.8516,0.61719 -3.7656,1.8438 -0.90625,1.2305 -1.3594,2.9375 -1.3594,5.125 v 11.766 h -7.6562 v -23.922 h 7.6562 v 3.5 c 1.1445,-1.3945 2.3633,-2.4219 3.6562,-3.0781 1.3008,-0.66406 2.7383,-1 4.3125,-1 2.7578,0 4.8516,0.85156 6.2812,2.5469 1.4375,1.6875 2.1562,4.1523 2.1562,7.3906 z"
         id="path805" />
    </symbol>
    <symbol
       id="i-3"
       overflow="visible">
      <path
         d="m 29.312,-1.75 c -1.5117,0.78125 -3.0898,1.3711 -4.7344,1.7656 -1.6367,0.40625 -3.3398,0.60938 -5.1094,0.60938 -5.3125,0 -9.5273,-1.4844 -12.641,-4.4531 -3.1055,-2.9688 -4.6562,-7 -4.6562,-12.094 0,-5.094 1.5508,-9.125 4.6562,-12.094 3.1133,-2.9688 7.3281,-4.4531 12.641,-4.4531 1.7695,0 3.4727,0.19922 5.1094,0.59375 1.6445,0.39844 3.2227,0.99219 4.7344,1.7812 v 6.5938 c -1.5312,-1.0391 -3.0391,-1.8008 -4.5156,-2.2812 -1.4805,-0.48828 -3.0391,-0.73438 -4.6719,-0.73438 -2.9375,0 -5.2461,0.94531 -6.9219,2.8281 -1.6797,1.875 -2.5156,4.4648 -2.5156,7.7656 0,3.293 0.83594,5.8828 2.5156,7.7656 1.6758,1.875 3.9844,2.8125 6.9219,2.8125 1.6328,0 3.1914,-0.23828 4.6719,-0.71875 1.4766,-0.48828 2.9844,-1.2539 4.5156,-2.2969 z"
         id="path930" />
    </symbol>
    <symbol
       id="d-6"
       overflow="visible">
      <path
         d="m 21.453,-17.406 c -0.67969,-0.3125 -1.3516,-0.53906 -2.0156,-0.6875 -0.65625,-0.15625 -1.3203,-0.23438 -1.9844,-0.23438 -1.9688,0 -3.4844,0.63281 -4.5469,1.8906 -1.0547,1.2617 -1.5781,3.0703 -1.5781,5.4219 V 6.2e-4 H 3.6718 v -23.922 h 7.6562 v 3.9219 c 0.97656,-1.5625 2.1016,-2.7031 3.375,-3.4219 1.2812,-0.71875 2.8125,-1.0781 4.5938,-1.0781 0.25,0 0.52344,0.01172 0.82812,0.03125 0.30078,0.02344 0.73438,0.07031 1.2969,0.14062 z"
         id="path933" />
    </symbol>
    <symbol
       id="c-7"
       overflow="visible">
      <path
         d="m 27.562,-12.031 v 2.1875 H 9.671 c 0.1875,1.793 0.83203,3.1367 1.9375,4.0312 1.1133,0.89844 2.6719,1.3438 4.6719,1.3438 1.6016,0 3.25,-0.23438 4.9375,-0.70312 1.6875,-0.47656 3.4219,-1.2031 5.2031,-2.1719 v 5.8906 c -1.8047,0.6875 -3.6094,1.2031 -5.4219,1.5469 -1.8125,0.35156 -3.6211,0.53125 -5.4219,0.53125 -4.3359,0 -7.7031,-1.0977 -10.109,-3.2969 -2.3984,-2.207 -3.5938,-5.2969 -3.5938,-9.2656 0,-3.9062 1.1758,-6.9727 3.5312,-9.2031 2.3633,-2.2383 5.6094,-3.3594 9.7344,-3.3594 3.7578,0 6.7695,1.1367 9.0312,3.4062 2.2578,2.2617 3.3906,5.2812 3.3906,9.0625 z m -7.8594,-2.5312 c 0,-1.457 -0.42969,-2.6289 -1.2812,-3.5156 -0.84375,-0.89453 -1.9492,-1.3438 -3.3125,-1.3438 -1.4922,0 -2.6992,0.41797 -3.625,1.25 -0.91797,0.83594 -1.4922,2.0391 -1.7188,3.6094 z"
         id="path936" />
    </symbol>
    <symbol
       id="a-5"
       overflow="visible">
      <path
         d="m 14.391,-10.766 c -1.5938,0 -2.793,0.27344 -3.5938,0.8125 -0.80469,0.54297 -1.2031,1.3398 -1.2031,2.3906 0,0.96875 0.32031,1.7305 0.96875,2.2812 0.64453,0.54297 1.5469,0.8125 2.7031,0.8125 1.4375,0 2.6445,-0.51562 3.625,-1.5469 0.98828,-1.0312 1.4844,-2.3203 1.4844,-3.875 v -0.875 z m 11.688,-2.8906 V -6e-4 h -7.7031 v -3.5469 c -1.0312,1.4492 -2.1875,2.5078 -3.4688,3.1719 -1.2813,0.6641 -2.8398,1 -4.6719,1 -2.4805,0 -4.4961,-0.72266 -6.0469,-2.1719 -1.543,-1.4453 -2.3125,-3.3203 -2.3125,-5.625 0,-2.8125 0.96094,-4.8672 2.8906,-6.1719 1.9375,-1.3125 4.9688,-1.9688 9.0938,-1.9688 h 4.5156 v -0.60938 c 0,-1.207 -0.48047,-2.0938 -1.4375,-2.6562 -0.94922,-0.5625 -2.4375,-0.84375 -4.4688,-0.84375 -1.6367,0 -3.1562,0.16797 -4.5625,0.5 -1.4062,0.32422 -2.7188,0.8125 -3.9375,1.4688 v -5.8281 c 1.6445,-0.40625 3.2891,-0.70703 4.9375,-0.90625 1.6562,-0.20703 3.3047,-0.3125 4.9531,-0.3125 4.3203,0 7.4375,0.85547 9.3438,2.5625 1.9141,1.6992 2.875,4.4609 2.875,8.2812 z"
         id="path939" />
    </symbol>
    <symbol
       id="h-3"
       overflow="visible">
      <path
         d="m 12.031,-30.719 v 6.7969 h 7.875 v 5.4688 h -7.875 v 10.141 c 0,1.1172 0.21875,1.8711 0.65625,2.2656 0.4375,0.38672 1.3125,0.57812 2.625,0.57812 h 3.9375 v 5.4688 h -6.5625 c -3.0234,0 -5.1641,-0.62891 -6.4219,-1.8906 -1.2617,-1.2578 -1.8906,-3.3984 -1.8906,-6.4219 v -10.141 h -3.7969 v -5.4688 h 3.7969 v -6.7969 z"
         id="path942" />
    </symbol>
    <symbol
       id="b-5"
       overflow="visible">
      <path
         d="m 19.953,-20.422 v -12.812 h 7.6875 V 0 H 19.953 v -3.4531 c -1.0547,1.4062 -2.2148,2.4375 -3.4844,3.0938 -1.2734,0.65625 -2.7422,0.98438 -4.4062,0.98438 -2.9492,0 -5.3711,-1.1719 -7.2656,-3.5156 -1.8867,-2.3438 -2.8281,-5.3594 -2.8281,-9.0469 0,-3.6875 0.94141,-6.7031 2.8281,-9.0469 1.8945,-2.3438 4.3164,-3.5156 7.2656,-3.5156 1.6562,0 3.1172,0.33594 4.3906,1 1.2812,0.65625 2.4453,1.6836 3.5,3.0781 z m -5.0469,15.484 c 1.6445,0 2.8945,-0.59766 3.75,-1.7969 0.86328,-1.1953 1.2969,-2.9297 1.2969,-5.2031 0,-2.2812 -0.43359,-4.0195 -1.2969,-5.2188 -0.85547,-1.1953 -2.1055,-1.7969 -3.75,-1.7969 -1.625,0 -2.8711,0.60156 -3.7344,1.7969 -0.85547,1.1992 -1.2812,2.9375 -1.2812,5.2188 0,2.2734 0.42578,4.0078 1.2812,5.2031 0.86328,1.1992 2.1094,1.7969 3.7344,1.7969 z"
         id="path945" />
    </symbol>
    <symbol
       id="g-6"
       overflow="visible">
      <path
         d="m 16.406,-4.9375 c 1.6328,0 2.8828,-0.59766 3.75,-1.7969 0.86328,-1.1953 1.2969,-2.9297 1.2969,-5.2031 0,-2.2812 -0.43359,-4.0195 -1.2969,-5.2188 -0.86719,-1.1953 -2.1172,-1.7969 -3.75,-1.7969 -1.6367,0 -2.8906,0.60547 -3.7656,1.8125 -0.875,1.1992 -1.3125,2.9336 -1.3125,5.2031 0,2.2617 0.4375,3.9961 1.3125,5.2031 0.875,1.1992 2.1289,1.7969 3.7656,1.7969 z m -5.0781,-15.484 c 1.0508,-1.3945 2.2188,-2.4219 3.5,-3.0781 1.2812,-0.66406 2.7539,-1 4.4219,-1 2.9453,0 5.3672,1.1719 7.2656,3.5156 1.8945,2.3438 2.8438,5.3594 2.8438,9.0469 0,3.6875 -0.94922,6.7031 -2.8438,9.0469 -1.8984,2.3438 -4.3203,3.5156 -7.2656,3.5156 -1.668,0 -3.1406,-0.33594 -4.4219,-1 -1.2813,-0.66406 -2.4492,-1.6914 -3.5,-3.0781 V 4e-4 H 3.6717 v -33.234 h 7.6562 z"
         id="path948" />
    </symbol>
    <symbol
       id="f-2"
       overflow="visible">
      <path
         d="m 0.53125,-23.922 h 7.6562 l 6.4219,16.234 5.4688,-16.234 h 7.6562 l -10.062,26.188 c -1.0117,2.6641 -2.1953,4.5234 -3.5469,5.5781 -1.3438,1.0625 -3.1211,1.5938 -5.3281,1.5938 H 4.37545 V 4.4223 h 2.3906 c 1.3008,0 2.2422,-0.21094 2.8281,-0.625 0.59375,-0.40625 1.0547,-1.1484 1.3906,-2.2188 l 0.20312,-0.65625 z"
         id="path951" />
    </symbol>
    <symbol
       id="e-9"
       overflow="visible">
      <path
         d="m 12.234,-25.672 v 19.453 h 2.9531 c 3.3633,0 5.9297,-0.83203 7.7031,-2.5 1.7695,-1.6641 2.6562,-4.0859 2.6562,-7.2656 0,-3.1562 -0.88672,-5.5547 -2.6562,-7.2031 -1.7617,-1.6562 -4.3281,-2.4844 -7.7031,-2.4844 z m -8.2188,-6.2188 h 8.6719 c 4.8438,0 8.4453,0.34375 10.812,1.0312 2.375,0.6875 4.4102,1.8594 6.1094,3.5156 1.4883,1.4375 2.5977,3.1016 3.3281,4.9844 0.72656,1.875 1.0938,4 1.0938,6.375 0,2.4062 -0.36719,4.5586 -1.0938,6.4531 -0.73047,1.8867 -1.8398,3.5469 -3.3281,4.9844 -1.7109,1.6484 -3.7617,2.8203 -6.1562,3.5156 C 21.0539,-0.344 17.4679,-3e-4 12.6863,-3e-4 H 4.0144 Z"
         id="path954" />
    </symbol>
    <symbol
       id="l-1"
       overflow="visible">
      <path
         d="m 37.516,-2.25 c -1.9297,1.0117 -3.9453,1.7734 -6.0469,2.2812 -2.0938,0.50781 -4.2812,0.76562 -6.5625,0.76562 -6.793,0 -12.18,-1.8984 -16.156,-5.7031 -3.9688,-3.8008 -5.9531,-8.957 -5.9531,-15.469 0,-6.5195 1.9844,-11.68 5.9531,-15.484 3.9766,-3.8008 9.3633,-5.7031 16.156,-5.7031 2.2812,0 4.4688,0.25781 6.5625,0.76562 2.1016,0.51172 4.1172,1.2656 6.0469,2.2656 v 8.4531 c -1.9492,-1.332 -3.8711,-2.3047 -5.7656,-2.9219 -1.8984,-0.625 -3.8906,-0.9375 -5.9844,-0.9375 -3.7617,0 -6.7188,1.2031 -8.875,3.6094 -2.1484,2.4062 -3.2188,5.7266 -3.2188,9.9531 0,4.2109 1.0703,7.5156 3.2188,9.9219 2.1562,2.4062 5.1133,3.6094 8.875,3.6094 2.0938,0 4.0859,-0.30469 5.9844,-0.92188 1.8945,-0.625 3.8164,-1.5977 5.7656,-2.9219 z"
         id="path1065" />
    </symbol>
    <symbol
       id="d-2"
       overflow="visible">
      <path
         d="m 27.453,-22.281 c -0.85547,-0.40625 -1.7109,-0.70312 -2.5625,-0.89062 -0.84375,-0.19531 -1.6953,-0.29688 -2.5469,-0.29688 -2.5234,0 -4.4609,0.80859 -5.8125,2.4219 -1.3555,1.6172 -2.0312,3.9297 -2.0312,6.9375 V -10e-5 H 4.703 v -30.625 h 9.7969 v 5.0312 c 1.25,-2.0078 2.6914,-3.4727 4.3281,-4.3906 1.6328,-0.91406 3.5859,-1.375 5.8594,-1.375 0.33203,0 0.6875,0.01563 1.0625,0.04687 0.38281,0.02344 0.94141,0.07813 1.6719,0.17188 z"
         id="path1068" />
    </symbol>
    <symbol
       id="c-70"
       overflow="visible">
      <path
         d="m 35.281,-15.391 v 2.7812 H 12.39 c 0.23828,2.3047 1.0664,4.0273 2.4844,5.1719 1.4258,1.1484 3.4141,1.7188 5.9688,1.7188 2.0508,0 4.1562,-0.30078 6.3125,-0.90625 2.1641,-0.61328 4.3906,-1.5391 6.6719,-2.7812 v 7.5469 c -2.3125,0.875 -4.6328,1.5391 -6.9531,1.9844 -2.3125,0.44531 -4.625,0.67188 -6.9375,0.67188 -5.543,0 -9.8516,-1.4062 -12.922,-4.2188 -3.0742,-2.8203 -4.6094,-6.7734 -4.6094,-11.859 0,-5 1.5039,-8.9258 4.5156,-11.781 3.0195,-2.8633 7.1758,-4.2969 12.469,-4.2969 4.8125,0 8.6602,1.4492 11.547,4.3438 2.8945,2.8984 4.3438,6.7734 4.3438,11.625 z m -10.062,-3.2656 c 0,-1.8516 -0.54688,-3.3477 -1.6406,-4.4844 -1.0859,-1.1445 -2.5,-1.7188 -4.25,-1.7188 -1.8984,0 -3.4375,0.53906 -4.625,1.6094 -1.1797,1.0625 -1.9141,2.5938 -2.2031,4.5938 z"
         id="path1071" />
    </symbol>
    <symbol
       id="h-9"
       overflow="visible">
      <path
         d="m 18.438,-13.781 c -2.043,0 -3.5781,0.35156 -4.6094,1.0469 -1.0312,0.6875 -1.5469,1.7031 -1.5469,3.0469 0,1.2422 0.41016,2.2148 1.2344,2.9219 0.83203,0.69922 1.9883,1.0469 3.4688,1.0469 1.8438,0 3.3906,-0.66016 4.6406,-1.9844 1.2578,-1.3203 1.8906,-2.9727 1.8906,-4.9531 v -1.125 z m 14.953,-3.6875 V 5e-4 h -9.875 v -4.5469 c -1.3125,1.8672 -2.793,3.2266 -4.4375,4.0781 -1.6367,0.84375 -3.6328,1.2656 -5.9844,1.2656 -3.168,0 -5.7422,-0.92578 -7.7188,-2.7812 -1.9805,-1.8516 -2.9688,-4.2539 -2.9688,-7.2031 0,-3.5938 1.2344,-6.2266 3.7031,-7.9062 2.4688,-1.6758 6.3477,-2.5156 11.641,-2.5156 h 5.7656 v -0.76562 c 0,-1.5508 -0.60938,-2.6875 -1.8281,-3.4062 -1.21872,-0.7187 -3.125,-1.0781 -5.7188,-1.0781 -2.0938,0 -4.0469,0.21484 -5.8594,0.64062 -1.8047,0.41797 -3.4766,1.043 -5.0156,1.875 v -7.4688 c 2.0938,-0.50781 4.1953,-0.89453 6.3125,-1.1562 2.1133,-0.25781 4.2266,-0.39062 6.3438,-0.39062 5.5195,0 9.5039,1.0898 11.953,3.2656 2.457,2.1797 3.6875,5.7188 3.6875,10.625 z"
         id="path1074" />
    </symbol>
    <symbol
       id="g-3"
       overflow="visible">
      <path
         d="m 15.391,-39.328 v 8.7031 h 10.094 v 7 H 15.391 v 12.984 c 0,1.4297 0.28125,2.3906 0.84375,2.8906 0.57031,0.5 1.6953,0.75 3.375,0.75 h 5.0312 v 7 h -8.3906 c -3.8672,0 -6.6055,-0.80469 -8.2188,-2.4219 -1.6172,-1.6133 -2.4219,-4.3516 -2.4219,-8.2188 v -12.984 h -4.875 v -7 h 4.875 v -8.7031 z"
         id="path1077" />
    </symbol>
    <symbol
       id="f-6"
       overflow="visible">
      <path
         d="m 25.547,-26.141 v -16.406 h 9.8438 V 0 H 25.547 v -4.4375 c -1.3555,1.8125 -2.8438,3.1406 -4.4688,3.9844 -1.6172,0.83203 -3.4922,1.25 -5.625,1.25 -3.7734,0 -6.8711,-1.5 -9.2969,-4.5 -2.4297,-3 -3.6406,-6.8594 -3.6406,-11.578 0,-4.7266 1.2109,-8.5859 3.6406,-11.578 2.4258,-3 5.5234,-4.5 9.2969,-4.5 2.1133,0 3.9844,0.42188 5.6094,1.2656 1.6328,0.84375 3.1289,2.1641 4.4844,3.9531 z m -6.4531,19.828 c 2.0938,0 3.6914,-0.76562 4.7969,-2.2969 1.1016,-1.5312 1.6562,-3.7539 1.6562,-6.6719 0,-2.9141 -0.55469,-5.1406 -1.6562,-6.6719 -1.1055,-1.5312 -2.7031,-2.2969 -4.7969,-2.2969 -2.0859,0 -3.6797,0.76562 -4.7812,2.2969 -1.1055,1.5312 -1.6562,3.7578 -1.6562,6.6719 0,2.918 0.55078,5.1406 1.6562,6.6719 1.1016,1.5312 2.6953,2.2969 4.7812,2.2969 z"
         id="path1080" />
    </symbol>
    <symbol
       id="b-0"
       overflow="visible">
      <path
         d="m 21,-6.3125 c 2.0938,0 3.6914,-0.76562 4.7969,-2.2969 1.1016,-1.5312 1.6562,-3.7539 1.6562,-6.6719 0,-2.9141 -0.55469,-5.1406 -1.6562,-6.6719 -1.1055,-1.5312 -2.7031,-2.2969 -4.7969,-2.2969 -2.0938,0 -3.7031,0.77344 -4.8281,2.3125 -1.1172,1.5312 -1.6719,3.75 -1.6719,6.6562 0,2.8984 0.55469,5.1172 1.6719,6.6562 1.125,1.543 2.7344,2.3125 4.8281,2.3125 z m -6.5,-19.828 c 1.3438,-1.7891 2.832,-3.1094 4.4688,-3.9531 1.6445,-0.84375 3.5352,-1.2656 5.6719,-1.2656 3.7695,0 6.8672,1.5 9.2969,4.5 2.4258,2.9922 3.6406,6.8516 3.6406,11.578 0,4.7188 -1.2148,8.5781 -3.6406,11.578 -2.4297,3 -5.5273,4.5 -9.2969,4.5 -2.1367,0 -4.0273,-0.42188 -5.6719,-1.2656 C 17.3321,-1.32036 15.8438,-2.6446 14.5,-4.4376 V -10e-5 H 4.7031 v -42.547 H 14.5 Z"
         id="path1083" />
    </symbol>
    <symbol
       id="a-6"
       overflow="visible">
      <path
         d="m 0.6875,-30.625 h 9.7812 l 8.2344,20.781 7,-20.781 H 35.5 L 22.609,2.906 c -1.293,3.4062 -2.8047,5.7852 -4.5312,7.1406 -1.7188,1.3633 -3.9922,2.0469 -6.8125,2.0469 H 5.6091 V 5.656 h 3.0625 c 1.6562,0 2.8594,-0.26562 3.6094,-0.79688 0.75781,-0.52344 1.3516,-1.4648 1.7812,-2.8281 l 0.26562,-0.85938 z"
         id="path1086" />
    </symbol>
    <symbol
       id="e-2"
       overflow="visible">
      <path
         d="m 5.1406,-40.828 h 17.469 c 5.1953,0 9.1875,1.1562 11.969,3.4688 2.7812,2.3047 4.1719,5.5859 4.1719,9.8438 0,4.293 -1.3906,7.5898 -4.1719,9.8906 -2.7812,2.3047 -6.7734,3.4531 -11.969,3.4531 H 15.6721 V 3e-4 H 5.1411 Z m 10.531,7.625 v 11.406 h 5.8281 c 2.0391,0 3.6133,-0.49219 4.7188,-1.4844 1.1133,-1 1.6719,-2.4102 1.6719,-4.2344 0,-1.8203 -0.55859,-3.2227 -1.6719,-4.2031 -1.1055,-0.98828 -2.6797,-1.4844 -4.7188,-1.4844 z"
         id="path1089" />
    </symbol>
    <symbol
       id="k-6"
       overflow="visible">
      <path
         d="m 19.281,-24.359 c -2.168,0 -3.8242,0.78125 -4.9688,2.3438 -1.1367,1.5547 -1.7031,3.7969 -1.7031,6.7344 0,2.9297 0.56641,5.1719 1.7031,6.7344 1.1445,1.5625 2.8008,2.3438 4.9688,2.3438 2.1328,0 3.7656,-0.78125 4.8906,-2.3438 1.1328,-1.5625 1.7031,-3.8047 1.7031,-6.7344 0,-2.9375 -0.57031,-5.1797 -1.7031,-6.7344 -1.125,-1.5625 -2.7578,-2.3438 -4.8906,-2.3438 z m 0,-7 c 5.2695,0 9.3828,1.4219 12.344,4.2656 2.957,2.8438 4.4375,6.7812 4.4375,11.812 0,5.0308 -1.4805,8.9688 -4.4375,11.812 -2.9609,2.8438 -7.0742,4.2656 -12.344,4.2656 -5.293,0 -9.4297,-1.4219 -12.406,-4.2656 -2.9805,-2.8438 -4.4688,-6.7812 -4.4688,-11.812 0,-5.0308 1.4883,-8.9688 4.4688,-11.812 2.9766,-2.8438 7.1133,-4.2656 12.406,-4.2656 z"
         id="path1092" />
    </symbol>
    <symbol
       id="j-1"
       overflow="visible">
      <path
         d="m 33.547,-39.547 v 8.6406 c -2.2422,-1 -4.4297,-1.7539 -6.5625,-2.2656 -2.125,-0.50781 -4.1367,-0.76562 -6.0312,-0.76562 -2.5234,0 -4.3867,0.35156 -5.5938,1.0469 -1.1992,0.6875 -1.7969,1.7617 -1.7969,3.2188 0,1.0938 0.40625,1.9492 1.2188,2.5625 0.8125,0.60547 2.2852,1.125 4.4219,1.5625 l 4.4844,0.90625 c 4.5312,0.91797 7.7539,2.3086 9.6719,4.1719 1.9141,1.8555 2.875,4.4961 2.875,7.9219 0,4.5 -1.3398,7.8516 -4.0156,10.047 -2.668,2.1992 -6.7461,3.2969 -12.234,3.2969 -2.5859,0 -5.1836,-0.25 -7.7969,-0.75 -2.6055,-0.48828 -5.2109,-1.2188 -7.8125,-2.1875 v -8.875 c 2.6016,1.3867 5.125,2.4297 7.5625,3.125 2.4375,0.69922 4.7852,1.0469 7.0469,1.0469 2.2891,0 4.0469,-0.37891 5.2656,-1.1406 1.2266,-0.76953 1.8438,-1.8633 1.8438,-3.2812 0,-1.2812 -0.41797,-2.2656 -1.25,-2.9531 -0.83594,-0.69531 -2.4922,-1.3164 -4.9688,-1.8594 l -4.0625,-0.90625 c -4.0859,-0.875 -7.0742,-2.2656 -8.9688,-4.1719 -1.8867,-1.9141 -2.8281,-4.5 -2.8281,-7.75 0,-4.0625 1.3125,-7.1875 3.9375,-9.375 2.625,-2.1875 6.3984,-3.2812 11.328,-3.2812 2.2383,0 4.5391,0.17188 6.9062,0.51562 2.375,0.33594 4.8281,0.83594 7.3594,1.5 z"
         id="path1095" />
    </symbol>
    <symbol
       id="i-8"
       overflow="visible">
      <path
         d="m 33.094,-25.547 c 1.2383,-1.8945 2.707,-3.3359 4.4062,-4.3281 1.707,-0.98828 3.582,-1.4844 5.625,-1.4844 3.5195,0 6.1953,1.0859 8.0312,3.25 1.8438,2.168 2.7656,5.3203 2.7656,9.4531 V -4e-4 h -9.8438 v -15.969 c 0.01953,-0.23828 0.03516,-0.48438 0.04687,-0.73438 0.0078,-0.25781 0.01563,-0.625 0.01563,-1.0938 0,-2.1758 -0.32422,-3.75 -0.96875,-4.7188 -0.63672,-0.97656 -1.6641,-1.4688 -3.0781,-1.4688 -1.8672,0 -3.3047,0.76562 -4.3125,2.2969 -1.0117,1.5312 -1.5391,3.7461 -1.5781,6.6406 v 15.047 h -9.8438 v -15.969 c 0,-3.3945 -0.29297,-5.5781 -0.875,-6.5469 -0.58594,-0.97656 -1.6211,-1.4688 -3.1094,-1.4688 -1.875,0 -3.3242,0.77344 -4.3438,2.3125 -1.0234,1.543 -1.5312,3.7461 -1.5312,6.6094 v 15.062 h -9.8438 v -30.625 h 9.8438 v 4.4844 c 1.1953,-1.7266 2.5703,-3.0312 4.125,-3.9062 1.5625,-0.875 3.2852,-1.3125 5.1719,-1.3125 2.1133,0 3.9766,0.51172 5.5938,1.5312 1.625,1.0234 2.8594,2.4492 3.7031,4.2812 z"
         id="path1098" />
    </symbol>
    <symbol
       id="t"
       overflow="visible">
      <path
         d="m 18.766,-1.125 c -0.96875,0.5 -1.9805,0.875 -3.0312,1.125 -1.043,0.25781 -2.1367,0.39062 -3.2812,0.39062 -3.3984,0 -6.0898,-0.94531 -8.0781,-2.8438 -1.9922,-1.9062 -2.9844,-4.4844 -2.9844,-7.7344 0,-3.2578 0.99219,-5.8359 2.9844,-7.7344 1.9883,-1.9062 4.6797,-2.8594 8.0781,-2.8594 1.1445,0 2.2383,0.13281 3.2812,0.39062 1.0508,0.25 2.0625,0.625 3.0312,1.125 v 4.2188 c -0.98047,-0.65625 -1.9453,-1.1406 -2.8906,-1.4531 -0.94922,-0.3125 -1.9492,-0.46875 -3,-0.46875 -1.875,0 -3.3516,0.60547 -4.4219,1.8125 -1.0742,1.1992 -1.6094,2.8555 -1.6094,4.9688 0,2.1055 0.53516,3.7617 1.6094,4.9688 1.0703,1.1992 2.5469,1.7969 4.4219,1.7969 1.0508,0 2.0508,-0.14844 3,-0.45312 0.94531,-0.3125 1.9102,-0.80078 2.8906,-1.4688 z"
         id="path1209" />
    </symbol>
    <symbol
       id="c-79"
       overflow="visible">
      <path
         d="m 13.734,-11.141 c -0.4375,-0.19531 -0.87109,-0.34375 -1.2969,-0.4375 -0.41797,-0.10156 -0.83984,-0.15625 -1.2656,-0.15625 -1.2617,0 -2.2305,0.40625 -2.9062,1.2188 -0.67969,0.80469 -1.0156,1.9531 -1.0156,3.4531 v 7.0625 H 2.3591 v -15.312 h 4.8906 v 2.5156 c 0.625,-1 1.3438,-1.7266 2.1562,-2.1875 0.82031,-0.46875 1.8008,-0.70312 2.9375,-0.70312 0.16406,0 0.34375,0.01172 0.53125,0.03125 0.19531,0.01172 0.47656,0.03906 0.84375,0.07813 z"
         id="path1212" />
    </symbol>
    <symbol
       id="a-2"
       overflow="visible">
      <path
         d="m 17.641,-7.7031 v 1.4062 H 6.188 c 0.125,1.1484 0.53906,2.0078 1.25,2.5781 0.70703,0.57422 1.7031,0.85938 2.9844,0.85938 1.0312,0 2.082,-0.14844 3.1562,-0.45312 1.082,-0.3125 2.1914,-0.77344 3.3281,-1.3906 v 3.7656 c -1.1562,0.4375 -2.3125,0.76562 -3.4688,0.98438 -1.1562,0.22656 -2.3125,0.34375 -3.4688,0.34375 -2.7734,0 -4.9297,-0.70312 -6.4688,-2.1094 -1.5312,-1.4062 -2.2969,-3.3789 -2.2969,-5.9219 0,-2.5 0.75391,-4.4609 2.2656,-5.8906 1.5078,-1.4375 3.582,-2.1562 6.2188,-2.1562 2.4062,0 4.332,0.73047 5.7812,2.1875 1.4453,1.4492 2.1719,3.3828 2.1719,5.7969 z m -5.0312,-1.625 c 0,-0.92578 -0.27344,-1.6719 -0.8125,-2.2344 -0.54297,-0.57031 -1.25,-0.85938 -2.125,-0.85938 -0.94922,0 -1.7188,0.26562 -2.3125,0.79688 -0.5937,0.53126 -0.96484,1.2969 -1.1094,2.2969 z"
         id="path1215" />
    </symbol>
    <symbol
       id="b-02"
       overflow="visible">
      <path
         d="m 9.2188,-6.8906 c -1.0234,0 -1.793,0.17188 -2.3125,0.51562 -0.51172,0.34375 -0.76562,0.85547 -0.76562,1.5312 0,0.625 0.20703,1.1172 0.625,1.4688 0.41406,0.34375 0.98828,0.51562 1.7188,0.51562 0.92578,0 1.7031,-0.32812 2.3281,-0.98438 0.63281,-0.66406 0.95312,-1.4922 0.95312,-2.4844 v -0.5625 z m 7.4688,-1.8438 V 0 h -4.9219 v -2.2656 c -0.65625,0.92969 -1.3984,1.6055 -2.2188,2.0312 -0.82422,0.41406 -1.8242,0.625 -3,0.625 -1.5859,0 -2.8711,-0.45703 -3.8594,-1.375 -0.99219,-0.92578 -1.4844,-2.1289 -1.4844,-3.6094 0,-1.7891 0.61328,-3.1016 1.8438,-3.9375 1.2383,-0.84375 3.1797,-1.2656 5.8281,-1.2656 h 2.8906 v -0.39062 c 0,-0.76953 -0.30859,-1.332 -0.92188,-1.6875 -0.61719,-0.36328 -1.5703,-0.54688 -2.8594,-0.54688 -1.0547,0 -2.0312,0.10547 -2.9375,0.3125 -0.89844,0.21094 -1.7305,0.52344 -2.5,0.9375 v -3.7344 c 1.0391,-0.25 2.0859,-0.44141 3.1406,-0.57812 1.0625,-0.13281 2.125,-0.20312 3.1875,-0.20312 2.7578,0 4.75,0.54688 5.9688,1.6406 1.2266,1.0859 1.8438,2.8555 1.8438,5.3125 z"
         id="path1218" />
    </symbol>
    <symbol
       id="d-3"
       overflow="visible">
      <path
         d="m 7.7031,-19.656 v 4.3438 H 12.75 v 3.5 H 7.7031 v 6.5 c 0,0.71094 0.14062,1.1875 0.42188,1.4375 0.28126,0.25 0.83594,0.375 1.6719,0.375 h 2.5156 v 3.5 h -4.1875 c -1.9375,0 -3.3125,-0.39844 -4.125,-1.2031 -0.80469,-0.8125 -1.2031,-2.1797 -1.2031,-4.1094 v -6.5 h -2.4219 v -3.5 h 2.4219 v -4.3438 z"
         id="path1221" />
    </symbol>
    <symbol
       id="g-7"
       overflow="visible">
      <path
         d="m 12.766,-13.078 v -8.2031 h 4.9219 V -10e-5 H 12.766 v -2.2188 c -0.66797,0.90625 -1.4062,1.5703 -2.2188,1.9844 -0.8126,0.4141 -1.7578,0.625 -2.8281,0.625 -1.8867,0 -3.4336,-0.75 -4.6406,-2.25 -1.2109,-1.5 -1.8125,-3.4258 -1.8125,-5.7812 0,-2.3633 0.60156,-4.2969 1.8125,-5.7969 1.207,-1.5 2.7539,-2.25 4.6406,-2.25 1.0625,0 2,0.21484 2.8125,0.64062 0.82031,0.42969 1.5664,1.0859 2.2344,1.9688 z m -3.2188,9.9219 c 1.0391,0 1.8359,-0.37891 2.3906,-1.1406 0.55078,-0.76953 0.82812,-1.8828 0.82812,-3.3438 0,-1.457 -0.27734,-2.5664 -0.82812,-3.3281 -0.55469,-0.76953 -1.3516,-1.1562 -2.3906,-1.1562 -1.043,0 -1.8398,0.38672 -2.3906,1.1562 -0.55469,0.76172 -0.82812,1.8711 -0.82812,3.3281 0,1.4609 0.27344,2.5742 0.82812,3.3438 0.55078,0.76172 1.3477,1.1406 2.3906,1.1406 z"
         id="path1224" />
    </symbol>
    <symbol
       id="i-5"
       overflow="visible">
      <path
         d="m 10.5,-3.1562 c 1.0508,0 1.8516,-0.37891 2.4062,-1.1406 0.55078,-0.76953 0.82812,-1.8828 0.82812,-3.3438 0,-1.457 -0.27734,-2.5664 -0.82812,-3.3281 -0.55469,-0.76953 -1.3555,-1.1562 -2.4062,-1.1562 -1.0547,0 -1.8594,0.38672 -2.4219,1.1562 -0.55469,0.77344 -0.82812,1.8828 -0.82812,3.3281 0,1.4492 0.27344,2.5586 0.82812,3.3281 0.5625,0.77344 1.3672,1.1562 2.4219,1.1562 z m -3.25,-9.9219 c 0.67578,-0.88281 1.4219,-1.5391 2.2344,-1.9688 0.82031,-0.42578 1.7656,-0.64062 2.8281,-0.64062 1.8945,0 3.4453,0.75 4.6562,2.25 1.207,1.5 1.8125,3.4336 1.8125,5.7969 0,2.3555 -0.60547,4.2812 -1.8125,5.7812 -1.2109,1.5 -2.7617,2.25 -4.6562,2.25 -1.0625,0 -2.0078,-0.21094 -2.8281,-0.625 C 8.6719,-0.6602 7.9258,-1.32032 7.25,-2.21882 V -2e-5 H 2.3594 v -21.281 H 7.25 Z"
         id="path1227" />
    </symbol>
    <symbol
       id="h-92"
       overflow="visible">
      <path
         d="m 0.34375,-15.312 h 4.8906 l 4.125,10.391 3.5,-10.391 h 4.8906 l -6.4375,16.766 c -0.64844,1.6953 -1.4023,2.8828 -2.2656,3.5625 -0.86719,0.6875 -2,1.0312 -3.4062,1.0312 H 2.79685 V 2.8289 h 1.5312 c 0.83203,0 1.4375,-0.13672 1.8125,-0.40625 C 6.52336,2.16093 6.82024,1.69218 7.03117,1.01645 L 7.17179,0.59457 Z"
         id="path1230" />
    </symbol>
    <symbol
       id="f-28"
       overflow="visible">
      <path
         d="m 16.781,-19.766 v 4.3125 c -1.125,-0.5 -2.2266,-0.875 -3.2969,-1.125 -1.0625,-0.25781 -2.0703,-0.39062 -3.0156,-0.39062 -1.25,0 -2.1797,0.17969 -2.7812,0.53125 -0.60547,0.34375 -0.90625,0.88281 -0.90625,1.6094 0,0.54297 0.20312,0.96875 0.60938,1.2812 0.40625,0.30469 1.1406,0.5625 2.2031,0.78125 l 2.25,0.45312 c 2.2695,0.44922 3.8789,1.1406 4.8281,2.0781 0.95703,0.92969 1.4375,2.2461 1.4375,3.9531 0,2.25 -0.66797,3.9297 -2,5.0312 -1.3359,1.0938 -3.3711,1.6406 -6.1094,1.6406 -1.3047,0 -2.6055,-0.125 -3.9062,-0.375 -1.3047,-0.23828 -2.6055,-0.59766 -3.9062,-1.0781 v -4.4531 c 1.3008,0.69922 2.5625,1.2266 3.7812,1.5781 1.2188,0.34375 2.3906,0.51562 3.5156,0.51562 1.1562,0 2.0352,-0.1875 2.6406,-0.5625 0.61328,-0.38281 0.92188,-0.9375 0.92188,-1.6562 0,-0.63281 -0.21094,-1.125 -0.625,-1.4688 -0.41797,-0.34375 -1.2461,-0.65625 -2.4844,-0.9375 l -2.0312,-0.4375 c -2.043,-0.4375 -3.5391,-1.1328 -4.4844,-2.0938 -0.9375,-0.95703 -1.4062,-2.25 -1.4062,-3.875 0,-2.0312 0.65625,-3.5938 1.9688,-4.6875 1.31255,-1.0937 3.1953,-1.6406 5.6562,-1.6406 1.125,0 2.2734,0.08594 3.4531,0.25 1.1875,0.16797 2.4141,0.42188 3.6875,0.76562 z"
         id="path1233" />
    </symbol>
    <symbol
       id="s"
       overflow="visible">
      <path
         d="M 2.3594,-15.312 H 7.25 V 0 H 2.3594 Z m 0,-5.9688 H 7.25 v 4 H 2.3594 Z"
         id="path1236" />
    </symbol>
    <symbol
       id="r"
       overflow="visible">
      <path
         d="m 12.422,-21.281 v 3.2188 H 9.7189 c -0.6875,0 -1.1719,0.125 -1.4531,0.375 -0.27344,0.25 -0.40625,0.6875 -0.40625,1.3125 v 1.0625 h 4.1875 v 3.5 H 7.85955 V -2e-4 h -4.8906 v -11.812 h -2.4375 v -3.5 h 2.4375 v -1.0625 c 0,-1.6641 0.46094,-2.8984 1.3906,-3.7031 0.92578,-0.80078 2.3672,-1.2031 4.3281,-1.2031 z"
         id="path1239" />
    </symbol>
    <symbol
       id="e-97"
       overflow="visible">
      <path
         d="m 9.6406,-12.188 c -1.0859,0 -1.9141,0.39062 -2.4844,1.1719 -0.57422,0.78125 -0.85938,1.9062 -0.85938,3.375 0,1.4688 0.28516,2.5938 0.85938,3.375 0.57031,0.77344 1.3984,1.1562 2.4844,1.1562 1.0625,0 1.875,-0.38281 2.4375,-1.1562 0.57031,-0.78125 0.85938,-1.9062 0.85938,-3.375 0,-1.4688 -0.28906,-2.5938 -0.85938,-3.375 -0.5625,-0.78125 -1.375,-1.1719 -2.4375,-1.1719 z m 0,-3.5 c 2.6328,0 4.6914,0.71484 6.1719,2.1406 1.4766,1.418 2.2188,3.3867 2.2188,5.9062 0,2.5117 -0.74219,4.4805 -2.2188,5.9062 C 14.332,-0.317 12.2734,0.39 9.6406,0.39 6.9922,0.39 4.9258,-0.31703 3.4375,-1.735 1.9453,-3.1608 1.2031,-5.1295 1.2031,-7.6412 c 0,-2.5195 0.74219,-4.4883 2.2344,-5.9062 1.4883,-1.4258 3.5547,-2.1406 6.2031,-2.1406 z"
         id="path1242" />
    </symbol>
    <symbol
       id="q"
       overflow="visible">
      <path
         d="m 16.547,-12.766 c 0.61328,-0.94531 1.3477,-1.6719 2.2031,-2.1719 0.85156,-0.5 1.7891,-0.75 2.8125,-0.75 1.7578,0 3.0977,0.54688 4.0156,1.6406 0.92578,1.0859 1.3906,2.6562 1.3906,4.7188 V -4e-4 h -4.9219 v -7.9844 -0.35938 c 0.0078,-0.13281 0.01563,-0.32031 0.01563,-0.5625 0,-1.082 -0.16406,-1.8633 -0.48438,-2.3438 -0.3125,-0.48828 -0.82422,-0.73438 -1.5312,-0.73438 -0.92969,0 -1.6484,0.38672 -2.1562,1.1562 -0.51172,0.76172 -0.77344,1.8672 -0.78125,3.3125 v 7.5156 h -4.9219 v -7.9844 c 0,-1.6953 -0.14844,-2.7852 -0.4375,-3.2656 -0.29297,-0.48828 -0.8125,-0.73438 -1.5625,-0.73438 -0.9375,0 -1.6641,0.38672 -2.1719,1.1562 -0.51172,0.76172 -0.76562,1.8594 -0.76562,3.2969 v 7.5312 h -4.9219 v -15.312 h 4.9219 v 2.2344 c 0.60156,-0.86328 1.2891,-1.5156 2.0625,-1.9531 0.78125,-0.4375 1.6406,-0.65625 2.5781,-0.65625 1.0625,0 2,0.25781 2.8125,0.76562 0.8125,0.51172 1.4258,1.2305 1.8438,2.1562 z"
         id="path1245" />
    </symbol>
    <symbol
       id="p"
       overflow="visible">
      <path
         d="M 17.75,-9.3281 V 0 h -4.9219 v -7.1094 c 0,-1.3438 -0.03125,-2.2656 -0.09375,-2.7656 -0.0625,-0.5 -0.16797,-0.86719 -0.3125,-1.1094 -0.1875,-0.3125 -0.44922,-0.55469 -0.78125,-0.73438 -0.32422,-0.17578 -0.69531,-0.26562 -1.1094,-0.26562 -1.0234,0 -1.8242,0.39844 -2.4062,1.1875 -0.58594,0.78125 -0.875,1.8711 -0.875,3.2656 V -1e-4 H 2.3594 v -21.281 H 7.25 v 8.2031 c 0.73828,-0.88281 1.5195,-1.5391 2.3438,-1.9688 0.83203,-0.42578 1.75,-0.64062 2.75,-0.64062 1.7695,0 3.1133,0.54688 4.0312,1.6406 0.91406,1.0859 1.375,2.6562 1.375,4.7188 z"
         id="path1248" />
    </symbol>
    <symbol
       id="o"
       overflow="visible">
      <path
         d="m 2.5781,-20.406 h 5.875 l 7.4219,14 v -14 h 4.9844 V 0 h -5.875 L 7.5625,-14 V 0 H 2.5781 Z"
         id="path1251" />
    </symbol>
    <symbol
       id="n"
       overflow="visible">
      <path
         d="m 2.1875,-5.9688 v -9.3438 h 4.9219 v 1.5312 c 0,0.83594 -0.00781,1.875 -0.015625,3.125 -0.011719,1.25 -0.015625,2.0859 -0.015625,2.5 0,1.2422 0.03125,2.1328 0.09375,2.6719 0.070313,0.54297 0.17969,0.93359 0.32812,1.1719 0.20703,0.32422 0.47266,0.57422 0.79688,0.75 0.32031,0.16797 0.69141,0.25 1.1094,0.25 1.0195,0 1.8203,-0.39062 2.4062,-1.1719 0.58203,-0.78125 0.875,-1.8672 0.875,-3.2656 v -7.5625 h 4.8906 V -6e-4 H 12.6875 V -2.2194 C 11.94531,-1.32096 11.1641,-0.6608 10.3437,-0.235 9.51948,0.17906 8.6093,0.39 7.6093,0.39 5.8476,0.39 4.5038,-0.14906 3.5781,-1.235 2.64841,-2.317 2.1875,-3.8952 2.1875,-5.9694 Z"
         id="path1254" />
    </symbol>
    <symbol
       id="m-3"
       overflow="visible">
      <path
         d="M 17.75,-9.3281 V 0 h -4.9219 v -7.1406 c 0,-1.3203 -0.03125,-2.2344 -0.09375,-2.7344 -0.0625,-0.5 -0.16797,-0.86719 -0.3125,-1.1094 -0.1875,-0.3125 -0.44922,-0.55469 -0.78125,-0.73438 -0.32422,-0.17578 -0.69531,-0.26562 -1.1094,-0.26562 -1.0234,0 -1.8242,0.39844 -2.4062,1.1875 -0.58594,0.78125 -0.875,1.8711 -0.875,3.2656 V -1e-4 H 2.3594 v -15.312 H 7.25 v 2.2344 c 0.73828,-0.88281 1.5195,-1.5391 2.3438,-1.9688 0.83203,-0.42578 1.75,-0.64062 2.75,-0.64062 1.7695,0 3.1133,0.54688 4.0312,1.6406 0.91406,1.0859 1.375,2.6562 1.375,4.7188 z"
         id="path1257" />
    </symbol>
    <symbol
       id="l-6"
       overflow="visible">
      <path
         d="m 2.5781,-20.406 h 8.7344 c 2.5938,0 4.582,0.57812 5.9688,1.7344 1.3945,1.1484 2.0938,2.7891 2.0938,4.9219 0,2.1367 -0.69922,3.7812 -2.0938,4.9375 -1.3867,1.1562 -3.375,1.7344 -5.9688,1.7344 H 7.8281 V 3e-4 h -5.25 z m 5.25,3.8125 v 5.7031 H 10.75 c 1.0195,0 1.8047,-0.25 2.3594,-0.75 0.5625,-0.5 0.84375,-1.2031 0.84375,-2.1094 0,-0.91406 -0.28125,-1.6172 -0.84375,-2.1094 -0.55469,-0.48828 -1.3398,-0.73438 -2.3594,-0.73438 z"
         id="path1260" />
    </symbol>
    <symbol
       id="k-1"
       overflow="visible">
      <path
         d="M 2.3594,-15.312 H 7.25 v 15.031 c 0,2.0508 -0.49609,3.6172 -1.4844,4.7031 -0.98047,1.082 -2.4062,1.625 -4.2812,1.625 H -0.9375 V 2.8283 h 0.85938 c 0.92578,0 1.5625,-0.21094 1.9062,-0.625 0.35156,-0.41797 0.53125,-1.2461 0.53125,-2.4844 z m 0,-5.9688 H 7.25 v 4 H 2.3594 Z"
         id="path1263" />
    </symbol>
    <symbol
       id="j-2"
       overflow="visible">
      <path
         d="m 14.719,-14.828 v 3.9844 c -0.65625,-0.45703 -1.3242,-0.79688 -2,-1.0156 -0.66797,-0.21875 -1.3594,-0.32812 -2.0781,-0.32812 -1.3672,0 -2.4336,0.40234 -3.2031,1.2031 -0.76172,0.79297 -1.1406,1.9062 -1.1406,3.3438 0,1.4297 0.37891,2.543 1.1406,3.3438 0.76953,0.79297 1.8359,1.1875 3.2031,1.1875 0.75781,0 1.4844,-0.10938 2.1719,-0.32812 0.6875,-0.22656 1.3203,-0.56641 1.9062,-1.0156 v 4 c -0.76172,0.28125 -1.5391,0.48828 -2.3281,0.625 -0.78125,0.14453 -1.5742,0.21875 -2.375,0.21875 -2.7617,0 -4.9219,-0.70703 -6.4844,-2.125 -1.5547,-1.4141 -2.3281,-3.3828 -2.3281,-5.9062 0,-2.5312 0.77344,-4.5039 2.3281,-5.9219 1.5625,-1.4141 3.7227,-2.125 6.4844,-2.125 0.80078,0 1.5938,0.07422 2.375,0.21875 0.78125,0.13672 1.5547,0.35156 2.3281,0.64062 z"
         id="path1266" />
    </symbol>
  </defs>
  <g
     inkscape:label="Layer 1"
     inkscape:groupmode="layer"
     id="layer1"
     transform="translate(-8.7870915,-8.5626336)">
    <path
       d="m 104.31309,82.169217 c -12.197048,0.08655 -22.013247,10.047431 -21.926526,22.243753 0.08654,12.19702 10.047434,22.01323 22.243736,21.92652 12.1963,-0.0867 22.01324,-10.04744 21.92652,-22.24376 -0.0866,-12.197036 -10.04721,-22.014208 -22.24373,-21.926513 z m 9.77726,32.043363 c -0.5774,1.18597 -1.38675,2.18086 -2.44092,2.98282 -1.05941,0.80269 -2.30873,1.40873 -3.75331,1.81478 -0.56746,0.16337 -1.16232,0.29095 -1.76953,0.38815 l 0.0184,2.58987 -3.39691,0.0237 -0.0182,-2.37482 c -0.8563,-0.0153 -1.67932,-0.0821 -2.46313,-0.20396 -0.928511,-0.14817 -1.76479,-0.33405 -2.500352,-0.56802 -0.735125,-0.22676 -1.345656,-0.45942 -1.837943,-0.70552 -0.492903,-0.2391 -0.848147,-0.46986 -1.076322,-0.67736 -0.226605,-0.2143 -0.402898,-0.54944 -0.525538,-1.00663 -0.124585,-0.45767 -0.189847,-1.13696 -0.196468,-2.03499 -0.0054,-0.59007 0.0087,-1.06566 0.0514,-1.41846 0.03513,-0.35968 0.09426,-0.64654 0.175229,-0.85604 0.08158,-0.2165 0.178907,-0.36012 0.300622,-0.43286 0.121728,-0.0728 0.275283,-0.10797 0.459161,-0.10899 0.226803,-0.003 0.558683,0.1218 0.997622,0.37392 0.444248,0.25126 0.991725,0.52743 1.645849,0.8272 0.653227,0.30358 1.417433,0.58092 2.28658,0.84066 0.86915,0.25967 1.85308,0.384 2.95034,0.37551 0.69529,-0.007 1.30903,-0.0747 1.84757,-0.22383 0.54034,-0.14724 1.00829,-0.35604 1.40312,-0.62352 0.39487,-0.26744 0.6972,-0.60617 0.8988,-1.01602 0.20158,-0.40988 0.29706,-0.88088 0.29422,-1.41133 -0.004,-0.61225 -0.19605,-1.13635 -0.57569,-1.57036 -0.38479,-0.43826 -0.8845,-0.81548 -1.50989,-1.13811 -0.62706,-0.31995 -1.32908,-0.61957 -2.11475,-0.90092 -0.78647,-0.28247 -1.59386,-0.58899 -2.4255,-0.9318 -0.824764,-0.34139 -1.634016,-0.73282 -2.421162,-1.17531 -0.792705,-0.44077 -1.496359,-0.98932 -2.125447,-1.63578 -0.621631,-0.64778 -1.131302,-1.42765 -1.514147,-2.34631 -0.387103,-0.91356 -0.583197,-2.010165 -0.591798,-3.296744 -0.0098,-1.30323 0.235719,-2.503678 0.74274,-3.60102 0.500599,-1.091651 1.228643,-2.029942 2.182933,-2.814198 0.949282,-0.780232 2.116932,-1.38985 3.486981,-1.830358 0.61271,-0.191674 1.26151,-0.345487 1.94001,-0.455746 l -0.0183,-2.551086 3.39691,-0.02363 0.0166,2.368355 c 0.60736,0.01696 1.20472,0.06827 1.79018,0.153519 0.80658,0.115914 1.536,0.26594 2.1893,0.441298 0.65265,0.178177 1.20624,0.379365 1.65397,0.584581 0.44788,0.213436 0.77664,0.391208 0.96919,0.545689 0.19512,0.152015 0.33388,0.301217 0.4123,0.455827 0.0827,0.153554 0.14671,0.335384 0.19277,0.550793 0.0391,0.214795 0.0809,0.479154 0.1109,0.794767 0.0345,0.313621 0.0486,0.707054 0.0526,1.17555 0.005,0.553241 -0.004,0.998395 -0.0351,1.347851 -0.0252,0.347674 -0.0783,0.625792 -0.14752,0.828829 -0.0713,0.198466 -0.16291,0.339317 -0.28442,0.411114 -0.12171,0.07278 -0.26329,0.112415 -0.42946,0.112736 -0.18273,0.0017 -0.4705,-0.106568 -0.85855,-0.314351 -0.38888,-0.213056 -0.87508,-0.441433 -1.45701,-0.678689 -0.58197,-0.23724 -1.25767,-0.465575 -2.02526,-0.675389 -0.76324,-0.210903 -1.636,-0.309451 -2.61368,-0.301879 -0.6953,0.0066 -1.29638,0.08172 -1.80322,0.229569 -0.51262,0.146514 -0.92642,0.354592 -1.24807,0.62262 -0.32888,0.26842 -0.56962,0.578587 -0.72803,0.9383 -0.16432,0.354286 -0.24469,0.742208 -0.23884,1.14496 0.004,0.635622 0.20067,1.16495 0.5965,1.586378 0.38917,0.428071 0.89959,0.798551 1.53703,1.121965 0.63172,0.326143 1.35229,0.624963 2.15929,0.906783 0.80851,0.27533 1.62633,0.58528 2.45169,0.91544 0.82927,0.33103 1.65104,0.71635 2.45969,1.15873 0.80383,0.44126 1.53126,0.9882 2.16398,1.63653 0.63992,0.64795 1.15366,1.42772 1.54517,2.33106 0.39367,0.90284 0.59251,1.97872 0.60342,3.21991 0.009,1.54764 -0.26841,2.919 -0.83838,4.10364 z"
       id="path822"
       style="fill:#000000;stroke-width:0.254117" />
    <path
       d="m 104.47928,8.5942106 c 3.33071,0 6.35811,1.361511 8.54921,3.5524734 0.062,0.07028 0.11852,0.125402 0.17088,0.187413 2.09187,2.181437 3.3817,5.133269 3.3817,8.361891 v 5.953125 c 12.66295,1.958203 24.3279,6.939843 34.2332,14.185543 l 4.21252,-4.21251 c 2.35507,-2.35508 5.45994,-3.53484 8.55627,-3.53484 3.09231,0 6.18878,1.17962 8.54675,3.53484 2.35507,2.35507 3.53342,5.45994 3.53342,8.55627 0,3.09231 -1.17821,6.18878 -3.53342,8.54674 l -4.21252,4.21252 c 7.24429,9.90389 12.22728,21.56919 14.18554,34.23321 h 5.95313 c 3.33072,0 6.35706,1.36151 8.54781,3.55247 0.062,0.0703 0.11575,0.1254 0.17087,0.18741 2.09187,2.18144 3.3817,5.133264 3.3817,8.361884 0,3.3183 -1.36289,6.34577 -3.55953,8.54393 -2.19107,2.19107 -5.21723,3.55388 -8.54781,3.55388 h -5.95312 c -1.9582,12.66296 -6.94126,24.32792 -14.18555,34.23321 l 4.21252,4.21394 c 2.35507,2.35507 3.53342,5.45711 3.53342,8.55627 0,3.09231 -1.1782,6.18878 -3.53342,8.54674 -2.35645,2.35508 -5.4543,3.53343 -8.54534,3.53343 -3.09922,0 -6.20112,-1.17821 -8.55627,-3.53343 l -4.21252,-4.21393 c -9.90529,7.24571 -21.57059,12.22728 -34.2332,14.18555 v 5.95313 c 0,3.33071 -1.36151,6.35705 -3.55388,8.5478 -0.062,0.0703 -0.12541,0.11851 -0.1888,0.17088 -2.18143,2.09187 -5.13327,3.38169 -8.36189,3.38169 -3.33071,0 -6.358108,-1.36151 -8.549208,-3.55247 -0.062,-0.0703 -0.11576,-0.12127 -0.17088,-0.18603 -2.09187,-2.17731 -3.3817,-5.12904 -3.3817,-8.36331 v -5.95312 c -12.66296,-1.9582 -24.32791,-6.94126 -34.2332,-14.18555 l -4.21393,4.21393 c -2.35507,2.35508 -5.45994,3.53342 -8.55627,3.53342 -3.09923,0 -6.20254,-1.1782 -8.55769,-3.53342 -0.0606,-0.0703 -0.11851,-0.12126 -0.17087,-0.18603 -2.2407,-2.33303 -3.36381,-5.35376 -3.36381,-8.37036 0,-3.09922 1.17962,-6.20113 3.53484,-8.55627 l 4.21252,-4.21393 c -7.24571,-9.90389 -12.22728,-21.57061 -14.18555,-34.23322 h -5.95172 c -3.31971,0 -6.34576,-1.36288 -8.54392,-3.55952 -2.19107,-2.19107 -3.5524705,-5.21864 -3.5524705,-8.54922 0,-3.33072 1.3615105,-6.358104 3.5524705,-8.549214 0.0606,-0.0703 0.1254,-0.11713 0.18879,-0.17087 2.18144,-2.09187 5.13327,-3.38169 8.36189,-3.38169 h 5.95313 c 1.9582,-12.66296 6.94125,-24.32791 14.18555,-34.23321 l -4.21252,-4.21252 c -0.0606,-0.0703 -0.11852,-0.12126 -0.17088,-0.18603 -2.24071,-2.33302 -3.36381,-5.35375 -3.36381,-8.37036 0,-3.09643 1.17962,-6.20113 3.53483,-8.55627 2.35522,-2.35514 5.45995,-3.53483 8.55628,-3.53483 3.09231,0 6.18878,1.17962 8.54533,3.53483 l 4.21393,4.21252 c 9.90389,-7.2457 21.56919,-12.22869 34.23321,-14.185548 v -5.953125 c 0,-3.330716 1.36151,-6.358114 3.55247,-8.549216 2.19107,-2.1910684 5.218638,-3.5524734 8.549218,-3.5524734 z m 4.44958,7.6521034 c -1.1424,-1.1424 -2.71885,-1.852083 -4.44958,-1.852083 -1.73073,0 -3.30592,0.711059 -4.44959,1.852083 -1.142398,1.1424 -1.852078,2.718858 -1.852078,4.449586 v 5.276497 c 1.80523,-0.141937 3.626908,-0.225996 5.462408,-0.242535 h 1.67982 c 1.83692,0.03445 3.65725,0.09371 5.46241,0.242535 V 20.6959 c 0,-1.67707 -0.65595,-3.201176 -1.72117,-4.325761 z m 4.53496,15.823852 c -0.0868,0 -0.17088,-0.0345 -0.25494,-0.0345 l -0.16261,-0.0344 -0.39412,-0.0469 h -0.0799 v -0.001 l -0.59807,-0.0703 h -0.0937 c -2.1263,-0.21498 -4.28026,-0.33762 -6.45619,-0.36658 h -1.88239 c -2.17868,0.0345 -4.335278,0.15159 -6.464298,0.36795 h -0.0785 l -0.70005,0.0813 -0.36103,0.0468 c -13.55443,1.58613 -25.97044,6.89716 -36.19853,14.87876 -0.0551,0.0469 -0.11024,0.0937 -0.16812,0.13091 -1.5875,1.24714 -3.12265,2.55901 -4.59987,3.93171 l -0.10749,0.0937 -0.2949,0.27836 c -0.51816,0.49057 -1.03078,0.98806 -1.53927,1.49793 -0.52917,0.52917 -1.04733,1.06384 -1.55582,1.60267 l -0.13643,0.14194 -0.17363,0.18879 c -10.14667,10.92095 -16.97609,24.96715 -18.8945,40.53065 0,0.0937 -0.0289,0.16812 -0.0289,0.24805 l -0.0289,0.18879 -0.0427,0.36103 -0.0758,0.69868 v 0.0813 c -0.21497,2.12908 -0.339,4.285534 -0.36657,6.464294 v 1.88376 c 0.0289,2.17869 0.15021,4.33529 0.36657,6.4643 v 0.0813 l 0.0758,0.69868 0.0427,0.36103 c 1.58613,13.55301 6.89575,25.96903 14.87876,36.19854 0.0469,0.0579 0.0896,0.10473 0.13091,0.16812 1.80386,2.29718 3.74262,4.48274 5.80425,6.54296 l 10e-4,0.001 0.001,-0.001 c 0.66834,0.66834 1.34634,1.32017 2.02985,1.95545 10.90718,10.09685 24.91634,16.89488 40.43539,18.80623 0.0841,0 0.16812,0.0344 0.24942,0.0344 l 0.1888,0.0345 0.36103,0.0469 0.70005,0.0813 h 0.0785 c 2.12908,0.21498 4.285538,0.339 6.464298,0.36795 h 1.88239 c 2.17593,-0.0344 4.33105,-0.15159 6.45618,-0.36657 h 0.0937 l 0.59806,-0.0703 h 0.0896 l 0.38586,-0.0469 c 13.54491,-1.58887 25.95245,-6.89715 36.17384,-14.87593 0.0551,-0.0469 0.11024,-0.0937 0.16812,-0.13091 2.29718,-1.80386 4.48133,-3.74262 6.54297,-5.80425 l 0.001,-0.001 -0.001,-0.001 c 0.52916,-0.52917 1.0487,-1.06384 1.55719,-1.60404 l 0.13643,-0.14194 0.18052,-0.19155 c 10.14519,-10.92094 16.97461,-24.96327 18.89019,-40.52712 0,-0.0937 0.0276,-0.16812 0.0276,-0.24942 l 0.0276,-0.1888 0.0413,-0.36103 0.0758,-0.69868 v -0.0813 c 0.21497,-2.12909 0.339,-4.28555 0.36657,-6.4643 v -1.88377 c -0.0276,-2.17731 -0.15021,-4.329634 -0.3652,-6.456174 v -0.0937 l -0.0758,-0.69455 -0.0413,-0.36103 c -1.58612,-13.55302 -6.89575,-25.97045 -14.87875,-36.19853 -0.0455,-0.0579 -0.0896,-0.10473 -0.13092,-0.16812 -1.24714,-1.5875 -2.55901,-3.12265 -3.9317,-4.59987 l -0.10198,-0.10473 -0.27561,-0.29491 c -0.49057,-0.51674 -0.98943,-1.03078 -1.49793,-1.53927 -0.47819,-0.47819 -0.95913,-0.94672 -1.44557,-1.40836 l -0.42305,-0.39963 -0.0276,-0.0344 c -10.9305,-10.17061 -24.99081,-17.01802 -40.58006,-18.93925 z m -1.58612,-0.17639 c -1.00323,-0.0937 -1.99263,-0.18604 -2.96831,-0.24392 m -3.58987,-5.921373 c 1.27194,0.03445 2.58382,0.07028 3.9303,0.144695 z m 11.26279,23.455493 v 25.88648 l 18.30034,-18.30035 c -5.51779,-3.5373 -11.69282,-6.14045 -18.30034,-7.58472 z m -5.80002,26.29147 v -27.24397 c -2.06844,-0.22876 -4.17125,-0.34865 -6.30167,-0.34865 -2.13046,0 -4.23334,0.11852 -6.303078,0.34865 v 27.24397 c 1.4745,-0.31971 2.990348,-0.53192 4.539188,-0.62149 h 0.50849 l 0.0441,-10e-4 h 0.77721 l 0.0703,-0.001 0.36519,-0.003 0.3652,0.003 0.0689,0.001 h 0.77308 l 0.0524,0.003 h 0.49608 c 1.5489,0.0937 3.06751,0.30041 4.54342,0.62286 z m 1.92098,6.59271 -0.0413,-0.0344 c -2.09325,-0.77033 -4.32576,-1.25402 -6.64775,-1.40286 l -0.0276,-0.001 c -0.19706,0 -0.39412,-0.0344 -0.58981,-0.0344 h -0.27285 l -0.0579,-10e-4 h -0.20257 l -0.13367,-0.001 -0.24116,-0.001 -0.24115,0.001 -0.13367,0.001 h -0.20257 l -0.0579,10e-4 h -0.27285 c -0.19982,0 -0.39825,0.0344 -0.59532,0.0344 v 0.001 c -2.97381,0.18741 -5.800008,0.92879 -8.375648,2.11529 h -0.0276 c -1.49793,0.69176 -2.91041,1.53515 -4.21957,2.51079 l -0.0717,0.0579 -0.11851,0.0937 -0.13367,0.10473 -0.0868,0.0703 -0.0937,0.0813 -0.1447,0.11714 -0.10748,0.0937 c -0.64079,0.52091 -1.25402,1.0735 -1.83829,1.65914 -0.57327,0.57327 -1.11623,1.17408 -1.62747,1.80111 l -0.0455,0.0579 -0.062,0.0813 -0.1447,0.17915 -0.0289,0.0345 -0.11575,0.15158 -0.0785,0.0937 -0.11851,0.15572 -0.0496,0.0703 c -1.33255,1.79144 -2.41984,3.78001 -3.20946,5.91044 l -0.0289,0.0468 c -0.77033,2.09462 -1.2554,4.329634 -1.40286,6.654444 l -0.001,0.0345 c 0,0.19705 -0.0276,0.3955 -0.0276,0.59393 v 0.27286 l -10e-4,0.0579 v 0.20257 l -0.001,0.13367 -0.001,0.24115 0.001,0.24116 0.001,0.13367 v 0.20671 l 10e-4,0.0579 v 0.28112 c 0.11851,3.17775 0.86678,6.19548 2.1208,8.93374 l 0.0634,0.13643 c 0.67387,1.44832 1.48967,2.81671 2.42947,4.08728 l 0.10749,0.14469 0.0896,0.11852 c 0.64767,0.84885 1.35185,1.65364 2.10704,2.4088 0.77032,0.77032 1.59163,1.48689 2.45844,2.14559 l 0.003,0.001 0.2384,0.17639 c 1.75701,1.29674 3.69994,2.35507 5.78097,3.12953 l 0.13091,0.0579 c 2.08221,0.76207 4.300718,1.23885 6.608938,1.38631 l 0.0289,10e-4 c 0.19706,0 0.3955,0.0345 0.59394,0.0345 h 0.27285 l 0.0579,0.001 h 0.20257 l 0.13367,10e-4 0.24116,0.001 0.24115,-0.001 0.13367,-10e-4 h 0.20258 l 0.0579,-0.001 h 0.27285 c 0.19982,0 0.39826,-0.0345 0.59532,-0.0345 v -10e-4 c 2.95314,-0.18603 5.76015,-0.91641 8.32202,-2.09049 l 0.13643,-0.0703 c 1.39732,-0.65045 2.72161,-1.43316 3.95499,-2.33165 l 0.16261,-0.11851 c 0.93292,-0.69592 1.81624,-1.45796 2.63896,-2.28064 0.7028,-0.7028 1.36151,-1.44695 1.97058,-2.23103 l 0.0317,-0.0469 0.27561,-0.36378 c 1.3298,-1.79144 2.41293,-3.77578 3.19842,-5.90479 h 0.001 c 0.77583,-2.1015 1.26228,-4.34094 1.41111,-6.67527 l 0.001,-0.0345 c 0,-0.19705 0.0276,-0.39549 0.0276,-0.59393 v -0.27285 l 0.001,-0.0703 v -0.20257 l 0.001,-0.13367 10e-4,-0.24116 -10e-4,-0.24116 -0.001,-0.13367 v -0.20257 l -0.001,-0.0579 v -0.27285 c 0,-0.20119 -0.0276,-0.39688 -0.0276,-0.59394 l -0.001,-0.0344 c -0.19154,-2.973804 -0.92879,-5.798954 -2.11529,-8.375644 v -0.0344 c -0.69176,-1.49793 -1.53515,-2.91041 -2.51079,-4.21957 l -0.0551,-0.0813 -0.0896,-0.11851 -0.10336,-0.13368 -0.0661,-0.0937 -0.0717,-0.0937 -0.113,-0.14469 -0.0868,-0.10473 c -0.52091,-0.64216 -1.0735,-1.2554 -1.65777,-1.83967 -0.52092,-0.52091 -1.06384,-1.01561 -1.62885,-1.48688 l -0.15985,-0.13092 -0.0579,-0.0469 -0.0758,-0.0703 -0.17914,-0.14469 h -0.0276 c -1.91411,-1.48968 -4.06788,-2.70373 -6.39128,-3.56376 z m -20.324588,-6.99911 v -25.88648 c -6.60647,1.44557 -12.78255,4.04883 -18.30035,7.58472 z M 102.4205,42.117476 h 1.18512 l 0.19155,-0.003 h 1.36426 l 0.19155,0.003 h 1.18512 c 16.35725,0.53192 31.11747,7.38082 41.92411,18.18464 10.80382,10.80382 17.65124,25.56686 18.18464,41.924104 v 1.18512 l 0.003,0.19155 v 1.36151 l -0.003,0.19155 v 1.1865 c -0.53192,16.35724 -7.38082,31.11888 -18.18464,41.92412 -10.80523,10.80382 -25.56686,17.65123 -41.92411,18.18463 h -1.18512 l -0.19155,0.003 h -1.36563 l -0.1888,-0.003 h -1.19613 C 86.057862,165.91653 71.299052,159.06898 60.493822,148.26657 49.690002,137.46274 42.842582,122.69969 42.310592,106.34245 v -1.1865 l -0.003,-0.19155 v -1.36151 l 0.003,-0.19155 v -1.18512 c 0.53192,-16.357244 7.38082,-31.118874 18.18323,-41.924104 10.80523,-10.80382 25.56686,-17.65124 41.924108,-18.18464 z m 37.23922,18.07563 -19.26625,19.26484 c 1.78731,1.14653 3.44096,2.48187 4.93607,3.97687 1.49518,1.49518 2.8291,3.1502 3.97686,4.93606 l 19.26625,-19.26625 c -1.31466,-1.64539 -2.72023,-3.21634 -4.20863,-4.70605 -1.4883,-1.4883 -3.05926,-2.89387 -4.70606,-4.20864 z m 12.33911,13.68954 -18.30034,18.30035 h 25.88506 c -1.44557,-6.60753 -4.04741,-12.78255 -7.58472,-18.30035 z m 8.53828,24.09896 h -27.24502 c 0.32108,1.47726 0.53191,2.995854 0.62148,4.546244 v 0.50712 l 0.001,0.0469 v 0.77858 l 0.001,0.0703 0.003,0.36657 -0.003,0.36657 -0.001,0.0703 v 0.7717 l -0.003,0.0579 v 0.51675 c -0.0896,1.54753 -0.30179,3.062 -0.62287,4.53637 h 27.24503 c 0.22875,-2.06844 0.34864,-4.17266 0.34864,-6.30309 0,-2.13042 -0.11851,-4.23332 -0.34864,-6.303074 z m -0.95359,18.405114 h -25.88507 l 18.30035,18.30035 c 3.5373,-5.5178 6.14045,-11.69282 7.58472,-18.30035 z m -11.00914,23.0752 -19.26625,-19.26626 c -1.1479,1.78594 -2.48324,3.44096 -3.97686,4.93607 -1.49518,1.49518 -3.1502,2.83048 -4.93607,3.97686 l 19.26625,19.26627 c 0.74828,-0.59807 1.48139,-1.21543 2.19936,-1.85071 0.85164,-0.75653 1.6867,-1.54478 2.50391,-2.36195 0.71381,-0.71244 1.40423,-1.44142 2.07257,-2.18144 l 0.2384,-0.2632 0.0276,-0.0345 c 0.64491,-0.72622 1.27194,-1.47175 1.87964,-2.23104 z m -13.68954,12.33911 -18.30035,-18.30176 v 25.88649 c 6.60753,-1.44421 12.78255,-4.04742 18.30035,-7.58473 z m -24.10037,8.53828 v -27.24397 c -1.47175,0.3197 -2.98481,0.53054 -4.52966,0.62148 h -0.50987 l -0.0551,0.003 h -0.77033 l -0.0689,0.001 -0.3652,0.003 -0.36519,-0.003 -0.0703,-0.001 h -0.77721 l -0.0441,-0.001 h -0.50712 c -1.54753,-0.0937 -3.064758,-0.30041 -4.539188,-0.62149 v 27.24398 c 2.068438,0.22876 4.172648,0.34865 6.303078,0.34865 2.13046,0 4.23333,-0.11852 6.30167,-0.34865 z m -18.403708,-0.95359 v -25.88649 l -18.30034,18.30036 c 5.51779,3.5373 11.69282,6.13904 18.30034,7.58472 z m -23.07519,-11.00913 19.26625,-19.26627 c -1.78731,-1.1479 -3.44233,-2.48324 -4.93606,-3.97686 -1.49518,-1.49518 -2.82911,-3.1502 -3.97687,-4.93607 l -19.26625,19.26625 c 0.59806,0.74829 1.21542,1.4814 1.8507,2.19937 0.75654,0.85302 1.54478,1.68811 2.36196,2.50391 0.71381,0.71244 1.44141,1.40424 2.18143,2.07257 l 0.26459,0.2384 0.0276,0.0344 c 0.72623,0.64492 1.47175,1.27194 2.23103,1.87964 z m -12.33911,-13.68956 18.30035,-18.30034 h -25.88648 c 1.44557,6.60752 4.04742,12.78255 7.58472,18.30034 z m -8.53828,-24.09895 h 27.24503 c -0.2949,-1.35322 -0.49608,-2.73953 -0.59807,-4.15467 v -0.1254 l -0.0289,-0.2384 v -0.51262 l -0.003,-0.0703 v -0.18328 c 0,-0.33762 -0.0276,-0.67938 -0.0276,-1.01974 l 0.003,-0.36657 0.001,-0.0703 v -0.7772 l 10e-4,-0.0468 v -0.50712 c 0.0896,-1.55166 0.30041,-3.068874 0.62287,-4.546244 h -27.24402 c -0.22875,2.068444 -0.34864,4.172654 -0.34864,6.303074 0,2.13046 0.11851,4.23333 0.34864,6.30308 z m 0.95359,-18.405114 h 25.88507 l -18.30035,-18.30035 c -3.5373,5.5178 -6.14045,11.69282 -7.58472,18.30035 z m 25.66882,10.346254 c 0.0661,-1.15894 0.20533,-2.29992 0.40513,-3.424404 z m -14.65968,-33.421454 19.26625,19.26625 c 1.14791,-1.78731 2.48324,-3.44233 3.97687,-4.93606 1.49517,-1.4938 3.1502,-2.83048 4.93606,-3.97687 l -19.26625,-19.26484 c -1.64677,1.31466 -3.21772,2.71886 -4.70606,4.20864 -1.4883,1.4883 -2.89387,3.05925 -4.20864,4.70606 z m 98.738968,-28.38485 -3.73309,3.73309 c 1.60267,1.36427 3.14882,2.79192 4.63585,4.27885 1.48703,1.48692 2.91454,3.03445 4.27884,4.63585 l 3.7331,-3.73169 c 1.21817,-1.2223 1.82866,-2.84014 1.82866,-4.46334 0,-1.6178 -0.61186,-3.23427 -1.83417,-4.45664 -1.2223,-1.21818 -2.84152,-1.82866 -4.46334,-1.82866 -1.6178,0 -3.23427,0.61186 -4.45664,1.83416 z m 28.94013,57.25936 h -5.2765 c 0.14194,1.80386 0.226,3.626904 0.24391,5.462404 v 1.67982 c -0.0276,1.83554 -0.10197,3.65866 -0.24391,5.46241 h 5.2765 c 1.7308,0 3.30591,-0.71106 4.44817,-1.85346 1.13552,-1.13689 1.84245,-2.7106 1.84245,-4.44958 0,-1.67707 -0.65733,-3.20118 -1.72254,-4.325754 l -0.13091,-0.1254 c -1.1424,-1.14378 -2.71886,-1.85346 -4.44818,-1.85346 z m -5.03132,7.142334 c -0.0276,1.27194 -0.0634,2.58381 -0.14469,3.9303 z m -14.99447,53.8092 -3.73309,-3.73309 c -1.36426,1.60129 -2.79192,3.14882 -4.27884,4.63585 -1.48693,1.48703 -3.03446,2.91455 -4.63585,4.27884 l 3.73309,3.7331 c 1.2223,1.2223 2.83877,1.83416 4.45664,1.83416 1.62197,0 3.24115,-0.61048 4.46335,-1.82866 1.21817,-1.2223 1.82728,-2.84014 1.82728,-4.46334 0,-1.61781 -0.61186,-3.23427 -1.83416,-4.45665 z m -57.25936,28.93872 v -5.2765 c -1.80523,0.14194 -3.62549,0.226 -5.46241,0.24253 h -1.67982 c -1.83554,-0.0344 -3.660068,-0.0937 -5.462408,-0.24253 v 5.2765 c 0,1.67156 0.65733,3.19842 1.72529,4.32964 l 0.128158,0.11851 c 1.1424,1.1424 2.71886,1.85208 4.44959,1.85208 1.67707,0 3.20117,-0.65733 4.32576,-1.72254 l 0.1254,-0.13091 c 1.1424,-1.1424 1.85346,-2.71886 1.85346,-4.44818 z m -7.14234,-5.03132 c -1.27194,-0.0344 -2.58381,-0.0703 -3.930288,-0.1447 z m -53.809188,-14.99447 3.73309,-3.73309 c -1.60267,-1.36426 -3.14882,-2.79192 -4.63585,-4.27884 -1.48689,-1.48689 -2.91454,-3.03446 -4.27884,-4.63586 l -3.7331,3.7331 c -1.2223,1.2223 -1.83416,2.83877 -1.83416,4.45664 0,1.5682 0.57051,3.13366 1.71016,4.33952 l 0.1254,0.11851 c 1.22231,1.22231 2.84015,1.83416 4.45806,1.83416 1.6178,0 3.23426,-0.61185 4.45664,-1.83416 z m -28.93872,-57.25937 h 5.2765 c -0.14194,-1.80386 -0.22599,-3.62691 -0.24391,-5.46241 v -1.6812 c 0.0289,-1.83691 0.10197,-3.660064 0.24391,-5.462404 h -5.2765 c -1.67707,0 -3.20117,0.65733 -4.32576,1.72255 l -0.1254,0.13091 c -1.1424,1.142394 -1.85346,2.718854 -1.85346,4.449574 0,1.72943 0.71106,3.30592 1.85346,4.44818 1.13552,1.1369 2.7106,1.84245 4.44959,1.84245 z m 5.03132,-7.14234 c 0.0289,-1.27194 0.0648,-2.58519 0.1447,-3.930284 z m 14.99447,-53.809184 3.73309,3.73168 c 1.36426,-1.60129 2.79192,-3.14882 4.27884,-4.63585 1.48689,-1.48689 3.03308,-2.91454 4.63586,-4.27884 l -3.7331,-3.7331 c -1.2223,-1.21817 -2.84014,-1.82865 -4.46334,-1.82865 -1.61781,0 -3.23427,0.61185 -4.45664,1.83416 -1.22238,1.2223 -1.83417,2.83876 -1.83417,4.45664 0,1.5682 0.57052,3.13365 1.71016,4.33952 z"
       fill-rule="evenodd"
       id="path1200"
       style="stroke-width:0.352778;fill:#000000" />
  </g>
</svg>
