<?xml version="1.0" encoding="UTF-8" standalone="no"?>
<!-- Created with Inkscape (http://www.inkscape.org/) -->

<svg
   width="26.458332mm"
   height="26.236778mm"
   viewBox="0 0 26.458332 26.236778"
   version="1.1"
   id="svg5"
   inkscape:version="1.1.2 (0a00cf5339, 2022-02-04)"
   sodipodi:docname="pirate_skull.svg"
   xmlns:inkscape="http://www.inkscape.org/namespaces/inkscape"
   xmlns:sodipodi="http://sodipodi.sourceforge.net/DTD/sodipodi-0.dtd"
   xmlns="http://www.w3.org/2000/svg"
   xmlns:svg="http://www.w3.org/2000/svg">
  <sodipodi:namedview
     id="namedview7"
     pagecolor="#ffffff"
     bordercolor="#999999"
     borderopacity="1"
     inkscape:pageshadow="0"
     inkscape:pageopacity="0"
     inkscape:pagecheckerboard="false"
     inkscape:document-units="mm"
     showgrid="false"
     inkscape:snap-nodes="true"
     inkscape:snap-grids="true"
     inkscape:snap-to-guides="true"
     inkscape:zoom="0.64052329"
     inkscape:cx="43.714257"
     inkscape:cy="540.18332"
     inkscape:window-width="1920"
     inkscape:window-height="1011"
     inkscape:window-x="0"
     inkscape:window-y="1112"
     inkscape:window-maximized="0"
     inkscape:current-layer="layer1"
     fit-margin-top="0"
     fit-margin-left="0"
     fit-margin-right="0"
     fit-margin-bottom="0" />
  <defs
     id="defs2">
    <symbol
       id="l"
       overflow="visible">
      <path
         d="m 37.516,-2.25 c -1.9297,1.0117 -3.9453,1.7734 -6.0469,2.2812 -2.0938,0.50781 -4.2812,0.76562 -6.5625,0.76562 -6.793,0 -12.18,-1.8984 -16.156,-5.7031 -3.9688,-3.8008 -5.9531,-8.957 -5.9531,-15.469 0,-6.5195 1.9844,-11.68 5.9531,-15.484 3.9766,-3.8008 9.3633,-5.7031 16.156,-5.7031 2.2812,0 4.4688,0.25781 6.5625,0.76562 2.1016,0.51172 4.1172,1.2656 6.0469,2.2656 v 8.4531 c -1.9492,-1.332 -3.8711,-2.3047 -5.7656,-2.9219 -1.8984,-0.625 -3.8906,-0.9375 -5.9844,-0.9375 -3.7617,0 -6.7188,1.2031 -8.875,3.6094 -2.1484,2.4062 -3.2188,5.7266 -3.2188,9.9531 0,4.2109 1.0703,7.5156 3.2188,9.9219 2.1562,2.4062 5.1133,3.6094 8.875,3.6094 2.0938,0 4.0859,-0.30469 5.9844,-0.92188 1.8945,-0.625 3.8164,-1.5977 5.7656,-2.9219 z"
         id="path129" />
    </symbol>
    <symbol
       id="d"
       overflow="visible">
      <path
         d="m 27.453,-22.281 c -0.85547,-0.40625 -1.7109,-0.70312 -2.5625,-0.89062 -0.84375,-0.19531 -1.6953,-0.29688 -2.5469,-0.29688 -2.5234,0 -4.4609,0.80859 -5.8125,2.4219 -1.3555,1.6172 -2.0312,3.9297 -2.0312,6.9375 V -10e-5 H 4.703 v -30.625 h 9.7969 v 5.0312 c 1.25,-2.0078 2.6914,-3.4727 4.3281,-4.3906 1.6328,-0.91406 3.5859,-1.375 5.8594,-1.375 0.33203,0 0.6875,0.01563 1.0625,0.04687 0.38281,0.02344 0.94141,0.07813 1.6719,0.17188 z"
         id="path132" />
    </symbol>
    <symbol
       id="c"
       overflow="visible">
      <path
         d="m 35.281,-15.391 v 2.7812 H 12.39 c 0.23828,2.3047 1.0664,4.0273 2.4844,5.1719 1.4258,1.1484 3.4141,1.7188 5.9688,1.7188 2.0508,0 4.1562,-0.30078 6.3125,-0.90625 2.1641,-0.61328 4.3906,-1.5391 6.6719,-2.7812 v 7.5469 c -2.3125,0.875 -4.6328,1.5391 -6.9531,1.9844 -2.3125,0.44531 -4.625,0.67188 -6.9375,0.67188 -5.543,0 -9.8516,-1.4062 -12.922,-4.2188 -3.0742,-2.8203 -4.6094,-6.7734 -4.6094,-11.859 0,-5 1.5039,-8.9258 4.5156,-11.781 3.0195,-2.8633 7.1758,-4.2969 12.469,-4.2969 4.8125,0 8.6602,1.4492 11.547,4.3438 2.8945,2.8984 4.3438,6.7734 4.3438,11.625 z m -10.062,-3.2656 c 0,-1.8516 -0.54688,-3.3477 -1.6406,-4.4844 -1.0859,-1.1445 -2.5,-1.7188 -4.25,-1.7188 -1.8984,0 -3.4375,0.53906 -4.625,1.6094 -1.1797,1.0625 -1.9141,2.5938 -2.2031,4.5938 z"
         id="path135" />
    </symbol>
    <symbol
       id="h"
       overflow="visible">
      <path
         d="m 18.438,-13.781 c -2.043,0 -3.5781,0.35156 -4.6094,1.0469 -1.0312,0.6875 -1.5469,1.7031 -1.5469,3.0469 0,1.2422 0.41016,2.2148 1.2344,2.9219 0.83203,0.69922 1.9883,1.0469 3.4688,1.0469 1.8438,0 3.3906,-0.66016 4.6406,-1.9844 1.2578,-1.3203 1.8906,-2.9727 1.8906,-4.9531 v -1.125 z m 14.953,-3.6875 V 5e-4 h -9.875 v -4.5469 c -1.3125,1.8672 -2.793,3.2266 -4.4375,4.0781 -1.6367,0.84375 -3.6328,1.2656 -5.9844,1.2656 -3.168,0 -5.7422,-0.92578 -7.7188,-2.7812 -1.9805,-1.8516 -2.9688,-4.2539 -2.9688,-7.2031 0,-3.5938 1.2344,-6.2266 3.7031,-7.9062 2.4688,-1.6758 6.3477,-2.5156 11.641,-2.5156 h 5.7656 v -0.76562 c 0,-1.5508 -0.60938,-2.6875 -1.8281,-3.4062 -1.21872,-0.7187 -3.125,-1.0781 -5.7188,-1.0781 -2.0938,0 -4.0469,0.21484 -5.8594,0.64062 -1.8047,0.41797 -3.4766,1.043 -5.0156,1.875 v -7.4688 c 2.0938,-0.50781 4.1953,-0.89453 6.3125,-1.1562 2.1133,-0.25781 4.2266,-0.39062 6.3438,-0.39062 5.5195,0 9.5039,1.0898 11.953,3.2656 2.457,2.1797 3.6875,5.7188 3.6875,10.625 z"
         id="path138" />
    </symbol>
    <symbol
       id="g"
       overflow="visible">
      <path
         d="m 15.391,-39.328 v 8.7031 h 10.094 v 7 H 15.391 v 12.984 c 0,1.4297 0.28125,2.3906 0.84375,2.8906 0.57031,0.5 1.6953,0.75 3.375,0.75 h 5.0312 v 7 h -8.3906 c -3.8672,0 -6.6055,-0.80469 -8.2188,-2.4219 -1.6172,-1.6133 -2.4219,-4.3516 -2.4219,-8.2188 v -12.984 h -4.875 v -7 h 4.875 v -8.7031 z"
         id="path141" />
    </symbol>
    <symbol
       id="f"
       overflow="visible">
      <path
         d="m 25.547,-26.141 v -16.406 h 9.8438 V 0 H 25.547 v -4.4375 c -1.3555,1.8125 -2.8438,3.1406 -4.4688,3.9844 -1.6172,0.83203 -3.4922,1.25 -5.625,1.25 -3.7734,0 -6.8711,-1.5 -9.2969,-4.5 -2.4297,-3 -3.6406,-6.8594 -3.6406,-11.578 0,-4.7266 1.2109,-8.5859 3.6406,-11.578 2.4258,-3 5.5234,-4.5 9.2969,-4.5 2.1133,0 3.9844,0.42188 5.6094,1.2656 1.6328,0.84375 3.1289,2.1641 4.4844,3.9531 z m -6.4531,19.828 c 2.0938,0 3.6914,-0.76562 4.7969,-2.2969 1.1016,-1.5312 1.6562,-3.7539 1.6562,-6.6719 0,-2.9141 -0.55469,-5.1406 -1.6562,-6.6719 -1.1055,-1.5312 -2.7031,-2.2969 -4.7969,-2.2969 -2.0859,0 -3.6797,0.76562 -4.7812,2.2969 -1.1055,1.5312 -1.6562,3.7578 -1.6562,6.6719 0,2.918 0.55078,5.1406 1.6562,6.6719 1.1016,1.5312 2.6953,2.2969 4.7812,2.2969 z"
         id="path144" />
    </symbol>
    <symbol
       id="b"
       overflow="visible">
      <path
         d="m 21,-6.3125 c 2.0938,0 3.6914,-0.76562 4.7969,-2.2969 1.1016,-1.5312 1.6562,-3.7539 1.6562,-6.6719 0,-2.9141 -0.55469,-5.1406 -1.6562,-6.6719 -1.1055,-1.5312 -2.7031,-2.2969 -4.7969,-2.2969 -2.0938,0 -3.7031,0.77344 -4.8281,2.3125 -1.1172,1.5312 -1.6719,3.75 -1.6719,6.6562 0,2.8984 0.55469,5.1172 1.6719,6.6562 1.125,1.543 2.7344,2.3125 4.8281,2.3125 z m -6.5,-19.828 c 1.3438,-1.7891 2.832,-3.1094 4.4688,-3.9531 1.6445,-0.84375 3.5352,-1.2656 5.6719,-1.2656 3.7695,0 6.8672,1.5 9.2969,4.5 2.4258,2.9922 3.6406,6.8516 3.6406,11.578 0,4.7188 -1.2148,8.5781 -3.6406,11.578 -2.4297,3 -5.5273,4.5 -9.2969,4.5 -2.1367,0 -4.0273,-0.42188 -5.6719,-1.2656 C 17.3321,-1.32036 15.8438,-2.6446 14.5,-4.4376 V -10e-5 H 4.7031 v -42.547 H 14.5 Z"
         id="path147" />
    </symbol>
    <symbol
       id="a"
       overflow="visible">
      <path
         d="m 0.6875,-30.625 h 9.7812 l 8.2344,20.781 7,-20.781 H 35.5 L 22.609,2.906 c -1.293,3.4062 -2.8047,5.7852 -4.5312,7.1406 -1.7188,1.3633 -3.9922,2.0469 -6.8125,2.0469 H 5.6091 V 5.656 h 3.0625 c 1.6562,0 2.8594,-0.26562 3.6094,-0.79688 0.75781,-0.52344 1.3516,-1.4648 1.7812,-2.8281 l 0.26562,-0.85938 z"
         id="path150" />
    </symbol>
    <symbol
       id="e"
       overflow="visible">
      <path
         d="m 5.1406,-40.828 h 17.469 c 5.1953,0 9.1875,1.1562 11.969,3.4688 2.7812,2.3047 4.1719,5.5859 4.1719,9.8438 0,4.293 -1.3906,7.5898 -4.1719,9.8906 -2.7812,2.3047 -6.7734,3.4531 -11.969,3.4531 H 15.6721 V 3e-4 H 5.1411 Z m 10.531,7.625 v 11.406 h 5.8281 c 2.0391,0 3.6133,-0.49219 4.7188,-1.4844 1.1133,-1 1.6719,-2.4102 1.6719,-4.2344 0,-1.8203 -0.55859,-3.2227 -1.6719,-4.2031 -1.1055,-0.98828 -2.6797,-1.4844 -4.7188,-1.4844 z"
         id="path153" />
    </symbol>
    <symbol
       id="k"
       overflow="visible">
      <path
         d="m 19.281,-24.359 c -2.168,0 -3.8242,0.78125 -4.9688,2.3438 -1.1367,1.5547 -1.7031,3.7969 -1.7031,6.7344 0,2.9297 0.56641,5.1719 1.7031,6.7344 1.1445,1.5625 2.8008,2.3438 4.9688,2.3438 2.1328,0 3.7656,-0.78125 4.8906,-2.3438 1.1328,-1.5625 1.7031,-3.8047 1.7031,-6.7344 0,-2.9375 -0.57031,-5.1797 -1.7031,-6.7344 -1.125,-1.5625 -2.7578,-2.3438 -4.8906,-2.3438 z m 0,-7 c 5.2695,0 9.3828,1.4219 12.344,4.2656 2.957,2.8438 4.4375,6.7812 4.4375,11.812 0,5.0308 -1.4805,8.9688 -4.4375,11.812 -2.9609,2.8438 -7.0742,4.2656 -12.344,4.2656 -5.293,0 -9.4297,-1.4219 -12.406,-4.2656 -2.9805,-2.8438 -4.4688,-6.7812 -4.4688,-11.812 0,-5.0308 1.4883,-8.9688 4.4688,-11.812 2.9766,-2.8438 7.1133,-4.2656 12.406,-4.2656 z"
         id="path156" />
    </symbol>
    <symbol
       id="j"
       overflow="visible">
      <path
         d="m 33.547,-39.547 v 8.6406 c -2.2422,-1 -4.4297,-1.7539 -6.5625,-2.2656 -2.125,-0.50781 -4.1367,-0.76562 -6.0312,-0.76562 -2.5234,0 -4.3867,0.35156 -5.5938,1.0469 -1.1992,0.6875 -1.7969,1.7617 -1.7969,3.2188 0,1.0938 0.40625,1.9492 1.2188,2.5625 0.8125,0.60547 2.2852,1.125 4.4219,1.5625 l 4.4844,0.90625 c 4.5312,0.91797 7.7539,2.3086 9.6719,4.1719 1.9141,1.8555 2.875,4.4961 2.875,7.9219 0,4.5 -1.3398,7.8516 -4.0156,10.047 -2.668,2.1992 -6.7461,3.2969 -12.234,3.2969 -2.5859,0 -5.1836,-0.25 -7.7969,-0.75 -2.6055,-0.48828 -5.2109,-1.2188 -7.8125,-2.1875 v -8.875 c 2.6016,1.3867 5.125,2.4297 7.5625,3.125 2.4375,0.69922 4.7852,1.0469 7.0469,1.0469 2.2891,0 4.0469,-0.37891 5.2656,-1.1406 1.2266,-0.76953 1.8438,-1.8633 1.8438,-3.2812 0,-1.2812 -0.41797,-2.2656 -1.25,-2.9531 -0.83594,-0.69531 -2.4922,-1.3164 -4.9688,-1.8594 l -4.0625,-0.90625 c -4.0859,-0.875 -7.0742,-2.2656 -8.9688,-4.1719 -1.8867,-1.9141 -2.8281,-4.5 -2.8281,-7.75 0,-4.0625 1.3125,-7.1875 3.9375,-9.375 2.625,-2.1875 6.3984,-3.2812 11.328,-3.2812 2.2383,0 4.5391,0.17188 6.9062,0.51562 2.375,0.33594 4.8281,0.83594 7.3594,1.5 z"
         id="path159" />
    </symbol>
    <symbol
       id="i"
       overflow="visible">
      <path
         d="m 33.094,-25.547 c 1.2383,-1.8945 2.707,-3.3359 4.4062,-4.3281 1.707,-0.98828 3.582,-1.4844 5.625,-1.4844 3.5195,0 6.1953,1.0859 8.0312,3.25 1.8438,2.168 2.7656,5.3203 2.7656,9.4531 V -4e-4 h -9.8438 v -15.969 c 0.01953,-0.23828 0.03516,-0.48438 0.04687,-0.73438 0.0078,-0.25781 0.01563,-0.625 0.01563,-1.0938 0,-2.1758 -0.32422,-3.75 -0.96875,-4.7188 -0.63672,-0.97656 -1.6641,-1.4688 -3.0781,-1.4688 -1.8672,0 -3.3047,0.76562 -4.3125,2.2969 -1.0117,1.5312 -1.5391,3.7461 -1.5781,6.6406 v 15.047 h -9.8438 v -15.969 c 0,-3.3945 -0.29297,-5.5781 -0.875,-6.5469 -0.58594,-0.97656 -1.6211,-1.4688 -3.1094,-1.4688 -1.875,0 -3.3242,0.77344 -4.3438,2.3125 -1.0234,1.543 -1.5312,3.7461 -1.5312,6.6094 v 15.062 h -9.8438 v -30.625 h 9.8438 v 4.4844 c 1.1953,-1.7266 2.5703,-3.0312 4.125,-3.9062 1.5625,-0.875 3.2852,-1.3125 5.1719,-1.3125 2.1133,0 3.9766,0.51172 5.5938,1.5312 1.625,1.0234 2.8594,2.4492 3.7031,4.2812 z"
         id="path162" />
    </symbol>
  </defs>
  <g
     inkscape:label="Layer 1"
     inkscape:groupmode="layer"
     id="layer1"
     transform="translate(-5.2916664,-5.2916668)">
    <g
       id="g408"
       transform="matrix(0.13834181,0,0,0.13834181,2.899816,-1.2040348)">
      <path
         d="m 36.154321,189.33764 c -4.350456,-3.16258 -14.99729,1.87826 -16.949915,5.96547 -2.133212,4.46476 2.60724,8.02005 5.846939,9.83792 3.27974,1.85758 5.136092,5.65009 6.20395,8.45573 0.98806,2.80567 1.739089,2.80567 4.93889,2.92421 3.279739,0.04 9.522178,-5.76862 13.986933,-12.80195 3.002739,-4.70183 12.366625,-11.97258 18.214975,-16.20027 -3.990622,-1.62059 -8.02005,-3.59515 -11.299825,-5.88715 -12.866864,8.11953 -15.746942,11.44199 -20.941947,7.70608 z"
         id="path167"
         style="fill:#000000;stroke-width:0.352778" />
      <path
         d="m 184.23985,81.235944 c 2.68718,-1.265026 5.53155,0.158475 6.79661,1.066588 1.30362,0.94809 2.17319,0.552591 3.59516,1.066588 1.42212,0.552592 11.26137,-2.568645 13.39462,-7.033683 2.09462,-4.464755 -2.64721,-8.02005 -5.88715,-9.877778 -3.23977,-1.817617 -5.1361,-5.650089 -6.16409,-8.415514 -1.02665,-2.805677 -1.73909,-2.805677 -4.97875,-2.92421 -3.27974,-0.03996 -9.52218,5.768622 -13.98694,12.801953 -0.78962,1.225091 -1.97612,2.647209 -3.4768,4.109155 2.72578,3.516772 5.13609,7.349067 7.15187,11.340042 1.81624,-1.105182 3.0813,-1.89618 3.55529,-2.133212 z"
         id="path169"
         style="fill:#000000;stroke-width:0.352778" />
      <path
         d="m 194.39632,188.23345 c -1.38356,0.55259 -2.29168,0.15847 -3.59516,1.10655 -1.26502,0.90813 -4.10915,2.33165 -6.7564,1.02666 -1.22509,-0.59256 -7.74453,-4.70182 -14.46107,-8.96973 -3.43683,1.14515 -8.21866,3.04271 -12.72187,4.90044 5.53156,3.95076 16.59432,12.20928 19.91396,17.42404 4.46475,7.03369 10.70751,12.84041 13.98693,12.80196 3.23977,-0.11852 3.99062,-0.11852 4.97875,-2.92421 1.02666,-2.80568 2.92421,-6.59801 6.20395,-8.45573 3.1998,-1.81762 7.9816,-5.37281 5.84694,-9.83792 -2.13596,-4.46334 -11.97363,-7.58613 -13.39603,-7.07213 z"
         id="path171"
         style="fill:#000000;stroke-width:0.352778" />
      <path
         d="m 34.771432,82.301333 c 1.30362,-0.908121 4.109156,-2.33165 6.796617,-1.066589 0.552591,0.276987 2.213116,1.265026 4.464755,2.64721 1.936151,-3.950759 4.227689,-7.664803 6.91515,-11.181292 -1.777682,-1.739089 -3.23977,-3.358268 -4.149372,-4.780492 -4.464756,-7.033683 -10.707511,-12.840406 -13.986933,-12.801953 -3.199801,0.118512 -3.950759,0.118512 -4.93889,2.924211 -1.066588,2.765707 -2.92421,6.598002 -6.202539,8.415513 -3.23977,1.857587 -7.981597,5.413023 -5.846939,9.877778 1.974745,4.135614 12.657314,9.08685 16.948504,5.965473 z"
         id="path173"
         style="fill:#000000;stroke-width:0.352778" />
      <path
         d="m 138.97846,209.36836 c -15.66157,9.78676 -35.8775,9.78676 -51.537305,0 -4.245681,-2.65271 -8.458553,-6.15032 -12.144728,-10.75831 0,0 -3.726039,31.74436 30.629573,37.4015 4.81472,0.79238 9.75255,0.79238 14.56867,0 34.35597,-5.6582 30.62816,-37.4015 30.62816,-37.4015 -3.68617,4.60799 -7.89904,8.10578 -12.14472,10.75831 z"
         id="path175"
         style="fill:#000000;stroke-width:0.352778" />
      <path
         d="m 56.961154,153.38606 c -0.02067,0.007 -0.07855,0.0276 -0.07855,0.0276 0,0 -0.775829,6.31014 -3.011029,16.6123 -2.233789,10.30076 31.152042,18.74132 31.152042,18.74132 v 10.05276 l 10.796764,3.97157 2.855313,-4.83976 v 5.08777 l 13.776326,1.48967 1.0294,-3.72357 0.83235,3.72357 15.51411,-1.86171 0.74414,-4.71558 2.48187,3.59939 8.77676,-2.56452 v -10.61932 c 0,0 17.83997,-7.85742 26.82769,-10.83133 8.98772,-2.97382 0,-22.37105 0,-22.37105 0,0 -0.0303,-0.0193 -0.0386,-0.0248 9.56204,-11.39085 15.31267,-25.77889 15.31267,-41.46198 0,-36.851165 -31.54186,-66.724388 -70.44972,-66.724388 -38.90786,0 -70.449721,29.873223 -70.449721,66.724388 0,14.89675 5.218641,28.60534 13.930489,39.70867 z m 87.199606,-28.87663 c 10.19211,0 18.45452,8.97643 18.45452,15.09078 0,6.11293 -8.26277,11.06981 -18.45452,11.06981 -10.19175,0 -18.45451,-4.95688 -18.45451,-11.06981 0.001,-6.11435 8.26276,-15.09078 18.45451,-15.09078 z m -30.67367,13.85359 c 0,0 13.3477,20.24873 9.82274,30.48917 0,0 -2.77399,-4.00474 -9.82274,-4.37939 -7.0485,0.37483 -9.84321,4.37939 -9.84321,4.37939 -3.50297,-10.24008 9.84321,-30.48917 9.84321,-30.48917 z M 82.799657,124.50943 c 10.192103,0 18.454513,8.97643 18.454513,15.09078 0,6.11293 -8.262763,11.06981 -18.454513,11.06981 -10.19175,0 -18.454511,-4.95688 -18.454511,-11.06981 0,-6.11435 8.262761,-15.09078 18.454511,-15.09078 z"
         id="path177"
         style="fill:#000000;stroke-width:0.352778" />
    </g>
  </g>
</svg>
