<?xml version="1.0" encoding="UTF-8" standalone="no"?>
<!-- Created with Inkscape (http://www.inkscape.org/) -->

<svg
   width="169.04988mm"
   height="179.03578mm"
   viewBox="0 0 169.04988 179.03578"
   version="1.1"
   id="svg5"
   inkscape:version="1.1.2 (0a00cf5339, 2022-02-04)"
   sodipodi:docname="pirate_boat.svg"
   xmlns:inkscape="http://www.inkscape.org/namespaces/inkscape"
   xmlns:sodipodi="http://sodipodi.sourceforge.net/DTD/sodipodi-0.dtd"
   xmlns="http://www.w3.org/2000/svg"
   xmlns:svg="http://www.w3.org/2000/svg">
  <sodipodi:namedview
     id="namedview7"
     pagecolor="#ffffff"
     bordercolor="#999999"
     borderopacity="1"
     inkscape:pageshadow="0"
     inkscape:pageopacity="0"
     inkscape:pagecheckerboard="0"
     inkscape:document-units="mm"
     showgrid="false"
     fit-margin-top="0"
     fit-margin-left="0"
     fit-margin-right="0"
     fit-margin-bottom="0"
     inkscape:zoom="0.64052329"
     inkscape:cx="298.19369"
     inkscape:cy="455.87726"
     inkscape:window-width="1920"
     inkscape:window-height="1011"
     inkscape:window-x="0"
     inkscape:window-y="1112"
     inkscape:window-maximized="0"
     inkscape:current-layer="layer1" />
  <defs
     id="defs2">
    <symbol
       id="i"
       overflow="visible">
      <path
         d="m 29.312,-1.75 c -1.5117,0.78125 -3.0898,1.3711 -4.7344,1.7656 -1.6367,0.40625 -3.3398,0.60938 -5.1094,0.60938 -5.3125,0 -9.5273,-1.4844 -12.641,-4.4531 -3.1055,-2.9688 -4.6562,-7 -4.6562,-12.094 0,-5.094 1.5508,-9.125 4.6562,-12.094 3.1133,-2.9688 7.3281,-4.4531 12.641,-4.4531 1.7695,0 3.4727,0.19922 5.1094,0.59375 1.6445,0.39844 3.2227,0.99219 4.7344,1.7812 v 6.5938 c -1.5312,-1.0391 -3.0391,-1.8008 -4.5156,-2.2812 -1.4805,-0.48828 -3.0391,-0.73438 -4.6719,-0.73438 -2.9375,0 -5.2461,0.94531 -6.9219,2.8281 -1.6797,1.875 -2.5156,4.4648 -2.5156,7.7656 0,3.293 0.83594,5.8828 2.5156,7.7656 1.6758,1.875 3.9844,2.8125 6.9219,2.8125 1.6328,0 3.1914,-0.23828 4.6719,-0.71875 1.4766,-0.48828 2.9844,-1.2539 4.5156,-2.2969 z"
         id="path1694" />
    </symbol>
    <symbol
       id="d"
       overflow="visible">
      <path
         d="m 21.453,-17.406 c -0.67969,-0.3125 -1.3516,-0.53906 -2.0156,-0.6875 -0.65625,-0.15625 -1.3203,-0.23438 -1.9844,-0.23438 -1.9688,0 -3.4844,0.63281 -4.5469,1.8906 -1.0547,1.2617 -1.5781,3.0703 -1.5781,5.4219 V 6.2e-4 H 3.6718 v -23.922 h 7.6562 v 3.9219 c 0.97656,-1.5625 2.1016,-2.7031 3.375,-3.4219 1.2812,-0.71875 2.8125,-1.0781 4.5938,-1.0781 0.25,0 0.52344,0.01172 0.82812,0.03125 0.30078,0.02344 0.73438,0.07031 1.2969,0.14062 z"
         id="path1697" />
    </symbol>
    <symbol
       id="c"
       overflow="visible">
      <path
         d="m 27.562,-12.031 v 2.1875 H 9.671 c 0.1875,1.793 0.83203,3.1367 1.9375,4.0312 1.1133,0.89844 2.6719,1.3438 4.6719,1.3438 1.6016,0 3.25,-0.23438 4.9375,-0.70312 1.6875,-0.47656 3.4219,-1.2031 5.2031,-2.1719 v 5.8906 c -1.8047,0.6875 -3.6094,1.2031 -5.4219,1.5469 -1.8125,0.35156 -3.6211,0.53125 -5.4219,0.53125 -4.3359,0 -7.7031,-1.0977 -10.109,-3.2969 -2.3984,-2.207 -3.5938,-5.2969 -3.5938,-9.2656 0,-3.9062 1.1758,-6.9727 3.5312,-9.2031 2.3633,-2.2383 5.6094,-3.3594 9.7344,-3.3594 3.7578,0 6.7695,1.1367 9.0312,3.4062 2.2578,2.2617 3.3906,5.2812 3.3906,9.0625 z m -7.8594,-2.5312 c 0,-1.457 -0.42969,-2.6289 -1.2812,-3.5156 -0.84375,-0.89453 -1.9492,-1.3438 -3.3125,-1.3438 -1.4922,0 -2.6992,0.41797 -3.625,1.25 -0.91797,0.83594 -1.4922,2.0391 -1.7188,3.6094 z"
         id="path1700" />
    </symbol>
    <symbol
       id="a"
       overflow="visible">
      <path
         d="m 14.391,-10.766 c -1.5938,0 -2.793,0.27344 -3.5938,0.8125 -0.80469,0.54297 -1.2031,1.3398 -1.2031,2.3906 0,0.96875 0.32031,1.7305 0.96875,2.2812 0.64453,0.54297 1.5469,0.8125 2.7031,0.8125 1.4375,0 2.6445,-0.51562 3.625,-1.5469 0.98828,-1.0312 1.4844,-2.3203 1.4844,-3.875 v -0.875 z m 11.688,-2.8906 V -6e-4 h -7.7031 v -3.5469 c -1.0312,1.4492 -2.1875,2.5078 -3.4688,3.1719 -1.2813,0.6641 -2.8398,1 -4.6719,1 -2.4805,0 -4.4961,-0.72266 -6.0469,-2.1719 -1.543,-1.4453 -2.3125,-3.3203 -2.3125,-5.625 0,-2.8125 0.96094,-4.8672 2.8906,-6.1719 1.9375,-1.3125 4.9688,-1.9688 9.0938,-1.9688 h 4.5156 v -0.60938 c 0,-1.207 -0.48047,-2.0938 -1.4375,-2.6562 -0.94922,-0.5625 -2.4375,-0.84375 -4.4688,-0.84375 -1.6367,0 -3.1562,0.16797 -4.5625,0.5 -1.4062,0.32422 -2.7188,0.8125 -3.9375,1.4688 v -5.8281 c 1.6445,-0.40625 3.2891,-0.70703 4.9375,-0.90625 1.6562,-0.20703 3.3047,-0.3125 4.9531,-0.3125 4.3203,0 7.4375,0.85547 9.3438,2.5625 1.9141,1.6992 2.875,4.4609 2.875,8.2812 z"
         id="path1703" />
    </symbol>
    <symbol
       id="h"
       overflow="visible">
      <path
         d="m 12.031,-30.719 v 6.7969 h 7.875 v 5.4688 h -7.875 v 10.141 c 0,1.1172 0.21875,1.8711 0.65625,2.2656 0.4375,0.38672 1.3125,0.57812 2.625,0.57812 h 3.9375 v 5.4688 h -6.5625 c -3.0234,0 -5.1641,-0.62891 -6.4219,-1.8906 -1.2617,-1.2578 -1.8906,-3.3984 -1.8906,-6.4219 v -10.141 h -3.7969 v -5.4688 h 3.7969 v -6.7969 z"
         id="path1706" />
    </symbol>
    <symbol
       id="b"
       overflow="visible">
      <path
         d="m 19.953,-20.422 v -12.812 h 7.6875 V 0 H 19.953 v -3.4531 c -1.0547,1.4062 -2.2148,2.4375 -3.4844,3.0938 -1.2734,0.65625 -2.7422,0.98438 -4.4062,0.98438 -2.9492,0 -5.3711,-1.1719 -7.2656,-3.5156 -1.8867,-2.3438 -2.8281,-5.3594 -2.8281,-9.0469 0,-3.6875 0.94141,-6.7031 2.8281,-9.0469 1.8945,-2.3438 4.3164,-3.5156 7.2656,-3.5156 1.6562,0 3.1172,0.33594 4.3906,1 1.2812,0.65625 2.4453,1.6836 3.5,3.0781 z m -5.0469,15.484 c 1.6445,0 2.8945,-0.59766 3.75,-1.7969 0.86328,-1.1953 1.2969,-2.9297 1.2969,-5.2031 0,-2.2812 -0.43359,-4.0195 -1.2969,-5.2188 -0.85547,-1.1953 -2.1055,-1.7969 -3.75,-1.7969 -1.625,0 -2.8711,0.60156 -3.7344,1.7969 -0.85547,1.1992 -1.2812,2.9375 -1.2812,5.2188 0,2.2734 0.42578,4.0078 1.2812,5.2031 0.86328,1.1992 2.1094,1.7969 3.7344,1.7969 z"
         id="path1709" />
    </symbol>
    <symbol
       id="g"
       overflow="visible">
      <path
         d="m 16.406,-4.9375 c 1.6328,0 2.8828,-0.59766 3.75,-1.7969 0.86328,-1.1953 1.2969,-2.9297 1.2969,-5.2031 0,-2.2812 -0.43359,-4.0195 -1.2969,-5.2188 -0.86719,-1.1953 -2.1172,-1.7969 -3.75,-1.7969 -1.6367,0 -2.8906,0.60547 -3.7656,1.8125 -0.875,1.1992 -1.3125,2.9336 -1.3125,5.2031 0,2.2617 0.4375,3.9961 1.3125,5.2031 0.875,1.1992 2.1289,1.7969 3.7656,1.7969 z m -5.0781,-15.484 c 1.0508,-1.3945 2.2188,-2.4219 3.5,-3.0781 1.2812,-0.66406 2.7539,-1 4.4219,-1 2.9453,0 5.3672,1.1719 7.2656,3.5156 1.8945,2.3438 2.8438,5.3594 2.8438,9.0469 0,3.6875 -0.94922,6.7031 -2.8438,9.0469 -1.8984,2.3438 -4.3203,3.5156 -7.2656,3.5156 -1.668,0 -3.1406,-0.33594 -4.4219,-1 -1.2813,-0.66406 -2.4492,-1.6914 -3.5,-3.0781 V 4e-4 H 3.6717 v -33.234 h 7.6562 z"
         id="path1712" />
    </symbol>
    <symbol
       id="f"
       overflow="visible">
      <path
         d="m 0.53125,-23.922 h 7.6562 l 6.4219,16.234 5.4688,-16.234 h 7.6562 l -10.062,26.188 c -1.0117,2.6641 -2.1953,4.5234 -3.5469,5.5781 -1.3438,1.0625 -3.1211,1.5938 -5.3281,1.5938 H 4.37545 V 4.4223 h 2.3906 c 1.3008,0 2.2422,-0.21094 2.8281,-0.625 0.59375,-0.40625 1.0547,-1.1484 1.3906,-2.2188 l 0.20312,-0.65625 z"
         id="path1715" />
    </symbol>
    <symbol
       id="e"
       overflow="visible">
      <path
         d="m 12.234,-25.672 v 19.453 h 2.9531 c 3.3633,0 5.9297,-0.83203 7.7031,-2.5 1.7695,-1.6641 2.6562,-4.0859 2.6562,-7.2656 0,-3.1562 -0.88672,-5.5547 -2.6562,-7.2031 -1.7617,-1.6562 -4.3281,-2.4844 -7.7031,-2.4844 z m -8.2188,-6.2188 h 8.6719 c 4.8438,0 8.4453,0.34375 10.812,1.0312 2.375,0.6875 4.4102,1.8594 6.1094,3.5156 1.4883,1.4375 2.5977,3.1016 3.3281,4.9844 0.72656,1.875 1.0938,4 1.0938,6.375 0,2.4062 -0.36719,4.5586 -1.0938,6.4531 -0.73047,1.8867 -1.8398,3.5469 -3.3281,4.9844 -1.7109,1.6484 -3.7617,2.8203 -6.1562,3.5156 C 21.0539,-0.344 17.4679,-3e-4 12.6863,-3e-4 H 4.0144 Z"
         id="path1718" />
    </symbol>
  </defs>
  <g
     inkscape:label="Layer 1"
     inkscape:groupmode="layer"
     id="layer1"
     transform="translate(-26.186455,-27.786708)">
    <g
       id="g1949">
      <path
         d="m 78.66215,194.47421 c 0,1.70462 -1.382184,3.0868 -3.086806,3.0868 -1.704622,0 -3.086805,-1.38218 -3.086805,-3.0868 0,-1.70462 1.382183,-3.08681 3.086805,-3.08681 1.704622,0 3.086806,1.38219 3.086806,3.08681"
         id="path1723"
         style="stroke-width:0.352778" />
      <path
         d="m 109.53021,194.47421 c 0,1.70462 -1.38219,3.0868 -3.08681,3.0868 -1.70462,0 -3.08681,-1.38218 -3.08681,-3.0868 0,-1.70462 1.38219,-3.08681 3.08681,-3.08681 1.70462,0 3.08681,1.38219 3.08681,3.08681"
         id="path1725"
         style="stroke-width:0.352778" />
      <path
         d="m 140.39826,194.47421 c 0,1.70462 -1.38218,3.0868 -3.0868,3.0868 -1.70463,0 -3.08681,-1.38218 -3.08681,-3.0868 0,-1.70462 1.38218,-3.08681 3.08681,-3.08681 1.70462,0 3.0868,1.38219 3.0868,3.08681"
         id="path1727"
         style="stroke-width:0.352778" />
      <path
         d="m 87.922566,157.43254 h 15.434024 v 6.17361 H 87.922566 Z"
         id="path1729"
         style="stroke-width:0.352778" />
      <path
         d="m 87.922566,120.39088 h 6.173612 v 30.86805 h -6.173612 z"
         id="path1731"
         style="stroke-width:0.352778" />
      <path
         d="m 94.096178,52.481153 v -6.173611 h 7.609412 l 2.05878,-9.260417 h -7.3533 l -2.315104,-9.260417 h -6.173611 l -2.315104,9.260417 h -7.3533 l 2.058775,9.260417 h 7.609417 v 6.173611 z"
         id="path1733"
         style="stroke-width:0.352778" />
      <path
         d="m 120.24054,114.21726 c 5.37986,-8.26699 8.24336,-17.918638 8.24336,-27.781246 0,-9.862608 -2.86357,-19.514256 -8.24336,-27.78125 H 53.367983 c 9.603669,17.276586 9.603669,38.286972 0,55.562496 z M 71.5819,65.731486 79.276689,73.430508 C 82.169184,69.93441 86.47018,67.9113 91.00655,67.9113 c 4.536369,0 8.837436,2.022969 11.72986,5.519208 l 7.69902,-7.699022 4.36422,4.364214 -9.01912,9.019117 v 0.0014 c 0.41755,1.372517 0.64079,2.797422 0.66008,4.231922 l 0.0179,1.610925 c 0.0593,3.667125 0.12679,7.769225 -3.10472,10.597091 v 1.947157 l 8.3566,8.356598 -4.36422,4.36422 -5.65961,-5.65679 c -0.43272,0.24529 -0.92054,0.37895 -1.41937,0.38862 H 81.74638 c -0.498863,-0.01 -0.986684,-0.14332 -1.419366,-0.38862 l -5.658203,5.6582 -4.364214,-4.36422 8.355189,-8.356597 V 95.557577 C 75.428271,92.729852 75.495793,88.627258 75.555059,84.960486 l 0.01792,-1.612301 c 0.02067,-1.434535 0.243915,-2.85944 0.66421,-4.231922 l -9.019116,-9.019117 z"
         id="path1735"
         style="stroke-width:0.352778" />
      <path
         d="m 83.294122,91.314931 c 0.953594,0.551215 1.540651,1.566827 1.543403,2.667882 v 4.799541 h 12.347222 v -4.799541 c 0.0028,-1.101055 0.589809,-2.116667 1.543403,-2.667882 1.45108,-0.843351 1.63572,-2.093242 1.57095,-6.253692 l -0.0275,-1.712912 c 0,-3.308668 -1.765259,-6.36517 -4.630206,-8.02005 -2.864943,-1.653646 -6.395508,-1.653646 -9.260416,0 -2.864944,1.655021 -4.630209,4.711347 -4.630209,8.02005 l -0.01792,1.712912 c -0.06477,4.152195 0.119888,5.411611 1.561324,6.253692 z m 10.803819,-7.966428 h 3.086806 v 6.173611 h -3.086806 z m -9.260416,0 h 3.086805 v 6.173611 h -3.086805 z"
         id="path1737"
         style="stroke-width:0.352778" />
      <path
         d="M 32.360066,163.60615 H 81.748955 V 135.8249 h -55.5625 v 21.60764 c 0,1.6371 0.650452,3.20809 1.807986,4.36563 1.157534,1.15753 2.728524,1.80798 4.365625,1.80798 z m 33.954861,-21.60764 h 6.173612 v 9.26042 h -6.173612 z m -15.434028,0 h 6.173612 v 9.26042 h -6.173612 z m -15.434027,0 h 6.173611 v 9.26042 h -6.173611 z"
         id="path1739"
         style="stroke-width:0.352778" />
      <path
         d="M 183.61354,179.49879 V 154.3468 h -21.91632 c -2.18006,8.04509 -6.97018,15.1391 -13.61899,20.1676 -6.64915,5.02849 -14.77821,7.70607 -23.114,7.61365 H 46.150149 l 1.394566,4.8768 h 0.0014 c 1.648143,5.69947 5.100109,10.71139 9.836503,14.28467 4.737806,3.57329 10.504664,5.51357 16.438739,5.53297 h 82.461803 c 7.24571,-0.008 14.1912,-2.88974 19.31318,-8.01194 5.12339,-5.12233 8.00488,-12.06747 8.01476,-19.31176 z m -24.69445,-9.71797 c -0.01,-2.27651 0.81993,-4.4771 2.33028,-6.18172 1.51031,-1.70325 3.59657,-2.79054 5.85787,-3.05513 2.26138,-0.2632 4.54061,0.31557 6.40221,1.6261 1.86172,1.31049 3.17638,3.26181 3.69041,5.4804 0.514,2.21728 0.19431,4.54766 -0.90124,6.54438 -1.09417,1.99679 -2.88562,3.51952 -5.03273,4.27884 v 7.1494 l 4.46088,-2.97519 3.42579,5.13609 -9.26042,6.17361 c -1.03766,0.69176 -2.38813,0.69176 -3.42579,0 l -9.26041,-6.17361 3.42578,-5.13609 4.46088,2.97519 v -7.1494 c -1.79973,-0.63666 -3.35827,-1.81349 -4.46334,-3.36931 -1.10519,-1.55582 -1.70188,-3.41478 -1.71017,-5.32342 z m -83.343746,33.95486 c -2.455651,0 -4.812242,-0.97564 -6.548261,-2.71197 -1.73602,-1.73634 -2.711979,-4.09293 -2.711979,-6.54827 0,-2.45533 0.975642,-4.81224 2.711979,-6.54826 1.736337,-1.73602 4.092928,-2.71198 6.548261,-2.71198 2.455333,0 4.812242,0.97565 6.548261,2.71198 1.73602,1.73634 2.711979,4.09293 2.711979,6.54826 0,2.45534 -0.975642,4.81225 -2.711979,6.54827 -1.736337,1.73601 -4.092928,2.71197 -6.548261,2.71197 z m 30.868056,0 c -2.45565,0 -4.81224,-0.97564 -6.548261,-2.71197 -1.73602,-1.73634 -2.711979,-4.09293 -2.711979,-6.54827 0,-2.45533 0.975642,-4.81224 2.711979,-6.54826 1.736341,-1.73602 4.092931,-2.71198 6.548261,-2.71198 2.45533,0 4.81224,0.97565 6.54826,2.71198 1.73602,1.73634 2.71198,4.09293 2.71198,6.54826 0,2.45534 -0.97564,4.81225 -2.71198,6.54827 -1.73634,1.73601 -4.09293,2.71197 -6.54826,2.71197 z m 30.86806,0 c -2.45566,0 -4.81225,-0.97564 -6.54827,-2.71197 -1.73602,-1.73634 -2.71197,-4.09293 -2.71197,-6.54827 0,-2.45533 0.97564,-4.81224 2.71197,-6.54826 1.73634,-1.73602 4.09293,-2.71198 6.54827,-2.71198 2.45533,0 4.81224,0.97565 6.54826,2.71198 1.73602,1.73634 2.71198,4.09293 2.71198,6.54826 0,2.45534 -0.97565,4.81225 -2.71198,6.54827 -1.73634,1.73601 -4.09293,2.71197 -6.54826,2.71197 z"
         id="path1741"
         style="stroke-width:0.352778" />
      <path
         d="m 171.26632,169.77976 c 0,1.70463 -1.38219,3.08681 -3.08681,3.08681 -1.70462,0 -3.0868,-1.38218 -3.0868,-3.08681 0,-1.70462 1.38218,-3.0868 3.0868,-3.0868 1.70462,0 3.08681,1.38218 3.08681,3.0868"
         id="path1743"
         style="stroke-width:0.352778" />
      <path
         d="M 84.835761,169.77976 H 42.622372 l 1.774895,6.17362 h 80.567393 c 20.06423,0 30.86805,-17.52742 30.86805,-24.69445 0,-1.70462 1.38219,-3.0868 3.08681,-3.0868 h 24.69444 v -18.7124 h -34.78177 v 16.42498 c -1.57924,6.78674 -5.40738,12.84041 -10.86026,17.17852 -5.45289,4.3367 -12.21211,6.70419 -19.18088,6.71653 z m 86.430559,-37.96594 h 6.17361 v 10.18646 h -6.17361 z m -16.26094,0 h 7.00052 v 10.18646 h -7.00052 z"
         id="path1745"
         style="stroke-width:0.352778" />
      <path
         d="m 162.0059,58.654764 v -3.086806 h 15.43403 V 71.001986 H 149.1087 c 3.89572,7.788628 3.89572,29.253044 0,37.041664 h 28.33123 v 18.52084 h 6.17361 v -18.52084 h 7.71701 c 5.20771,-7.45525 5.20771,-29.586411 0,-37.041664 h -7.71701 V 30.873514 c 0,-1.704623 -1.38218,-3.086806 -3.08681,-3.086806 -1.70462,0 -3.0868,1.382183 -3.0868,3.086806 v 6.173611 h -18.52084 v 3.086805 h -20.33023 l 6.17362,9.260417 -6.17362,9.260417 z"
         id="path1747"
         style="stroke-width:0.352778" />
    </g>
  </g>
</svg>
