<?xml version="1.0" encoding="UTF-8" standalone="no"?>
<!-- Created with Inkscape (http://www.inkscape.org/) -->

<svg
   width="197.55661mm"
   height="197.55429mm"
   viewBox="0 0 197.55661 197.55429"
   version="1.1"
   id="svg5"
   inkscape:version="1.1.2 (0a00cf5339, 2022-02-04)"
   sodipodi:docname="slot_machine.svg"
   xmlns:inkscape="http://www.inkscape.org/namespaces/inkscape"
   xmlns:sodipodi="http://sodipodi.sourceforge.net/DTD/sodipodi-0.dtd"
   xmlns="http://www.w3.org/2000/svg"
   xmlns:svg="http://www.w3.org/2000/svg">
  <sodipodi:namedview
     id="namedview7"
     pagecolor="#ffffff"
     bordercolor="#999999"
     borderopacity="1"
     inkscape:pageshadow="0"
     inkscape:pageopacity="0"
     inkscape:pagecheckerboard="0"
     inkscape:document-units="mm"
     showgrid="false"
     fit-margin-top="0"
     fit-margin-left="0"
     fit-margin-right="0"
     fit-margin-bottom="0"
     inkscape:zoom="0.64052329"
     inkscape:cx="373.13241"
     inkscape:cy="435.58135"
     inkscape:window-width="1920"
     inkscape:window-height="1011"
     inkscape:window-x="0"
     inkscape:window-y="1112"
     inkscape:window-maximized="0"
     inkscape:current-layer="layer1" />
  <defs
     id="defs2">
    <symbol
       id="h"
       overflow="visible">
      <path
         d="m 14.656,-0.875 c -0.76172,0.39844 -1.5547,0.69531 -2.375,0.89062 -0.8125,0.19531 -1.6641,0.29688 -2.5469,0.29688 -2.6562,0 -4.7617,-0.73828 -6.3125,-2.2188 -1.5547,-1.4883 -2.3281,-3.5039 -2.3281,-6.0469 0,-2.5508 0.77344,-4.5664 2.3281,-6.0469 1.5508,-1.4883 3.6562,-2.2344 6.3125,-2.2344 0.88281,0 1.7344,0.10156 2.5469,0.29688 0.82031,0.19922 1.6133,0.49609 2.375,0.89062 v 3.2969 c -0.76172,-0.51953 -1.5117,-0.89844 -2.25,-1.1406 -0.74219,-0.23828 -1.5234,-0.35938 -2.3438,-0.35938 -1.4688,0 -2.625,0.46875 -3.4688,1.4062 -0.83594,0.9375 -1.25,2.2344 -1.25,3.8906 0,1.6484 0.41406,2.9375 1.25,3.875 0.84375,0.9375 2,1.4062 3.4688,1.4062 0.82031,0 1.6016,-0.11719 2.3438,-0.35938 0.73828,-0.23828 1.4883,-0.61719 2.25,-1.1406 z"
         id="path257" />
    </symbol>
    <symbol
       id="c"
       overflow="visible">
      <path
         d="m 10.719,-8.7031 c -0.33594,-0.15625 -0.66797,-0.26953 -1,-0.34375 -0.32422,-0.082031 -0.65625,-0.125 -1,-0.125 -0.98047,0 -1.7344,0.32031 -2.2656,0.95312 -0.53125,0.625 -0.79688,1.5273 -0.79688,2.7031 V -3e-5 h -3.8125 v -11.969 h 3.8125 v 1.9688 c 0.48828,-0.78125 1.0508,-1.3477 1.6875,-1.7031 0.64453,-0.36328 1.4102,-0.54688 2.2969,-0.54688 0.13281,0 0.27344,0.0078 0.42188,0.01563 0.14453,0.01172 0.36328,0.03125 0.65625,0.0625 z"
         id="path260" />
    </symbol>
    <symbol
       id="a"
       overflow="visible">
      <path
         d="m 13.781,-6.0156 v 1.0938 H 4.8435 c 0.09375,0.89844 0.41406,1.5703 0.96875,2.0156 0.55078,0.44922 1.3281,0.67188 2.3281,0.67188 0.80078,0 1.625,-0.11719 2.4688,-0.35938 0.84375,-0.23828 1.7109,-0.59766 2.6094,-1.0781 v 2.9531 c -0.90625,0.33594 -1.8125,0.58984 -2.7188,0.76562 -0.9063,0.17578 -1.8125,0.26562 -2.7188,0.26562 -2.1562,0 -3.8398,-0.54688 -5.0469,-1.6406 -1.1992,-1.1016 -1.7969,-2.6484 -1.7969,-4.6406 0,-1.9453 0.58594,-3.4766 1.7656,-4.5938 1.1758,-1.125 2.8008,-1.6875 4.875,-1.6875 1.875,0 3.375,0.57031 4.5,1.7031 1.1328,1.125 1.7031,2.6367 1.7031,4.5312 z M 9.8435,-7.2812 c 0,-0.72656 -0.21484,-1.3125 -0.64062,-1.75 -0.41797,-0.44531 -0.96875,-0.67188 -1.6562,-0.67188 -0.74219,0 -1.3438,0.21094 -1.8125,0.625 -0.46094,0.41797 -0.74609,1.0156 -0.85938,1.7969 z"
         id="path263" />
    </symbol>
    <symbol
       id="m"
       overflow="visible">
      <path
         d="m 7.2031,-5.3906 c -0.80469,0 -1.4062,0.13672 -1.8125,0.40625 -0.39844,0.27344 -0.59375,0.67188 -0.59375,1.2031 0,0.48047 0.16016,0.85938 0.48438,1.1406 0.32031,0.27344 0.77344,0.40625 1.3594,0.40625 0.71875,0 1.3203,-0.25391 1.8125,-0.76562 0.48828,-0.51953 0.73438,-1.1719 0.73438,-1.9531 v -0.4375 z m 5.8438,-1.4375 V 0 H 9.1875 v -1.7656 c -0.51172,0.71875 -1.0898,1.2461 -1.7344,1.5781 -0.63672,0.33203 -1.418,0.5 -2.3438,0.5 -1.2422,0 -2.2461,-0.35938 -3.0156,-1.0781 -0.77344,-0.72656 -1.1562,-1.6719 -1.1562,-2.8281 0,-1.3945 0.47656,-2.4219 1.4375,-3.0781 0.96875,-0.65625 2.4883,-0.98438 4.5625,-0.98438 h 2.25 v -0.29688 c 0,-0.60156 -0.24219,-1.0469 -0.71875,-1.3281 -0.48047,-0.28125 -1.2266,-0.42188 -2.2344,-0.42188 -0.8125,0 -1.5742,0.085937 -2.2812,0.25 -0.71094,0.15625 -1.3672,0.40234 -1.9688,0.73438 v -2.9219 c 0.82031,-0.19531 1.6445,-0.34766 2.4688,-0.45312 0.82031,-0.10156 1.6484,-0.15625 2.4844,-0.15625 2.1562,0 3.7109,0.42969 4.6719,1.2812 0.95703,0.84375 1.4375,2.2266 1.4375,4.1406 z"
         id="path266" />
    </symbol>
    <symbol
       id="b"
       overflow="visible">
      <path
         d="m 6.0156,-15.359 v 3.3906 H 9.9531 V -9.234 H 6.0156 v 5.0781 c 0,0.55469 0.10938,0.92969 0.32812,1.125 0.21875,0.19922 0.65625,0.29688 1.3125,0.29688 h 1.9688 v 2.7344 h -3.2812 c -1.5117,0 -2.5859,-0.3125 -3.2188,-0.9375 -0.625,-0.63281 -0.9375,-1.707 -0.9375,-3.2188 v -5.0781 h -1.9062 v -2.7344 h 1.9062 v -3.3906 z"
         id="path269" />
    </symbol>
    <symbol
       id="l"
       overflow="visible">
      <path
         d="m 9.9688,-10.219 v -6.4062 h 3.8594 V -2e-4 H 9.9688 V -1.7346 C 9.44536,-1.02366 8.8672,-0.5041 8.2344,-0.1721 7.59768,0.14821 6.8633,0.31228 6.0313,0.31228 c -1.4688,0 -2.6797,-0.58203 -3.625,-1.75 -0.94922,-1.1758 -1.4219,-2.6875 -1.4219,-4.5312 0,-1.8437 0.47266,-3.3477 1.4219,-4.5156 0.94531,-1.1758 2.1562,-1.7656 3.625,-1.7656 0.83203,0 1.5664,0.16797 2.2031,0.5 0.63281,0.32422 1.2109,0.83594 1.7344,1.5312 z m -2.5156,7.75 c 0.82031,0 1.4453,-0.29688 1.875,-0.89062 0.42578,-0.60156 0.64062,-1.4727 0.64062,-2.6094 0,-1.1445 -0.21484,-2.0156 -0.64062,-2.6094 -0.42969,-0.59375 -1.0547,-0.89062 -1.875,-0.89062 -0.8125,0 -1.4336,0.29688 -1.8594,0.89062 -0.42969,0.59375 -0.64062,1.4648 -0.64062,2.6094 0,1.1367 0.21094,2.0078 0.64062,2.6094 0.42578,0.59375 1.0469,0.89062 1.8594,0.89062 z"
         id="path272" />
    </symbol>
    <symbol
       id="k"
       overflow="visible">
      <path
         d="m 8.2031,-2.4688 c 0.82031,0 1.4453,-0.29688 1.875,-0.89062 0.42578,-0.60156 0.64062,-1.4727 0.64062,-2.6094 0,-1.1445 -0.21484,-2.0156 -0.64062,-2.6094 -0.42969,-0.59375 -1.0547,-0.89062 -1.875,-0.89062 -0.82422,0 -1.4531,0.30469 -1.8906,0.90625 -0.4375,0.59375 -0.65625,1.4609 -0.65625,2.5938 0,1.1367 0.21875,2.0078 0.65625,2.6094 0.4375,0.59375 1.0664,0.89062 1.8906,0.89062 z m -2.5469,-7.75 c 0.53125,-0.69531 1.1133,-1.207 1.75,-1.5312 0.64453,-0.33203 1.3828,-0.5 2.2188,-0.5 1.4688,0 2.6758,0.58984 3.625,1.7656 0.94531,1.168 1.4219,2.6719 1.4219,4.5156 0,1.8437 -0.47656,3.3555 -1.4219,4.5312 -0.94922,1.168 -2.1562,1.75 -3.625,1.75 -0.83594,0 -1.5742,-0.16797 -2.2188,-0.5 -0.63672,-0.33203 -1.2188,-0.84766 -1.75,-1.5469 V -1e-4 H 1.8437 v -16.625 h 3.8125 z"
         id="path275" />
    </symbol>
    <symbol
       id="j"
       overflow="visible">
      <path
         d="m 0.26562,-11.969 h 3.8281 l 3.2188,8.125 2.7344,-8.125 h 3.8125 L 8.82822,1.125 c -0.5,1.332 -1.0898,2.2656 -1.7656,2.7969 -0.66797,0.53125 -1.5547,0.79688 -2.6562,0.79688 h -2.2188 v -2.5 h 1.2031 c 0.64453,0 1.1133,-0.10547 1.4062,-0.3125 C 5.0977,1.69534 5.32817,1.32816 5.48442,0.79688 L 5.5938,0.45313 Z"
         id="path278" />
    </symbol>
    <symbol
       id="i"
       overflow="visible">
      <path
         d="m 0.65625,-15.953 h 3.9375 l 2.75,11.594 2.7344,-11.594 h 3.9688 l 2.7344,11.594 2.75,-11.594 h 3.9062 L 19.68755,0 h -4.75 L 12.04695,-12.125 9.18755,0 h -4.75 z"
         id="path281" />
    </symbol>
    <symbol
       id="g"
       overflow="visible">
      <path
         d="m 2.0156,-15.953 h 11.094 v 3.1094 H 6.1252 v 2.9688 h 6.5625 v 3.1094 H 6.1252 v 3.6562 H 13.344 V 2e-4 H 2.016 Z"
         id="path284" />
    </symbol>
    <symbol
       id="z"
       overflow="visible">
      <path
         d="m 8.3906,-9.7656 c 0.65625,0 1.1484,-0.14062 1.4844,-0.42188 0.33203,-0.28906 0.5,-0.71094 0.5,-1.2656 0,-0.55078 -0.16797,-0.97266 -0.5,-1.2656 -0.33594,-0.28906 -0.82812,-0.4375 -1.4844,-0.4375 H 6.125 v 3.3906 z m 0.14062,6.9688 c 0.82031,0 1.4414,-0.17188 1.8594,-0.51562 0.41406,-0.35156 0.625,-0.88281 0.625,-1.5938 0,-0.6875 -0.21094,-1.2031 -0.625,-1.5469 -0.40625,-0.34375 -1.0273,-0.51562 -1.8594,-0.51562 h -2.4062 v 4.1719 z m 3.8281,-5.7344 c 0.88281,0.25 1.5664,0.72656 2.0469,1.4219 0.48828,0.6875 0.73438,1.5312 0.73438,2.5312 0,1.543 -0.52344,2.6953 -1.5625,3.4531 C 12.5351,-0.375 10.9531,0 8.8281,0 H 2.0156 v -15.953 h 6.1719 c 2.207,0 3.8047,0.33984 4.7969,1.0156 1,0.66797 1.5,1.7344 1.5,3.2031 0,0.78125 -0.18359,1.4492 -0.54688,2 -0.36719,0.54297 -0.89062,0.94531 -1.5781,1.2031 z"
         id="path287" />
    </symbol>
    <symbol
       id="y"
       overflow="visible">
      <path
         d="m 0.10938,-15.953 h 14.688 v 3.1094 H 9.51618 V 4e-4 h -4.1094 v -12.844 h -5.2969 z"
         id="path290" />
    </symbol>
    <symbol
       id="x"
       overflow="visible">
      <path
         d="M 2.0156,-15.953 H 6.125 v 6.0781 h 6.0625 v -6.0781 h 4.1094 V 0 H 12.1875 V -6.7656 H 6.125 V 0 H 2.0156 Z"
         id="path293" />
    </symbol>
    <symbol
       id="w"
       overflow="visible">
      <path
         d="m 9.2969,-13.25 c -1.2617,0 -2.2344,0.46484 -2.9219,1.3906 -0.6875,0.91797 -1.0312,2.2188 -1.0312,3.9062 0,1.668 0.34375,2.9648 1.0312,3.8906 0.6875,0.92969 1.6602,1.3906 2.9219,1.3906 1.2578,0 2.2344,-0.46094 2.9219,-1.3906 0.6875,-0.92578 1.0312,-2.2227 1.0312,-3.8906 0,-1.6875 -0.34375,-2.9883 -1.0312,-3.9062 -0.6875,-0.92578 -1.6641,-1.3906 -2.9219,-1.3906 z m 0,-2.9844 c 2.5625,0 4.5664,0.73438 6.0156,2.2031 1.457,1.4688 2.1875,3.4961 2.1875,6.0781 0,2.5742 -0.73047,4.5938 -2.1875,6.0625 -1.4492,1.4688 -3.4531,2.2031 -6.0156,2.2031 -2.5625,0 -4.5742,-0.73438 -6.0312,-2.2031 -1.4492,-1.4688 -2.1719,-3.4883 -2.1719,-6.0625 0,-2.582 0.72266,-4.6094 2.1719,-6.0781 1.457,-1.4688 3.4688,-2.2031 6.0312,-2.2031 z"
         id="path296" />
    </symbol>
    <symbol
       id="e"
       overflow="visible">
      <path
         d="m 2.0156,-15.953 h 6.8125 c 2.0312,0 3.5859,0.45312 4.6719,1.3594 1.0938,0.89844 1.6406,2.1797 1.6406,3.8438 0,1.6797 -0.54688,2.9688 -1.6406,3.875 -1.0859,0.89844 -2.6406,1.3438 -4.6719,1.3438 H 6.125 V 2e-4 H 2.0156 Z m 4.1094,2.9844 v 4.4531 h 2.2656 c 0.80078,0 1.4141,-0.19141 1.8438,-0.57812 0.4375,-0.38281 0.65625,-0.9375 0.65625,-1.6562 0,-0.70703 -0.21875,-1.2539 -0.65625,-1.6406 -0.42969,-0.38281 -1.043,-0.57812 -1.8438,-0.57812 z"
         id="path299" />
    </symbol>
    <symbol
       id="v"
       overflow="visible">
      <path
         d="m 13.109,-15.438 v 3.375 c -0.875,-0.39453 -1.7305,-0.69141 -2.5625,-0.89062 -0.83594,-0.19531 -1.6211,-0.29688 -2.3594,-0.29688 -0.99219,0 -1.7188,0.13672 -2.1875,0.40625 -0.46875,0.27344 -0.70312,0.6875 -0.70312,1.25 0,0.42969 0.15625,0.76172 0.46875,1 0.32031,0.24219 0.89844,0.44922 1.7344,0.625 l 1.75,0.34375 c 1.7695,0.35547 3.0312,0.89844 3.7812,1.625 0.75,0.73047 1.125,1.7617 1.125,3.0938 0,1.7617 -0.52734,3.0742 -1.5781,3.9375 -1.043,0.85547 -2.6328,1.2812 -4.7656,1.2812 -1.0117,0 -2.0273,-0.10156 -3.0469,-0.29688 -1.0234,-0.1875 -2.043,-0.46875 -3.0625,-0.84375 v -3.4688 c 1.0195,0.53125 2.0039,0.9375 2.9531,1.2188 0.95703,0.27344 1.875,0.40625 2.75,0.40625 0.90625,0 1.5938,-0.14453 2.0625,-0.4375 0.47656,-0.30078 0.71875,-0.73438 0.71875,-1.2969 0,-0.48828 -0.16406,-0.86719 -0.48438,-1.1406 C 9.37848,-5.81691 8.73395,-6.063 7.7652,-6.28176 L 6.1714,-6.64114 c -1.5938,-0.33203 -2.7617,-0.875 -3.5,-1.625 -0.74219,-0.75 -1.1094,-1.7578 -1.1094,-3.0312 0,-1.582 0.50781,-2.8008 1.5312,-3.6562 1.0312,-0.85156 2.5078,-1.2812 4.4375,-1.2812 0.875,0 1.7734,0.07031 2.7031,0.20312 0.92578,0.125 1.8828,0.32422 2.875,0.59375 z"
         id="path302" />
    </symbol>
    <symbol
       id="f"
       overflow="visible">
      <path
         d="M 2.0156,-15.953 H 6.125 v 12.844 h 7.2188 V 4e-4 H 2.0158 Z"
         id="path305" />
    </symbol>
    <symbol
       id="u"
       overflow="visible">
      <path
         d="m 9.7031,-16.625 v 2.5156 H 7.5937 c -0.54297,0 -0.92188,0.10156 -1.1406,0.29688 -0.21094,0.19922 -0.3125,0.53906 -0.3125,1.0156 v 0.82812 h 3.2656 v 2.7344 H 6.1406 V 0 H 2.3125 V -9.2344 H 0.4219 v -2.7344 h 1.8906 v -0.82812 c 0,-1.3008 0.36328,-2.2656 1.0938,-2.8906 0.72656,-0.625 1.8516,-0.9375 3.375,-0.9375 z"
         id="path308" />
    </symbol>
    <symbol
       id="d"
       overflow="visible">
      <path
         d="m 7.5312,-9.5156 c -0.84375,0 -1.4922,0.30859 -1.9375,0.92188 -0.44922,0.60547 -0.67188,1.4805 -0.67188,2.625 0,1.1484 0.22266,2.0273 0.67188,2.6406 0.44531,0.60547 1.0938,0.90625 1.9375,0.90625 0.83203,0 1.4688,-0.30078 1.9062,-0.90625 0.44531,-0.61328 0.67188,-1.4922 0.67188,-2.6406 0,-1.1445 -0.22656,-2.0195 -0.67188,-2.625 C 8.9999,-9.207 8.3632,-9.5156 7.5312,-9.5156 Z m 0,-2.7344 c 2.0508,0 3.6562,0.55859 4.8125,1.6719 1.1641,1.1055 1.75,2.6406 1.75,4.6094 0,1.9688 -0.58594,3.5117 -1.75,4.625 -1.1562,1.1055 -2.7617,1.6562 -4.8125,1.6562 -2.0625,0 -3.6797,-0.55078 -4.8438,-1.6562 -1.168,-1.1133 -1.75,-2.6562 -1.75,-4.625 0,-1.9688 0.58203,-3.5039 1.75,-4.6094 1.1641,-1.1133 2.7812,-1.6719 4.8438,-1.6719 z"
         id="path311" />
    </symbol>
    <symbol
       id="t"
       overflow="visible">
      <path
         d="m 12.922,-9.9688 c 0.48828,-0.75 1.0625,-1.3164 1.7188,-1.7031 0.66406,-0.38281 1.3984,-0.57812 2.2031,-0.57812 1.375,0 2.4219,0.42969 3.1406,1.2812 0.71875,0.84375 1.0781,2.0742 1.0781,3.6875 v 7.2812 h -3.8438 v -6.2344 c 0.0078,-0.09375 0.01563,-0.1875 0.01563,-0.28125 v -0.4375 c 0,-0.84375 -0.125,-1.457 -0.375,-1.8438 -0.25,-0.38281 -0.65234,-0.57812 -1.2031,-0.57812 -0.73047,0 -1.293,0.30469 -1.6875,0.90625 -0.38672,0.59375 -0.58984,1.4609 -0.60938,2.5938 v 5.875 h -3.8438 v -6.2344 c 0,-1.3203 -0.11719,-2.1758 -0.34375,-2.5625 -0.23047,-0.38281 -0.63672,-0.57812 -1.2188,-0.57812 -0.73047,0 -1.2969,0.30469 -1.7031,0.90625 -0.39844,0.60547 -0.59375,1.4648 -0.59375,2.5781 v 5.8906 h -3.8438 v -11.969 h 3.8438 v 1.75 c 0.46875,-0.66406 1.0039,-1.1719 1.6094,-1.5156 0.61328,-0.34375 1.2891,-0.51562 2.0312,-0.51562 0.82031,0 1.5508,0.19922 2.1875,0.59375 0.63281,0.39844 1.1133,0.96094 1.4375,1.6875 z"
         id="path314" />
    </symbol>
    <symbol
       id="s"
       overflow="visible">
      <path
         d="M 13.859,-7.2812 V 0 h -3.8438 v -5.5469 c 0,-1.0508 -0.027344,-1.7695 -0.078125,-2.1562 -0.042969,-0.39453 -0.12109,-0.6875 -0.23438,-0.875 -0.14844,-0.25 -0.35156,-0.44141 -0.60938,-0.57812 -0.25,-0.14453 -0.54297,-0.21875 -0.875,-0.21875 -0.79297,0 -1.418,0.3125 -1.875,0.9375 -0.46094,0.61719 -0.6875,1.4648 -0.6875,2.5469 V 3e-5 h -3.8125 v -16.625 h 3.8125 v 6.4062 c 0.58203,-0.69531 1.1953,-1.207 1.8438,-1.5312 0.64453,-0.33203 1.3594,-0.5 2.1406,-0.5 1.3828,0 2.4297,0.42969 3.1406,1.2812 0.71875,0.84375 1.0781,2.0742 1.0781,3.6875 z"
         id="path317" />
    </symbol>
    <symbol
       id="r"
       overflow="visible">
      <path
         d="m 2.0156,-15.953 h 4.5781 l 5.8125,10.938 v -10.938 h 3.8906 V 0 H 11.703 L 5.9061,-10.938 V 0 H 2.0155 Z"
         id="path320" />
    </symbol>
    <symbol
       id="q"
       overflow="visible">
      <path
         d="m 1.7031,-4.6562 v -7.3125 h 3.8438 v 1.2031 c 0,0.64844 -0.00781,1.4609 -0.015625,2.4375 v 1.9688 c 0,0.96094 0.023438,1.6523 0.078125,2.0781 0.050781,0.41797 0.13281,0.72656 0.25,0.92188 0.15625,0.25 0.35938,0.44531 0.60938,0.57812 0.25781,0.13672 0.55078,0.20312 0.875,0.20312 0.80078,0 1.4258,-0.30469 1.875,-0.92188 0.45703,-0.61328 0.6875,-1.4688 0.6875,-2.5625 v -5.9062 h 3.8281 v 11.969 h -3.8281 v -1.7344 c -0.57422,0.69922 -1.1836,1.2148 -1.8281,1.5469 -0.64844,0.33203 -1.3555,0.5 -2.125,0.5 -1.3867,0 -2.4453,-0.42188 -3.1719,-1.2656 -0.71875,-0.85156 -1.0781,-2.0859 -1.0781,-3.7031 z"
         id="path323" />
    </symbol>
    <symbol
       id="p"
       overflow="visible">
      <path
         d="M 13.859,-7.2812 V 0 h -3.8438 v -5.5781 c 0,-1.0312 -0.027344,-1.7383 -0.078125,-2.125 -0.042969,-0.39453 -0.12109,-0.6875 -0.23438,-0.875 -0.14844,-0.25 -0.35156,-0.44141 -0.60938,-0.57812 -0.25,-0.14453 -0.54297,-0.21875 -0.875,-0.21875 -0.79297,0 -1.418,0.3125 -1.875,0.9375 -0.46094,0.61719 -0.6875,1.4648 -0.6875,2.5469 V 3e-5 h -3.8125 v -11.969 h 3.8125 v 1.75 c 0.58203,-0.69531 1.1953,-1.207 1.8438,-1.5312 0.64453,-0.33203 1.3594,-0.5 2.1406,-0.5 1.3828,0 2.4297,0.42969 3.1406,1.2812 0.71875,0.84375 1.0781,2.0742 1.0781,3.6875 z"
         id="path326" />
    </symbol>
    <symbol
       id="o"
       overflow="visible">
      <path
         d="m 1.8438,-11.969 h 3.8125 v 11.75 c 0,1.6016 -0.38672,2.8281 -1.1562,3.6719 C 3.73838,4.29665 2.629,4.7185 1.172,4.7185 h -1.8906 v -2.5 h 0.65625 c 0.72656,0 1.2266,-0.16797 1.5,-0.5 C 1.70718,1.39428 1.8439,0.74975 1.8439,-0.219 Z m 0,-4.6562 h 3.8125 v 3.125 H 1.8438 Z"
         id="path329" />
    </symbol>
    <symbol
       id="n"
       overflow="visible">
      <path
         d="m 11.5,-11.594 v 3.125 C 10.97656,-8.82056 10.457,-9.08228 9.9375,-9.25025 9.41406,-9.42603 8.875,-9.51587 8.3125,-9.51587 c -1.0742,0 -1.9062,0.3125 -2.5,0.9375 -0.5938,0.625 -0.89062,1.4961 -0.89062,2.6094 0,1.1172 0.29688,1.9844 0.89062,2.6094 0.59374,0.625 1.4258,0.9375 2.5,0.9375 0.59375,0 1.1562,-0.085937 1.6875,-0.26562 0.53906,-0.17578 1.0391,-0.44141 1.5,-0.79688 v 3.125 c -0.59375,0.23047 -1.1992,0.39453 -1.8125,0.5 -0.61719,0.11328 -1.2344,0.17188 -1.8594,0.17188 -2.1562,0 -3.8438,-0.55078 -5.0625,-1.6562 -1.2188,-1.1133 -1.8281,-2.6562 -1.8281,-4.625 0,-1.9688 0.60938,-3.5039 1.8281,-4.6094 1.2188,-1.1133 2.9062,-1.6719 5.0625,-1.6719 0.625,0 1.2383,0.05859 1.8438,0.17188 0.61328,0.10547 1.2227,0.26562 1.8281,0.48438 z"
         id="path332" />
    </symbol>
  </defs>
  <g
     inkscape:label="Layer 1"
     inkscape:groupmode="layer"
     id="layer1"
     transform="translate(-6.1424154,-33.251493)">
    <path
       d="m 32.061662,161.16799 c -2.079449,0 -4.011436,-0.71381 -5.348111,-1.61643 l -0.891575,2.51905 c 1.299492,0.93983 3.527777,1.61642 5.682897,1.65364 v 3.79801 h 2.339904 v -3.9109 c 3.825523,-0.63941 5.867753,-3.42166 5.867753,-6.39127 0,-3.34726 -1.930647,-5.30119 -5.755922,-6.88058 -3.231515,-1.35322 -4.606925,-2.33165 -4.606925,-4.28696 0,-1.50343 1.07763,-3.23289 3.937,-3.23289 2.377122,0 3.899958,0.82543 4.681361,1.27745 l 0.927418,-2.48045 c -1.077631,-0.63941 -2.600361,-1.24161 -4.828823,-1.31604 v -3.64631 h -2.302686 v 3.798 c -3.416159,0.56501 -5.607403,2.93247 -5.607403,6.05367 0,3.27145 2.339905,5.00098 6.128103,6.50452 2.747821,1.1286 4.19735,2.40605 4.19735,4.47463 -0.0014,2.14147 -1.783186,3.68335 -4.420658,3.68335 z"
       id="path337"
       style="stroke-width:0.352778" />
    <path
       d="m 84.886607,150.34124 c -3.231515,-1.35322 -4.606925,-2.33165 -4.606925,-4.28696 0,-1.50343 1.07763,-3.23289 3.937,-3.23289 2.377122,0 3.899958,0.82543 4.681361,1.27745 l 0.927418,-2.48046 c -1.077631,-0.6394 -2.600361,-1.2416 -4.828823,-1.31603 v -3.64631 h -2.302686 v 3.798 c -3.416159,0.56501 -5.607403,2.93247 -5.607403,6.05367 0,3.27145 2.339905,5.00098 6.128103,6.50452 2.747821,1.1286 4.19735,2.40605 4.19735,4.47463 0,2.14284 -1.783186,3.68476 -4.419247,3.68476 -2.079449,0 -4.011436,-0.71381 -5.348112,-1.61643 l -0.892951,2.51767 c 1.299493,0.93984 3.527778,1.61643 5.682898,1.65365 v 3.79801 h 2.339904 v -3.9109 c 3.825522,-0.63941 5.867753,-3.42166 5.867753,-6.39127 0,-3.34589 -1.930647,-5.3012 -5.755922,-6.88058 z"
       id="path339"
       style="stroke-width:0.352778" />
    <path
       d="m 135.82066,150.34124 c -3.23151,-1.35322 -4.60692,-2.33165 -4.60692,-4.28696 0,-1.50343 1.07763,-3.23289 3.937,-3.23289 2.37712,0 3.89996,0.82543 4.68136,1.27745 l 0.92742,-2.48046 c -1.07763,-0.6394 -2.60036,-1.2416 -4.82883,-1.31603 v -3.64631 h -2.30268 v 3.798 c -3.41616,0.56501 -5.60741,2.93247 -5.60741,6.05367 0,3.27145 2.33991,5.00098 6.12811,6.50452 2.74782,1.1286 4.19735,2.40605 4.19735,4.47463 0,2.14284 -1.78319,3.68476 -4.41925,3.68476 -2.07945,0 -4.01144,-0.71381 -5.34811,-1.61643 l -0.89295,2.51767 c 1.29949,0.93984 3.52778,1.61643 5.6829,1.65365 v 3.79801 h 2.3399 v -3.9109 c 3.82552,-0.63941 5.86775,-3.42166 5.86775,-6.39127 0,-3.34589 -1.93064,-5.3012 -5.75592,-6.88058 z"
       id="path341"
       style="stroke-width:0.352778" />
    <path
       d="m 203.69864,78.007683 c 0,-6.807553 -5.53967,-12.347223 -12.34723,-12.347223 -6.80755,0 -12.34722,5.53967 -12.34722,12.347223 0,5.170311 3.19843,9.602258 7.71701,11.437761 V 198.39381 h -30.19142 c -1.41937,-2.44602 -3.92183,-4.18218 -6.85024,-4.55013 v -3.16675 h 7.71701 c 0.85164,0 1.5434,-0.69176 1.5434,-1.5434 V 115.0502 c 0,-0.85164 -0.69176,-1.54341 -1.5434,-1.54341 h -7.71701 v -4.6302 c 0,-0.85165 -0.69176,-1.54341 -1.5434,-1.54341 h -21.68631 c 0.051,-0.24942 0.0785,-0.50712 0.0785,-0.7717 v -1.5434 c 0,-2.12768 -1.7308,-3.85869 -3.85869,-3.85869 H 116.93 c 6.54826,-2.85806 11.14143,-9.38847 11.14143,-16.977426 0,-10.212564 -8.30827,-18.520833 -18.52084,-18.520833 -2.75607,0 -5.36469,0.621488 -7.71701,1.705998 V 48.683665 c 0,-2.553512 -2.076698,-4.630209 -4.63021,-4.630209 h -9.194094 l -2.592105,-7.464777 c -0.912249,-2.587943 -3.749675,-3.961695 -6.321073,-3.06063 L 56.51832,41.486363 c -2.574184,0.92329 -3.927475,3.775781 -3.020659,6.348589 l 6.180666,17.851261 c -9.986786,0.259073 -18.037175,8.445853 -18.037175,18.496139 0,7.588956 4.593167,14.119225 11.141428,16.977428 H 40.869274 c -2.127673,0 -3.858683,1.7308 -3.858683,3.85869 v 1.5434 c 0,0.26458 0.02755,0.52229 0.07855,0.7717 H 18.489638 c -0.851641,0 -1.543403,0.69176 -1.543403,1.5434 v 4.63021 H 9.229221 c -0.8516409,0 -1.5434028,0.69176 -1.5434028,1.5434 v 74.08334 c 0,0.85164 0.6917619,1.5434 1.5434028,1.5434 h 7.717014 v 24.69445 h -6.173611 c -2.5535117,0 -4.6302086,2.07669 -4.6302086,4.6302 v 9.26042 c 0,0.85164 0.6917619,1.5434 1.5434028,1.5434 H 158.93929 c 0.85164,0 1.5434,-0.69176 1.5434,-1.5434 v -9.26042 c 0,-2.55351 -2.07669,-4.6302 -4.6302,-4.6302 h -6.17362 v -3.16675 c 2.92834,-0.36657 5.42961,-2.10425 6.85024,-4.55013 h 37.9095 c 0.85164,0 1.54341,-0.69176 1.54341,-1.5434 V 89.447878 c 4.51979,-1.835538 7.71701,-6.26745 7.71701,-11.437761 z M 155.85491,187.58752 h -46.30208 v -70.99653 h 46.30208 z m -49.38889,-70.99653 v 70.99653 H 60.16394 v -70.99653 z m 18.52084,-32.41146 c 0,8.510764 -6.92327,15.434028 -15.43403,15.434028 -8.51076,0 -15.434029,-6.923264 -15.434029,-15.434028 0,-8.510764 6.923269,-15.434028 15.434029,-15.434028 8.51076,0 15.43403,6.923264 15.43403,15.434028 z M 98.74901,48.68303 v 20.485805 c -4.664781,3.366559 -7.717014,8.833203 -7.717014,15.012459 0,2.167643 0.392747,4.238978 1.080382,6.173611 H 77.604392 c 0.687634,-1.934774 1.080382,-4.005792 1.080382,-6.173611 0,-6.179256 -3.05234,-11.6459 -7.717014,-15.012459 V 48.68303 c 0,-0.850265 0.693137,-1.543403 1.543402,-1.543403 h 24.694445 c 0.850265,0 1.543403,0.693138 1.543403,1.543403 z m -41.193862,-4.288367 22.56402,-7.955492 c 0.968763,-0.336239 2.04089,0.188793 2.385377,1.168577 l 2.237952,6.44525 H 72.510986 c -2.553511,0 -4.630208,2.076697 -4.630208,4.630208 V 67.36667 c -1.521355,-0.701428 -3.1502,-1.196128 -4.85775,-1.462087 L 56.414089,46.81613 c -0.347268,-0.985309 0.168119,-2.07257 1.141024,-2.42122 z M 44.729912,84.180941 c 0,-8.510764 6.923264,-15.434028 15.434028,-15.434028 8.510764,0 15.434028,6.923264 15.434028,15.434028 0,8.510764 -6.923264,15.434028 -15.434028,15.434028 -8.510764,0 -15.434028,-6.923264 -15.434028,-15.434028 z m 31.449434,9.260417 h 17.359136 c 1.977496,3.406493 4.999567,6.129514 8.635998,7.717012 H 67.544404 c 3.635375,-1.587498 6.657269,-4.31059 8.634942,-7.717012 z M 40.100762,105.0167 c 0,-0.4258 0.345888,-0.7717 0.771702,-0.7717 h 81.802116 c 0.4258,0 0.7717,0.34589 0.7717,0.7717 v 1.54341 c 0,0.4258 -0.34589,0.7717 -0.7717,0.7717 H 40.872464 c -0.425803,0 -0.771702,-0.34589 -0.771702,-0.7717 z m -20.064236,5.40174 H 146.59555 v 3.0868 H 20.036526 Z m -9.260417,6.17361 h 46.302084 v 70.99653 H 10.776109 Z M 157.39761,219.99827 v 7.71701 H 9.2309425 v -7.71701 c 0,-0.85027 0.6931378,-1.5434 1.5434025,-1.5434 H 155.85421 c 0.85026,0 1.5434,0.69313 1.5434,1.5434 z M 20.032998,215.36806 v -24.69444 h 3.086806 v 15.43402 c 0,0.85165 0.691762,1.54341 1.543402,1.54341 0.851641,0 1.543403,-0.69176 1.543403,-1.54341 v -15.43402 h 3.086806 v 12.34722 c 0,0.85164 0.691762,1.5434 1.543403,1.5434 0.85164,0 1.543402,-0.69176 1.543402,-1.5434 v -12.34722 h 3.086806 v 9.26041 c 0,0.85164 0.691762,1.54341 1.543403,1.54341 0.851641,0 1.543403,-0.69177 1.543403,-1.54341 v -9.26041 h 89.517358 v 9.26041 c 0,0.85164 0.69177,1.54341 1.54341,1.54341 0.85164,0 1.5434,-0.69177 1.5434,-1.54341 v -9.26041 h 3.0868 v 12.34722 c 0,0.85164 0.69177,1.5434 1.54341,1.5434 0.85164,0 1.5434,-0.69176 1.5434,-1.5434 v -12.34722 h 3.08681 v 15.43402 c 0,0.85165 0.69176,1.54341 1.5434,1.54341 0.85164,0 1.5434,-0.69176 1.5434,-1.54341 v -15.43402 h 3.08681 v 24.69444 z m 129.645832,-6.29073 v -12.11298 c 2.15664,0.41204 3.89996,1.95128 4.63021,3.97686 v 0.53605 h 0.16674 c 0.12816,0.49608 0.21911,1.00736 0.21911,1.5434 0,0.53605 -0.0909,1.04733 -0.21911,1.54341 h -0.16674 v 0.53604 c -0.73036,2.02572 -2.47357,3.56482 -4.63021,3.97687 z m 43.21528,-4.51309 h -35.25167 c 0.0854,-0.50299 0.13918,-1.01699 0.13918,-1.5434 0,-0.52642 -0.0537,-1.04041 -0.13918,-1.5434 h 30.62146 c 0.85164,0 1.5434,-0.69177 1.5434,-1.54341 V 90.244838 c 0.50712,0.06339 1.01974,0.107488 1.54341,0.107488 0.52366,0 1.03628,-0.0441 1.5434,-0.107488 z m -1.5434,-117.29861 c -5.10717,0 -9.26042,-4.153253 -9.26042,-9.260417 0,-4.579055 3.34451,-8.382705 7.71701,-9.121069 v 12.979753 c 0,0.85164 0.69177,1.543402 1.54341,1.543402 0.85164,0 1.5434,-0.691762 1.5434,-1.543402 V 68.884144 c 4.37268,0.738646 7.71701,4.540603 7.71701,9.121069 0,5.107164 -4.15325,9.260417 -9.26041,9.260417 z"
       id="path343"
       style="stroke-width:0.352778" />
    <path
       d="M 123.44169,198.38957 H 43.184745 c -0.85164,0 -1.543402,0.69176 -1.543402,1.54341 v 6.17361 c 0,0.85164 0.691762,1.5434 1.543402,1.5434 h 80.256945 c 0.85164,0 1.5434,-0.69176 1.5434,-1.5434 v -6.17361 c 0,-0.85165 -0.69176,-1.54341 -1.5434,-1.54341 z m -1.5434,6.17361 H 44.728148 v -3.0868 h 77.170142 z"
       id="path345"
       style="stroke-width:0.352778" />
    <path
       d="m 109.5493,98.070155 c 7.65916,0 13.89063,-6.231467 13.89063,-13.890625 0,-7.659158 -6.23147,-13.890625 -13.89063,-13.890625 -7.65916,0 -13.890624,6.231467 -13.890624,13.890625 0,7.659158 6.231464,13.890625 13.890624,13.890625 z m 0,-24.694445 c 5.95736,0 10.80382,4.846462 10.80382,10.80382 0,5.957358 -4.84646,10.80382 -10.80382,10.80382 -5.95736,0 -10.803818,-4.846462 -10.803818,-10.80382 0,-5.957358 4.846458,-10.80382 10.803818,-10.80382 z"
       id="path347"
       style="stroke-width:0.352778" />
    <path
       d="m 84.19869,77.220988 c -1.941653,0 -3.74403,-0.666961 -4.9911,-1.508936 l -0.832344,2.350946 c 1.212674,0.876441 3.293498,1.508937 5.304014,1.543403 v 3.54577 h 2.184189 v -3.650545 c 3.570463,-0.596688 5.47758,-3.192921 5.47758,-5.965472 0,-3.124024 -1.802483,-4.948414 -5.372805,-6.421614 -3.016533,-1.26365 -4.299656,-2.175933 -4.299656,-4.0005 0,-1.402856 1.005981,-3.016532 3.675239,-3.016532 2.218655,0 3.639255,0.770325 4.368447,1.192 l 0.865399,-2.31648 C 89.573048,58.37634 88.152306,57.814083 86.072681,57.745185 v -3.405117 h -2.149757 v 3.54577 c -3.188794,0.526415 -5.233811,2.736779 -5.233811,5.648678 0,3.052339 2.184188,4.66725 5.720291,6.071658 2.564518,1.05283 3.916539,2.246207 3.916539,4.175478 -0.0028,2.00092 -1.667439,3.439583 -4.127147,3.439583 z m 5.462411,-4.901847 c -0.176389,-0.592561 -0.458893,-1.107934 -0.813047,-1.5627 0.428555,0.500239 0.67938,1.018364 0.813047,1.5627 z"
       id="path349"
       style="stroke-width:0.352778" />
    <path
       d="m 74.052801,84.181294 c 0,-7.659159 -6.231466,-13.890625 -13.890625,-13.890625 -7.659158,0 -13.890625,6.231466 -13.890625,13.890625 0,7.659158 6.231467,13.890625 13.890625,13.890625 7.659159,0 13.890625,-6.231467 13.890625,-13.890625 z m -24.694444,0 c 0,-5.957358 4.846461,-10.80382 10.803819,-10.80382 5.957359,0 10.80382,4.846462 10.80382,10.80382 0,5.957358 -4.846461,10.803819 -10.80382,10.803819 -5.957358,0 -10.803819,-4.846461 -10.803819,-10.803819 z"
       id="path351"
       style="stroke-width:0.352778" />
    <path
       d="m 60.64019,90.354905 v -1.564076 c 1.700495,-0.256314 2.608615,-1.368389 2.608615,-2.556263 0,-1.338086 -0.85852,-2.120794 -2.559014,-2.751949 -1.435912,-0.541584 -2.046394,-0.931545 -2.046394,-1.714288 0,-0.600816 0.478191,-1.292613 1.750096,-1.292613 1.055581,0 1.733585,0.330729 2.079448,0.511246 l 0.412045,-0.992188 C 62.406795,79.73846 61.730203,79.498698 60.739391,79.468359 v -1.460712 h -1.023867 v 1.519979 c -1.518602,0.225996 -2.492869,1.172704 -2.492869,2.42122 0,1.307747 1.040413,1.999544 2.724397,2.601736 1.220929,0.451979 1.865877,0.961884 1.865877,1.790065 0,0.857144 -0.792374,1.473129 -1.965078,1.473129 -0.924666,0 -1.783186,-0.285252 -2.377122,-0.646289 l -0.3955,1.007357 c 0.577392,0.374827 1.568204,0.646289 2.52596,0.661459 v 1.518602 z"
       id="path353"
       style="stroke-width:0.352778" />
    <path
       d="m 109.23886,87.811377 c -0.92467,0 -1.78319,-0.285252 -2.37713,-0.646289 l -0.39687,1.008733 c 0.57739,0.374827 1.5682,0.646289 2.52596,0.661458 v 1.518603 h 1.04041 v -1.564076 c 1.69912,-0.256314 2.60724,-1.368389 2.60724,-2.556263 0,-1.338086 -0.85852,-2.120794 -2.55901,-2.751949 -1.43592,-0.541584 -2.0464,-0.931545 -2.0464,-1.714288 0,-0.600816 0.47819,-1.292613 1.7501,-1.292613 1.05558,0 1.73358,0.330729 2.07945,0.511246 l 0.41204,-0.992188 c -0.47819,-0.256314 -1.15478,-0.496076 -2.14559,-0.526415 v -1.460712 h -1.02387 v 1.519979 c -1.5186,0.225996 -2.49287,1.172704 -2.49287,2.421219 0,1.307748 1.04041,1.999545 2.7244,2.601737 1.22093,0.451978 1.86587,0.961883 1.86587,1.790065 0,0.855768 -0.79237,1.471753 -1.9637,1.471753 z"
       id="path355"
       style="stroke-width:0.352778" />
    <path
       d="M 52.445162,119.67779 H 15.403495 c -0.851641,0 -1.543402,0.69177 -1.543402,1.54341 v 61.73611 c 0,0.85164 0.691761,1.5434 1.543402,1.5434 h 37.041667 c 0.851641,0 1.543403,-0.69176 1.543403,-1.5434 V 121.2212 c 0,-0.85164 -0.691762,-1.54341 -1.543403,-1.54341 z m -1.543403,61.73612 H 16.946898 V 122.7646 h 33.954861 z"
       id="path357"
       style="stroke-width:0.352778" />
    <path
       d="m 64.792385,184.50071 h 37.041665 c 0.85164,0 1.5434,-0.69176 1.5434,-1.5434 V 121.2212 c 0,-0.85164 -0.69176,-1.54341 -1.5434,-1.54341 H 64.792385 c -0.851641,0 -1.543403,0.69177 -1.543403,1.54341 v 61.73611 c 0,0.85164 0.691762,1.5434 1.543403,1.5434 z m 1.543402,-61.73611 h 33.954863 v 58.64931 H 66.335787 Z"
       id="path359"
       style="stroke-width:0.352778" />
    <path
       d="m 114.18127,184.50071 h 37.04167 c 0.85164,0 1.5434,-0.69176 1.5434,-1.5434 V 121.2212 c 0,-0.85164 -0.69176,-1.54341 -1.5434,-1.54341 h -37.04167 c -0.85164,0 -1.5434,0.69177 -1.5434,1.54341 v 61.73611 c 0,0.85164 0.69176,1.5434 1.5434,1.5434 z m 1.54341,-61.73611 h 33.95486 v 58.64931 h -33.95486 z"
       id="path361"
       style="stroke-width:0.352778" />
  </g>
</svg>
